SplineFontDB: 3.0
FontName: ElaineSans-ExtraBoldItalic
FullName: Elaine Sans ExtraBold Italic
FamilyName: Elaine Sans ExtraBold
Weight: Extra-Bold
Copyright: Copyright (c) 2015 by Wei Huang. All rights reserved.
Version: 1.030;PS 001.030;hotconv 1.0.70;makeotf.lib2.5.58329
ItalicAngle: -13
UnderlinePosition: -250
UnderlineWidth: 50
Ascent: 760
Descent: 240
InvalidEm: 0
sfntRevision: 0x000107ae
LayerCount: 2
Layer: 0 1 "Back" 1
Layer: 1 1 "Fore" 0
XUID: [1021 288 1899785369 5380]
StyleMap: 0x0001
FSType: 4
OS2Version: 3
OS2_WeightWidthSlopeOnly: 0
OS2_UseTypoMetrics: 0
CreationTime: 1436215496
ModificationTime: 1543786795
PfmFamily: 81
TTFWeight: 800
TTFWidth: 5
LineGap: 0
VLineGap: 0
Panose: 0 0 9 0 0 0 0 0 0 0
OS2TypoAscent: 760
OS2TypoAOffset: 0
OS2TypoDescent: -240
OS2TypoDOffset: 0
OS2TypoLinegap: 173
OS2WinAscent: 930
OS2WinAOffset: 0
OS2WinDescent: 243
OS2WinDOffset: 0
HheadAscent: 930
HheadAOffset: 0
HheadDescent: -243
HheadDOffset: 0
OS2SubXSize: 650
OS2SubYSize: 600
OS2SubXOff: 0
OS2SubYOff: 75
OS2SupXSize: 650
OS2SupYSize: 600
OS2SupXOff: 0
OS2SupYOff: 350
OS2StrikeYSize: 50
OS2StrikeYPos: 300
OS2CapHeight: 660
OS2XHeight: 500
OS2Vendor: 'UKWN'
OS2CodePages: 20000093.00000000
OS2UnicodeRanges: 00000007.00000001.00000000.00000000
Lookup: 1 0 0 "'aalt' Access All Alternates lookup 0" { "'aalt' Access All Alternates lookup 0 subtable"  } ['aalt' ('DFLT' <'dflt' > 'grek' <'dflt' > 'latn' <'CAT ' 'MOL ' 'NLD ' 'ROM ' 'TRK ' 'dflt' > ) ]
Lookup: 3 0 0 "'aalt' Access All Alternates lookup 1" { "'aalt' Access All Alternates lookup 1 subtable"  } ['aalt' ('DFLT' <'dflt' > 'grek' <'dflt' > 'latn' <'CAT ' 'MOL ' 'NLD ' 'ROM ' 'TRK ' 'dflt' > ) ]
Lookup: 1 0 0 "'locl' Localized Forms in Latin lookup 2" { "'locl' Localized Forms in Latin lookup 2 subtable"  } ['locl' ('latn' <'TRK ' > ) ]
Lookup: 1 0 0 "'locl' Localized Forms in Latin lookup 3" { "'locl' Localized Forms in Latin lookup 3 subtable"  } ['locl' ('latn' <'TAT ' > ) ]

StartChar: .notdef
Encoding: 65536 -1 0
Width: 500
Flags: W
LayerCount: 2
Fore
SplineSet
-14 0 m 1,0,-1
 138.373046875 660 l 1,1,-1
 538.373046875 660 l 1,2,-1
 386 0 l 1,3,-1
 -14 0 l 1,0,-1
84.4697265625 80 m 1,4,-1
 324.469726562 80 l 1,5,-1
 439.903320312 580 l 1,6,-1
 199.903320312 580 l 1,7,-1
 84.4697265625 80 l 1,4,-1
EndSplineSet
EndChar

StartChar: exclam
Encoding: 33 33 4
Width: 312
GlyphClass: 2
Flags: W
LayerCount: 2
Fore
SplineSet
349.373046875 660 m 1,0,-1
 306.200195312 473 l 1,1,-1
 225.329101562 218 l 1,2,-1
 58.3291015625 218 l 1,3,-1
 95.2001953125 473 l 1,4,-1
 138.373046875 660 l 1,5,-1
 349.373046875 660 l 1,0,-1
131.940429688 173 m 0,6,7
 181.940429688 173 181.940429688 173 205.014648438 149.5 c 128,-1,8
 228.08984375 126 228.08984375 126 218.162109375 83 c 128,-1,9
 208.234375 40 208.234375 40 174.194335938 16 c 128,-1,10
 140.153320312 -8 140.153320312 -8 90.1533203125 -8 c 0,11,12
 39.1533203125 -8 39.1533203125 -8 16.1943359375 16 c 128,-1,13
 -6.765625 40 -6.765625 40 3.162109375 83 c 128,-1,14
 13.08984375 126 13.08984375 126 47.0146484375 149.5 c 128,-1,15
 80.9404296875 173 80.9404296875 173 131.940429688 173 c 0,6,7
EndSplineSet
Substitution2: "'smcp' Lowercase to Small Capitals lookup 12 subtable" exclam.sc
Substitution2: "'c2sc' Capitals to Small Capitals lookup 11 subtable" exclam.sc
Substitution2: "'aalt' Access All Alternates lookup 0 subtable" exclam.sc
EndChar

StartChar: quotedbl
Encoding: 34 34 5
Width: 463
GlyphClass: 2
Flags: W
LayerCount: 2
Fore
SplineSet
517.60546875 674 m 1,0,-1
 420.115234375 386 l 1,1,-1
 289.115234375 386 l 1,2,-1
 355.60546875 674 l 1,3,-1
 517.60546875 674 l 1,0,-1
309.60546875 674 m 1,4,-1
 212.115234375 386 l 1,5,-1
 81.115234375 386 l 1,6,-1
 147.60546875 674 l 1,7,-1
 309.60546875 674 l 1,4,-1
EndSplineSet
Substitution2: "'smcp' Lowercase to Small Capitals lookup 12 subtable" quotedbl.sc
Substitution2: "'c2sc' Capitals to Small Capitals lookup 11 subtable" quotedbl.sc
Substitution2: "'aalt' Access All Alternates lookup 0 subtable" quotedbl.sc
EndChar

StartChar: numbersign
Encoding: 35 35 6
Width: 604
GlyphClass: 2
Flags: W
LayerCount: 2
Fore
SplineSet
617.961914062 394 m 1,0,-1
 513.961914062 394 l 1,1,-1
 464.641601562 267 l 1,2,-1
 560.641601562 267 l 1,3,-1
 533.629882812 150 l 1,4,-1
 419.629882812 150 l 1,5,-1
 361 0 l 1,6,-1
 252 0 l 1,7,-1
 310.629882812 150 l 1,8,-1
 183.629882812 150 l 1,9,-1
 126 0 l 1,10,-1
 17 0 l 1,11,-1
 74.6298828125 150 l 1,12,-1
 -17.3701171875 150 l 1,13,-1
 9.6416015625 267 l 1,14,-1
 120.641601562 267 l 1,15,-1
 168.961914062 394 l 1,16,-1
 66.9619140625 394 l 1,17,-1
 93.9736328125 511 l 1,18,-1
 214.973632812 511 l 1,19,-1
 272.373046875 660 l 1,20,-1
 381.373046875 660 l 1,21,-1
 323.973632812 511 l 1,22,-1
 449.973632812 511 l 1,23,-1
 507.373046875 660 l 1,24,-1
 616.373046875 660 l 1,25,-1
 558.973632812 511 l 1,26,-1
 644.973632812 511 l 1,27,-1
 617.961914062 394 l 1,0,-1
355.641601562 267 m 1,28,-1
 404.961914062 394 l 1,29,-1
 278.961914062 394 l 1,30,-1
 229.641601562 267 l 1,31,-1
 355.641601562 267 l 1,28,-1
EndSplineSet
Substitution2: "'tnum' Tabular Numbers lookup 26 subtable" numbersign.tf
Substitution2: "'aalt' Access All Alternates lookup 0 subtable" numbersign.tf
EndChar

StartChar: dollar
Encoding: 36 36 7
Width: 604
GlyphClass: 2
Flags: W
LayerCount: 2
Fore
SplineSet
368.654296875 397 m 1,0,1
 406.807617188 389 406.807617188 389 430.69140625 382 c 128,-1,2
 454.575195312 375 454.575195312 375 486.381835938 359 c 128,-1,3
 518.1875 343 518.1875 343 534.185546875 323.5 c 128,-1,4
 550.18359375 304 550.18359375 304 557.450195312 270.5 c 128,-1,5
 564.715820312 237 564.715820312 237 554.788085938 194 c 0,6,7
 535.395507812 110 535.395507812 110 458.62109375 59 c 128,-1,8
 381.846679688 8 381.846679688 8 277.23046875 1 c 1,9,-1
 257.607421875 -84 l 1,10,-1
 197.607421875 -84 l 1,11,-1
 217.23046875 1 l 1,12,13
 124.923828125 4 124.923828125 4 70.1572265625 31 c 128,-1,14
 15.390625 58 15.390625 58 -19.6044921875 110 c 1,15,-1
 105.099609375 230 l 1,16,17
 115.633789062 189 115.633789062 189 155.862304688 164 c 128,-1,18
 196.090820312 139 196.090820312 139 247.936523438 134 c 1,19,-1
 276.102539062 256 l 1,20,21
 236.1796875 265 236.1796875 265 213.065429688 271 c 128,-1,22
 189.950195312 277 189.950195312 277 157.029296875 292.5 c 128,-1,23
 124.107421875 308 124.107421875 308 108.494140625 327 c 128,-1,24
 92.880859375 346 92.880859375 346 84.9990234375 379 c 128,-1,25
 77.1181640625 412 77.1181640625 412 86.814453125 454 c 0,26,27
 106.668945312 540 106.668945312 540 181.59765625 596 c 128,-1,28
 256.526367188 652 256.526367188 652 369.142578125 659 c 1,29,-1
 388.765625 744 l 1,30,-1
 448.765625 744 l 1,31,-1
 429.142578125 659 l 1,32,33
 513.44921875 656 513.44921875 656 557.215820312 629 c 128,-1,34
 600.982421875 602 600.982421875 602 646.053710938 546 c 1,35,-1
 525.965820312 433 l 1,36,37
 501.58984375 518 501.58984375 518 398.436523438 526 c 1,38,-1
 368.654296875 397 l 1,0,1
249.584960938 466 m 0,39,40
 241.2734375 430 241.2734375 430 311.88671875 411 c 1,41,-1
 338.206054688 525 l 1,42,43
 260.897460938 515 260.897460938 515 249.584960938 466 c 0,39,40
307.936523438 134 m 1,44,45
 382.552734375 141 382.552734375 141 392.94140625 186 c 0,46,47
 398.020507812 208 398.020507812 208 382.40625 220.5 c 128,-1,48
 366.791992188 233 366.791992188 233 333.100585938 243 c 1,49,-1
 307.936523438 134 l 1,44,45
EndSplineSet
Substitution2: "'tnum' Tabular Numbers lookup 26 subtable" dollar.tf
Substitution2: "'aalt' Access All Alternates lookup 0 subtable" dollar.tf
EndChar

StartChar: percent
Encoding: 37 37 8
Width: 967
GlyphClass: 2
Flags: W
LayerCount: 2
Fore
SplineSet
313.681640625 670 m 0,0,1
 401.681640625 670 401.681640625 670 443.176757812 618 c 128,-1,2
 484.671875 566 484.671875 566 464.81640625 480 c 128,-1,3
 444.961914062 394 444.961914062 394 379.45703125 342 c 128,-1,4
 313.952148438 290 313.952148438 290 225.952148438 290 c 0,5,6
 136.952148438 290 136.952148438 290 95.45703125 342 c 128,-1,7
 53.9619140625 394 53.9619140625 394 73.81640625 480 c 128,-1,8
 93.671875 566 93.671875 566 159.176757812 618 c 128,-1,9
 224.681640625 670 224.681640625 670 313.681640625 670 c 0,0,1
109 0 m 1,10,-1
 734.603515625 661 l 1,11,-1
 884.603515625 661 l 1,12,-1
 258 0 l 1,13,-1
 109 0 l 1,10,-1
283.20703125 538 m 0,14,15
 233.20703125 538 233.20703125 538 219.81640625 480 c 128,-1,16
 206.426757812 422 206.426757812 422 256.426757812 422 c 0,17,18
 305.426757812 422 305.426757812 422 318.81640625 480 c 128,-1,19
 332.20703125 538 332.20703125 538 283.20703125 538 c 0,14,15
765.420898438 370 m 128,-1,21
 853.420898438 370 853.420898438 370 895.416015625 318 c 128,-1,22
 937.411132812 266 937.411132812 266 917.556640625 180 c 128,-1,23
 897.701171875 94 897.701171875 94 831.696289062 42 c 128,-1,24
 765.69140625 -10 765.69140625 -10 677.69140625 -10 c 128,-1,25
 589.69140625 -10 589.69140625 -10 547.696289062 42 c 128,-1,26
 505.701171875 94 505.701171875 94 525.556640625 180 c 128,-1,27
 545.411132812 266 545.411132812 266 611.416015625 318 c 128,-1,20
 677.420898438 370 677.420898438 370 765.420898438 370 c 128,-1,21
734.946289062 238 m 128,-1,29
 684.946289062 238 684.946289062 238 671.556640625 180 c 128,-1,30
 658.166015625 122 658.166015625 122 708.166015625 122 c 128,-1,31
 758.166015625 122 758.166015625 122 771.556640625 180 c 128,-1,28
 784.946289062 238 784.946289062 238 734.946289062 238 c 128,-1,29
EndSplineSet
EndChar

StartChar: ampersand
Encoding: 38 38 9
Width: 655
GlyphClass: 2
Flags: W
LayerCount: 2
Fore
SplineSet
613.244140625 131 m 1,0,-1
 567.69140625 -10 l 1,1,2
 505.69140625 -10 505.69140625 -10 468.23046875 1 c 128,-1,3
 430.770507812 12 430.770507812 12 390.850585938 47 c 1,4,5
 306.69140625 -10 306.69140625 -10 190.69140625 -10 c 0,6,7
 82.69140625 -10 82.69140625 -10 27.9267578125 36.5 c 128,-1,8
 -26.837890625 83 -26.837890625 83 -7.291015625 172 c 0,9,10
 3.4833984375 223 3.4833984375 223 43.4501953125 270.5 c 128,-1,11
 83.416015625 318 83.416015625 318 157.1875 343 c 1,12,13
 130.345703125 387 130.345703125 387 124.96484375 420 c 128,-1,14
 119.583007812 453 119.583007812 453 129.048828125 494 c 0,15,16
 145.671875 566 145.671875 566 213.676757812 618 c 128,-1,17
 281.681640625 670 281.681640625 670 386.681640625 670 c 0,18,19
 493.681640625 670 493.681640625 670 535.715820312 622.5 c 128,-1,20
 577.749023438 575 577.749023438 575 561.819335938 506 c 0,21,22
 532.9609375 381 532.9609375 381 376.262695312 326 c 1,23,24
 384.4921875 314 384.4921875 314 405.258789062 287 c 0,25,26
 440.177734375 239 440.177734375 239 451.71484375 224 c 1,27,28
 481.2578125 274 481.2578125 274 494.110351562 334 c 1,29,-1
 624.6484375 332 l 1,30,31
 596.021484375 221 596.021484375 221 519.399414062 149 c 1,32,33
 555.934570312 121 555.934570312 121 613.244140625 131 c 1,0,-1
362.361328125 543 m 0,34,35
 338.361328125 543 338.361328125 543 320.8984375 528 c 128,-1,36
 303.435546875 513 303.435546875 513 297.202148438 486 c 0,37,38
 289.583007812 453 289.583007812 453 325.116210938 399 c 1,39,40
 390.043945312 442 390.043945312 442 402.279296875 495 c 0,41,42
 407.58984375 518 407.58984375 518 396.475585938 530.5 c 128,-1,43
 385.361328125 543 385.361328125 543 362.361328125 543 c 0,34,35
244.2421875 118 m 0,44,45
 277.2421875 118 277.2421875 118 316.55078125 128 c 1,46,47
 306.321289062 140 306.321289062 140 284.786132812 168 c 0,48,49
 257.635742188 202 257.635742188 202 215.333007812 257 c 1,50,51
 176.17578125 226 176.17578125 226 167.171875 187 c 0,52,53
 160.015625 156 160.015625 156 180.62890625 137 c 128,-1,54
 201.2421875 118 201.2421875 118 244.2421875 118 c 0,44,45
EndSplineSet
Substitution2: "'smcp' Lowercase to Small Capitals lookup 12 subtable" ampersand.sc
Substitution2: "'c2sc' Capitals to Small Capitals lookup 11 subtable" ampersand.sc
Substitution2: "'aalt' Access All Alternates lookup 0 subtable" ampersand.sc
EndChar

StartChar: quotesingle
Encoding: 39 39 10
Width: 255
GlyphClass: 2
Flags: W
LayerCount: 2
Fore
SplineSet
309.60546875 674 m 1,0,-1
 212.115234375 386 l 1,1,-1
 81.115234375 386 l 1,2,-1
 147.60546875 674 l 1,3,-1
 309.60546875 674 l 1,0,-1
EndSplineSet
Substitution2: "'smcp' Lowercase to Small Capitals lookup 12 subtable" quotesingle.sc
Substitution2: "'c2sc' Capitals to Small Capitals lookup 11 subtable" quotesingle.sc
Substitution2: "'aalt' Access All Alternates lookup 0 subtable" quotesingle.sc
EndChar

StartChar: parenleft
Encoding: 40 40 11
Width: 405
GlyphClass: 2
Flags: W
LayerCount: 2
Fore
SplineSet
414.764648438 731 m 1,0,-1
 485.986328125 641 l 1,1,2
 388.1328125 568 388.1328125 568 331.893554688 482.5 c 128,-1,3
 275.654296875 397 275.654296875 397 246.333984375 270 c 0,4,5
 216.783203125 142 216.783203125 142 233.543945312 56.5 c 128,-1,6
 250.3046875 -29 250.3046875 -29 314.451171875 -102 c 1,7,-1
 201.672851562 -192 l 1,8,9
 -5.158203125 -44 -5.158203125 -44 67.333984375 270 c 128,-1,10
 139.827148438 584 139.827148438 584 414.764648438 731 c 1,0,-1
EndSplineSet
Substitution2: "'case' Case-Sensitive Forms lookup 29 subtable" parenleft.case
Substitution2: "'sups' Superscript lookup 15 subtable" uni207D
Substitution2: "'subs' Subscript lookup 14 subtable" uni208D
Substitution2: "'sinf' Scientific Inferiors lookup 13 subtable" uni208D
AlternateSubs2: "'aalt' Access All Alternates lookup 1 subtable" uni208D uni207D parenleft.case
EndChar

StartChar: parenright
Encoding: 41 41 12
Width: 405
GlyphClass: 2
Flags: W
LayerCount: 2
Fore
SplineSet
199.764648438 731 m 1,0,1
 407.057617188 585 407.057617188 585 334.333984375 270 c 128,-1,2
 261.611328125 -45 261.611328125 -45 -13.3271484375 -192 c 1,3,-1
 -84.548828125 -102 l 1,4,5
 14.07421875 -30 14.07421875 -30 69.9287109375 56 c 128,-1,6
 125.783203125 142 125.783203125 142 155.333984375 270 c 128,-1,7
 184.885742188 398 184.885742188 398 168.625 483.5 c 128,-1,8
 152.364257812 569 152.364257812 569 86.986328125 641 c 1,9,-1
 199.764648438 731 l 1,0,1
EndSplineSet
Substitution2: "'case' Case-Sensitive Forms lookup 29 subtable" parenright.case
Substitution2: "'sups' Superscript lookup 15 subtable" uni207E
Substitution2: "'subs' Subscript lookup 14 subtable" uni208E
Substitution2: "'sinf' Scientific Inferiors lookup 13 subtable" uni208E
AlternateSubs2: "'aalt' Access All Alternates lookup 1 subtable" uni208E uni207E parenright.case
EndChar

StartChar: asterisk
Encoding: 42 42 13
Width: 594
GlyphClass: 2
Flags: W
LayerCount: 2
Fore
SplineSet
430.736328125 445 m 1,0,-1
 449.887695312 424 l 1,1,-1
 511.03125 312 l 1,2,-1
 377.869140625 229 l 1,3,-1
 325.111328125 347 l 1,4,-1
 319.806640625 376 l 1,5,-1
 300.111328125 347 l 1,6,-1
 192.869140625 229 l 1,7,-1
 98.03125 312 l 1,8,-1
 211.887695312 424 l 1,9,-1
 239.736328125 445 l 1,10,-1
 209.428710938 448 l 1,11,-1
 81.4326171875 487 l 1,12,-1
 156.599609375 622 l 1,13,-1
 279.287109375 573 l 1,14,-1
 302.59375 557 l 1,15,-1
 302.750976562 588 l 1,16,-1
 330.534179688 730 l 1,17,-1
 471.534179688 730 l 1,18,-1
 433.750976562 588 l 1,19,-1
 419.59375 557 l 1,20,-1
 450.287109375 573 l 1,21,-1
 596.599609375 622 l 1,22,-1
 608.432617188 487 l 1,23,-1
 462.428710938 448 l 1,24,-1
 430.736328125 445 l 1,0,-1
EndSplineSet
EndChar

StartChar: plus
Encoding: 43 43 14
Width: 604
GlyphClass: 2
Flags: W
LayerCount: 2
Fore
SplineSet
583.654296875 397 m 1,0,-1
 551.794921875 259 l 1,1,-1
 376.794921875 259 l 1,2,-1
 330.159179688 57 l 1,3,-1
 173.159179688 57 l 1,4,-1
 219.794921875 259 l 1,5,-1
 43.794921875 259 l 1,6,-1
 75.654296875 397 l 1,7,-1
 251.654296875 397 l 1,8,-1
 298.059570312 598 l 1,9,-1
 455.059570312 598 l 1,10,-1
 408.654296875 397 l 1,11,-1
 583.654296875 397 l 1,0,-1
EndSplineSet
Substitution2: "'sups' Superscript lookup 15 subtable" uni207A
Substitution2: "'subs' Subscript lookup 14 subtable" uni208A
Substitution2: "'sinf' Scientific Inferiors lookup 13 subtable" uni208A
AlternateSubs2: "'aalt' Access All Alternates lookup 1 subtable" uni208A uni207A
EndChar

StartChar: comma
Encoding: 44 44 15
Width: 305
GlyphClass: 2
Flags: W
LayerCount: 2
Fore
SplineSet
130.865234375 190 m 0,0,1
 189.865234375 190 189.865234375 190 211.361328125 151 c 128,-1,2
 232.857421875 112 232.857421875 112 218.774414062 51 c 0,3,4
 202.61328125 -19 202.61328125 -19 151.069335938 -75.5 c 128,-1,5
 99.525390625 -132 99.525390625 -132 19.599609375 -162 c 1,6,-1
 -53.2412109375 -105 l 1,7,8
 63.9169921875 -61 63.9169921875 -61 104.923828125 4 c 1,9,-1
 100.846679688 8 l 1,10,11
 85.845703125 -5 85.845703125 -5 66.845703125 -5 c 0,12,13
 29.845703125 -5 29.845703125 -5 7.38671875 19 c 128,-1,14
 -15.072265625 43 -15.072265625 43 -4.9140625 87 c 0,15,16
 6.859375 138 6.859375 138 42.8623046875 164 c 128,-1,17
 78.865234375 190 78.865234375 190 130.865234375 190 c 0,0,1
EndSplineSet
Substitution2: "'tnum' Tabular Numbers lookup 26 subtable" comma.tf
Substitution2: "'sups' Superscript lookup 15 subtable" commasuperior
Substitution2: "'subs' Subscript lookup 14 subtable" commainferior
Substitution2: "'sinf' Scientific Inferiors lookup 13 subtable" commainferior
AlternateSubs2: "'aalt' Access All Alternates lookup 1 subtable" commainferior commasuperior comma.tf
EndChar

StartChar: hyphen
Encoding: 45 45 16
Width: 534
GlyphClass: 2
Flags: W
LayerCount: 2
Fore
SplineSet
473.573242188 349 m 1,0,-1
 437.095703125 191 l 1,1,-1
 58.095703125 191 l 1,2,-1
 94.5732421875 349 l 1,3,-1
 473.573242188 349 l 1,0,-1
EndSplineSet
Substitution2: "'case' Case-Sensitive Forms lookup 29 subtable" hyphen.case
Substitution2: "'sups' Superscript lookup 15 subtable" hyphensuperior
Substitution2: "'subs' Subscript lookup 14 subtable" hypheninferior
Substitution2: "'sinf' Scientific Inferiors lookup 13 subtable" hypheninferior
AlternateSubs2: "'aalt' Access All Alternates lookup 1 subtable" hypheninferior hyphensuperior hyphen.case
EndChar

StartChar: period
Encoding: 46 46 17
Width: 302
GlyphClass: 2
Flags: W
LayerCount: 2
Fore
SplineSet
130.865234375 190 m 128,-1,1
 183.865234375 190 183.865234375 190 207.362304688 164 c 128,-1,2
 230.859375 138 230.859375 138 220.008789062 91 c 128,-1,3
 209.158203125 44 209.158203125 44 173.655273438 18 c 128,-1,4
 138.153320312 -8 138.153320312 -8 85.1533203125 -8 c 128,-1,5
 32.1533203125 -8 32.1533203125 -8 8.6552734375 18 c 128,-1,6
 -14.841796875 44 -14.841796875 44 -3.9912109375 91 c 128,-1,7
 6.859375 138 6.859375 138 42.3623046875 164 c 128,-1,0
 77.865234375 190 77.865234375 190 130.865234375 190 c 128,-1,1
EndSplineSet
Substitution2: "'tnum' Tabular Numbers lookup 26 subtable" period.tf
Substitution2: "'sups' Superscript lookup 15 subtable" periodsuperior
Substitution2: "'subs' Subscript lookup 14 subtable" periodinferior
Substitution2: "'sinf' Scientific Inferiors lookup 13 subtable" periodinferior
AlternateSubs2: "'aalt' Access All Alternates lookup 1 subtable" periodinferior periodsuperior period.tf
EndChar

StartChar: slash
Encoding: 47 47 18
Width: 479
GlyphClass: 2
Flags: W
LayerCount: 2
Fore
SplineSet
566.993164062 706 m 1,0,-1
 116.838867188 -70 l 1,1,-1
 -70.1611328125 -70 l 1,2,-1
 379.993164062 706 l 1,3,-1
 566.993164062 706 l 1,0,-1
EndSplineSet
Substitution2: "'frac' Diagonal Fractions lookup 18 subtable" fraction
Substitution2: "'aalt' Access All Alternates lookup 0 subtable" fraction
EndChar

StartChar: zero
Encoding: 48 48 19
Width: 604
GlyphClass: 2
Flags: W
LayerCount: 2
Fore
SplineSet
235.69140625 -10 m 128,-1,1
 -36.30859375 -10 -36.30859375 -10 42.1865234375 330 c 128,-1,2
 120.681640625 670 120.681640625 670 392.681640625 670 c 128,-1,3
 664.681640625 670 664.681640625 670 586.186523438 330 c 128,-1,0
 507.69140625 -10 507.69140625 -10 235.69140625 -10 c 128,-1,1
271.70703125 146 m 128,-1,5
 313.70703125 146 313.70703125 146 338.94140625 186 c 128,-1,6
 364.17578125 226 364.17578125 226 388.186523438 330 c 128,-1,7
 412.197265625 434 412.197265625 434 405.431640625 474 c 128,-1,8
 398.666015625 514 398.666015625 514 356.666015625 514 c 128,-1,9
 314.666015625 514 314.666015625 514 289.431640625 474 c 128,-1,10
 264.197265625 434 264.197265625 434 240.186523438 330 c 128,-1,11
 216.17578125 226 216.17578125 226 222.94140625 186 c 128,-1,4
 229.70703125 146 229.70703125 146 271.70703125 146 c 128,-1,5
EndSplineSet
Substitution2: "'zero' Slashed Zero lookup 28 subtable" zero.zero
Substitution2: "'onum' Oldstyle Figures lookup 27 subtable" zero.osf
Substitution2: "'tnum' Tabular Numbers lookup 26 subtable" zero.tf
Substitution2: "'frac' Diagonal Fractions lookup 19 subtable" zero.numr
Substitution2: "'dnom' Denominators lookup 17 subtable" zero.dnom
Substitution2: "'numr' Numerators lookup 16 subtable" zero.numr
Substitution2: "'sups' Superscript lookup 15 subtable" uni2070
Substitution2: "'subs' Subscript lookup 14 subtable" uni2080
Substitution2: "'sinf' Scientific Inferiors lookup 13 subtable" uni2080
Substitution2: "'smcp' Lowercase to Small Capitals lookup 12 subtable" zero.sc
Substitution2: "'c2sc' Capitals to Small Capitals lookup 11 subtable" zero.sc
AlternateSubs2: "'aalt' Access All Alternates lookup 1 subtable" zero.sc uni2080 uni2070 zero.numr zero.dnom zero.tf zero.osf zero.zero
EndChar

StartChar: one
Encoding: 49 49 20
Width: 604
GlyphClass: 2
Flags: W
LayerCount: 2
Fore
SplineSet
394.861328125 151 m 1,0,-1
 543.861328125 151 l 1,1,-1
 509 0 l 1,2,-1
 3 0 l 1,3,-1
 37.861328125 151 l 1,4,-1
 209.861328125 151 l 1,5,-1
 284.893554688 476 l 1,6,7
 190.501953125 405 190.501953125 405 104.423828125 396 c 1,8,-1
 125.439453125 552 l 1,9,10
 184.82421875 558 184.82421875 558 251.828125 590.5 c 128,-1,11
 318.831054688 623 318.831054688 623 352.373046875 660 c 1,12,-1
 512.373046875 660 l 1,13,-1
 394.861328125 151 l 1,0,-1
EndSplineSet
Substitution2: "'onum' Oldstyle Figures lookup 27 subtable" one.osf
Substitution2: "'tnum' Tabular Numbers lookup 26 subtable" one.tf
Substitution2: "'nalt' Alternate Annotation Forms lookup 23 subtable" uni2780
Substitution2: "'frac' Diagonal Fractions lookup 19 subtable" one.numr
Substitution2: "'dnom' Denominators lookup 17 subtable" one.dnom
Substitution2: "'numr' Numerators lookup 16 subtable" one.numr
Substitution2: "'sups' Superscript lookup 15 subtable" uni00B9
Substitution2: "'subs' Subscript lookup 14 subtable" uni2081
Substitution2: "'sinf' Scientific Inferiors lookup 13 subtable" uni2081
Substitution2: "'smcp' Lowercase to Small Capitals lookup 12 subtable" one.sc
Substitution2: "'c2sc' Capitals to Small Capitals lookup 11 subtable" one.sc
AlternateSubs2: "'aalt' Access All Alternates lookup 1 subtable" one.sc uni2081 uni00B9 one.numr one.dnom uni2780 one.tf one.osf
EndChar

StartChar: two
Encoding: 50 50 21
Width: 604
GlyphClass: 2
Flags: W
LayerCount: 2
Fore
SplineSet
-15 0 m 1,0,-1
 14.08984375 126 l 1,1,2
 188.40625 214 188.40625 214 281.875 294 c 128,-1,3
 375.344726562 374 375.344726562 374 390.58203125 440 c 0,4,5
 398.200195312 473 398.200195312 473 385.43359375 493.5 c 128,-1,6
 372.666015625 514 372.666015625 514 337.666015625 514 c 0,7,8
 254.666015625 514 254.666015625 514 227.577148438 388 c 1,9,-1
 63.427734375 435 l 1,10,11
 88.515625 548 88.515625 548 178.098632812 609 c 128,-1,12
 267.681640625 670 267.681640625 670 387.681640625 670 c 0,13,14
 455.681640625 670 455.681640625 670 502.6796875 650.5 c 128,-1,15
 549.677734375 631 549.677734375 631 571.174804688 598.5 c 128,-1,16
 592.671875 566 592.671875 566 598.860351562 530 c 128,-1,17
 605.048828125 494 605.048828125 494 596.276367188 456 c 0,18,19
 575.036132812 364 575.036132812 364 489.452148438 290 c 128,-1,20
 403.8671875 216 403.8671875 216 258.168945312 148 c 1,21,-1
 257.70703125 146 l 1,22,23
 321.861328125 151 321.861328125 151 404.861328125 151 c 2,24,-1
 531.861328125 151 l 1,25,-1
 497 0 l 1,26,-1
 -15 0 l 1,0,-1
EndSplineSet
Substitution2: "'onum' Oldstyle Figures lookup 27 subtable" two.osf
Substitution2: "'tnum' Tabular Numbers lookup 26 subtable" two.tf
Substitution2: "'nalt' Alternate Annotation Forms lookup 23 subtable" uni2781
Substitution2: "'frac' Diagonal Fractions lookup 19 subtable" two.numr
Substitution2: "'dnom' Denominators lookup 17 subtable" two.dnom
Substitution2: "'numr' Numerators lookup 16 subtable" two.numr
Substitution2: "'sups' Superscript lookup 15 subtable" uni00B2
Substitution2: "'subs' Subscript lookup 14 subtable" uni2082
Substitution2: "'sinf' Scientific Inferiors lookup 13 subtable" uni2082
Substitution2: "'smcp' Lowercase to Small Capitals lookup 12 subtable" two.sc
Substitution2: "'c2sc' Capitals to Small Capitals lookup 11 subtable" two.sc
AlternateSubs2: "'aalt' Access All Alternates lookup 1 subtable" two.sc uni2082 uni00B2 two.numr two.dnom uni2781 two.tf two.osf
EndChar

StartChar: three
Encoding: 51 51 22
Width: 604
GlyphClass: 2
Flags: W
LayerCount: 2
Fore
SplineSet
399.681640625 670 m 0,0,1
 514.681640625 670 514.681640625 670 566.138671875 620 c 128,-1,2
 617.594726562 570 617.594726562 570 596.81640625 480 c 0,3,4
 587.3515625 439 587.3515625 439 565.194335938 408 c 128,-1,5
 543.037109375 377 543.037109375 377 517.57421875 362 c 128,-1,6
 492.111328125 347 492.111328125 347 471.995117188 340 c 128,-1,7
 451.87890625 333 451.87890625 333 438.87890625 333 c 1,8,-1
 437.956054688 329 l 1,9,10
 454.956054688 329 454.956054688 329 473.185546875 323.5 c 128,-1,11
 491.416015625 318 491.416015625 318 512.68359375 304 c 128,-1,12
 533.952148438 290 533.952148438 290 542.564453125 258 c 128,-1,13
 551.17578125 226 551.17578125 226 540.787109375 181 c 0,14,15
 520.932617188 95 520.932617188 95 435.311523438 42.5 c 128,-1,16
 349.69140625 -10 349.69140625 -10 236.69140625 -10 c 0,17,18
 122.69140625 -10 122.69140625 -10 65.6953125 29 c 128,-1,19
 8.69921875 68 8.69921875 68 3.015625 156 c 1,20,-1
 201.791992188 233 l 1,21,22
 191.017578125 182 191.017578125 182 208.015625 162.5 c 128,-1,23
 225.013671875 143 225.013671875 143 264.013671875 143 c 0,24,25
 296.013671875 143 296.013671875 143 320.669921875 161 c 128,-1,26
 345.325195312 179 345.325195312 179 351.482421875 210 c 0,27,28
 363.641601562 267 363.641601562 267 288.641601562 267 c 2,29,-1
 248.641601562 267 l 1,30,-1
 276.577148438 388 l 1,31,-1
 307.577148438 388 l 2,32,33
 378.577148438 388 378.577148438 388 394.352539062 452 c 0,34,35
 401.278320312 482 401.278320312 482 388.318359375 499.5 c 128,-1,36
 375.358398438 517 375.358398438 517 348.358398438 517 c 0,37,38
 272.358398438 517 272.358398438 517 253.50390625 431 c 1,39,-1
 91.6640625 488 l 1,40,41
 158.681640625 670 158.681640625 670 399.681640625 670 c 0,0,1
EndSplineSet
Substitution2: "'onum' Oldstyle Figures lookup 27 subtable" three.osf
Substitution2: "'tnum' Tabular Numbers lookup 26 subtable" three.tf
Substitution2: "'nalt' Alternate Annotation Forms lookup 23 subtable" uni2782
Substitution2: "'frac' Diagonal Fractions lookup 19 subtable" three.numr
Substitution2: "'dnom' Denominators lookup 17 subtable" three.dnom
Substitution2: "'numr' Numerators lookup 16 subtable" three.numr
Substitution2: "'sups' Superscript lookup 15 subtable" uni00B3
Substitution2: "'subs' Subscript lookup 14 subtable" uni2083
Substitution2: "'sinf' Scientific Inferiors lookup 13 subtable" uni2083
Substitution2: "'smcp' Lowercase to Small Capitals lookup 12 subtable" three.sc
Substitution2: "'c2sc' Capitals to Small Capitals lookup 11 subtable" three.sc
AlternateSubs2: "'aalt' Access All Alternates lookup 1 subtable" three.sc uni2083 uni00B3 three.numr three.dnom uni2782 three.tf three.osf
EndChar

StartChar: four
Encoding: 52 52 23
Width: 604
GlyphClass: 2
Flags: W
LayerCount: 2
Fore
SplineSet
249 0 m 1,0,-1
 279.705078125 133 l 1,1,-1
 -7.294921875 133 l 1,2,-1
 13.71484375 224 l 1,3,-1
 343.373046875 660 l 1,4,-1
 579.373046875 660 l 1,5,-1
 489.333984375 270 l 1,6,-1
 588.333984375 270 l 1,7,-1
 556.705078125 133 l 1,8,-1
 457.705078125 133 l 1,9,-1
 427 0 l 1,10,-1
 249 0 l 1,0,-1
192.333984375 270 m 1,11,-1
 319.333984375 270 l 1,12,-1
 340.112304688 360 l 2,13,14
 359.966796875 446 359.966796875 446 381.8984375 528 c 1,15,-1
 378.8984375 528 l 1,16,17
 359.586914062 492 359.586914062 492 329.352539062 452 c 2,18,-1
 192.333984375 270 l 1,11,-1
EndSplineSet
Substitution2: "'onum' Oldstyle Figures lookup 27 subtable" four.osf
Substitution2: "'tnum' Tabular Numbers lookup 26 subtable" four.tf
Substitution2: "'nalt' Alternate Annotation Forms lookup 23 subtable" uni2783
Substitution2: "'frac' Diagonal Fractions lookup 19 subtable" four.numr
Substitution2: "'dnom' Denominators lookup 17 subtable" four.dnom
Substitution2: "'numr' Numerators lookup 16 subtable" four.numr
Substitution2: "'sups' Superscript lookup 15 subtable" uni2074
Substitution2: "'subs' Subscript lookup 14 subtable" uni2084
Substitution2: "'sinf' Scientific Inferiors lookup 13 subtable" uni2084
Substitution2: "'smcp' Lowercase to Small Capitals lookup 12 subtable" four.sc
Substitution2: "'c2sc' Capitals to Small Capitals lookup 11 subtable" four.sc
AlternateSubs2: "'aalt' Access All Alternates lookup 1 subtable" four.sc uni2084 uni2074 four.numr four.dnom uni2783 four.tf four.osf
EndChar

StartChar: five
Encoding: 53 53 24
Width: 604
GlyphClass: 2
Flags: W
LayerCount: 2
Fore
SplineSet
392.581054688 427 m 0,0,1
 489.581054688 427 489.581054688 427 531.998046875 372.5 c 128,-1,2
 574.416015625 318 574.416015625 318 554.330078125 231 c 0,3,4
 526.625976562 111 526.625976562 111 435.659179688 50.5 c 128,-1,5
 344.69140625 -10 344.69140625 -10 230.69140625 -10 c 0,6,7
 138.69140625 -10 138.69140625 -10 80.1552734375 18 c 128,-1,8
 21.6201171875 46 21.6201171875 46 -8.4501953125 115 c 1,9,-1
 192.098632812 217 l 1,10,11
 189.86328125 177 189.86328125 177 205.477539062 158 c 128,-1,12
 221.090820312 139 221.090820312 139 267.090820312 139 c 0,13,14
 307.090820312 139 307.090820312 139 334.092773438 158.5 c 128,-1,15
 361.094726562 178 361.094726562 178 370.098632812 217 c 0,16,17
 387.64453125 293 387.64453125 293 301.64453125 293 c 0,18,19
 239.64453125 293 239.64453125 293 204.487304688 262 c 1,20,-1
 58.490234375 288 l 1,21,-1
 187.373046875 660 l 1,22,-1
 614.373046875 660 l 1,23,-1
 579.049804688 507 l 1,24,-1
 298.049804688 507 l 1,25,-1
 263.348632812 413 l 2,26,27
 256.961914062 394 256.961914062 394 250.422851562 383 c 1,28,-1
 251.422851562 383 l 1,29,30
 300.581054688 427 300.581054688 427 392.581054688 427 c 0,0,1
EndSplineSet
Substitution2: "'onum' Oldstyle Figures lookup 27 subtable" five.osf
Substitution2: "'tnum' Tabular Numbers lookup 26 subtable" five.tf
Substitution2: "'nalt' Alternate Annotation Forms lookup 23 subtable" uni2784
Substitution2: "'frac' Diagonal Fractions lookup 19 subtable" five.numr
Substitution2: "'dnom' Denominators lookup 17 subtable" five.dnom
Substitution2: "'numr' Numerators lookup 16 subtable" five.numr
Substitution2: "'sups' Superscript lookup 15 subtable" uni2075
Substitution2: "'subs' Subscript lookup 14 subtable" uni2085
Substitution2: "'sinf' Scientific Inferiors lookup 13 subtable" uni2085
Substitution2: "'smcp' Lowercase to Small Capitals lookup 12 subtable" five.sc
Substitution2: "'c2sc' Capitals to Small Capitals lookup 11 subtable" five.sc
AlternateSubs2: "'aalt' Access All Alternates lookup 1 subtable" five.sc uni2085 uni2075 five.numr five.dnom uni2784 five.tf five.osf
EndChar

StartChar: six
Encoding: 54 54 25
Width: 604
GlyphClass: 2
Flags: W
LayerCount: 2
Fore
SplineSet
423.681640625 670 m 0,0,1
 606.681640625 670 606.681640625 670 628.282226562 521 c 1,2,-1
 444.505859375 444 l 1,3,4
 446.204101562 512 446.204101562 512 376.204101562 512 c 0,5,6
 332.204101562 512 332.204101562 512 296.0078125 470 c 128,-1,7
 259.811523438 428 259.811523438 428 242.03515625 351 c 2,8,-1
 238.110351562 334 l 1,9,-1
 240.110351562 334 l 1,10,11
 263.190429688 369 263.190429688 369 308.192382812 388.5 c 128,-1,12
 353.194335938 408 353.194335938 408 410.194335938 408 c 0,13,14
 499.194335938 408 499.194335938 408 541.49609375 353 c 128,-1,15
 583.798828125 298 583.798828125 298 562.55859375 206 c 0,16,17
 539.703125 107 539.703125 107 459.197265625 48.5 c 128,-1,18
 378.69140625 -10 378.69140625 -10 262.69140625 -10 c 0,19,20
 123.69140625 -10 123.69140625 -10 70.1611328125 76.5 c 128,-1,21
 16.6318359375 163 16.6318359375 163 55.1865234375 330 c 0,22,23
 94.6650390625 501 94.6650390625 501 193.672851562 585.5 c 128,-1,24
 292.681640625 670 292.681640625 670 423.681640625 670 c 0,0,1
325.412109375 279 m 128,-1,26
 291.412109375 279 291.412109375 279 268.025390625 260 c 128,-1,27
 244.639648438 241 244.639648438 241 237.020507812 208 c 0,28,29
 229.170898438 174 229.170898438 174 243.900390625 155.5 c 128,-1,30
 258.62890625 137 258.62890625 137 292.62890625 137 c 128,-1,31
 326.62890625 137 326.62890625 137 349.900390625 155.5 c 128,-1,32
 373.170898438 174 373.170898438 174 381.020507812 208 c 128,-1,33
 388.870117188 242 388.870117188 242 374.141601562 260.5 c 128,-1,25
 359.412109375 279 359.412109375 279 325.412109375 279 c 128,-1,26
EndSplineSet
Substitution2: "'onum' Oldstyle Figures lookup 27 subtable" six.osf
Substitution2: "'tnum' Tabular Numbers lookup 26 subtable" six.tf
Substitution2: "'nalt' Alternate Annotation Forms lookup 23 subtable" uni2785
Substitution2: "'frac' Diagonal Fractions lookup 19 subtable" six.numr
Substitution2: "'dnom' Denominators lookup 17 subtable" six.dnom
Substitution2: "'numr' Numerators lookup 16 subtable" six.numr
Substitution2: "'sups' Superscript lookup 15 subtable" uni2076
Substitution2: "'subs' Subscript lookup 14 subtable" uni2086
Substitution2: "'sinf' Scientific Inferiors lookup 13 subtable" uni2086
Substitution2: "'smcp' Lowercase to Small Capitals lookup 12 subtable" six.sc
Substitution2: "'c2sc' Capitals to Small Capitals lookup 11 subtable" six.sc
AlternateSubs2: "'aalt' Access All Alternates lookup 1 subtable" six.sc uni2086 uni2076 six.numr six.dnom uni2785 six.tf six.osf
EndChar

StartChar: seven
Encoding: 55 55 26
Width: 604
GlyphClass: 2
Flags: W
LayerCount: 2
Fore
SplineSet
120.373046875 660 m 1,0,-1
 659.373046875 660 l 1,1,-1
 627.282226562 521 l 1,2,3
 484.116210938 399 484.116210938 399 418.567382812 290.5 c 128,-1,4
 353.017578125 182 353.017578125 182 311 0 c 1,5,-1
 108 0 l 1,6,7
 144.24609375 157 144.24609375 157 223.219726562 276 c 128,-1,8
 302.193359375 395 302.193359375 395 437.357421875 504 c 1,9,-1
 84.357421875 504 l 1,10,-1
 120.373046875 660 l 1,0,-1
EndSplineSet
Substitution2: "'onum' Oldstyle Figures lookup 27 subtable" seven.osf
Substitution2: "'tnum' Tabular Numbers lookup 26 subtable" seven.tf
Substitution2: "'nalt' Alternate Annotation Forms lookup 23 subtable" uni2786
Substitution2: "'frac' Diagonal Fractions lookup 19 subtable" seven.numr
Substitution2: "'dnom' Denominators lookup 17 subtable" seven.dnom
Substitution2: "'numr' Numerators lookup 16 subtable" seven.numr
Substitution2: "'sups' Superscript lookup 15 subtable" uni2077
Substitution2: "'subs' Subscript lookup 14 subtable" uni2087
Substitution2: "'sinf' Scientific Inferiors lookup 13 subtable" uni2087
Substitution2: "'smcp' Lowercase to Small Capitals lookup 12 subtable" seven.sc
Substitution2: "'c2sc' Capitals to Small Capitals lookup 11 subtable" seven.sc
AlternateSubs2: "'aalt' Access All Alternates lookup 1 subtable" seven.sc uni2087 uni2077 seven.numr seven.dnom uni2786 seven.tf seven.osf
EndChar

StartChar: eight
Encoding: 56 56 27
Width: 604
GlyphClass: 2
Flags: W
LayerCount: 2
Fore
SplineSet
391.989257812 667 m 128,-1,1
 507.989257812 667 507.989257812 667 562.830078125 616.5 c 128,-1,2
 617.671875 566 617.671875 566 597.35546875 478 c 0,3,4
 573.806640625 376 573.806640625 376 460.110351562 334 c 1,5,-1
 459.87890625 333 l 1,6,7
 569.413085938 292 569.413085938 292 544.017578125 182 c 0,8,9
 523.008789062 91 523.008789062 91 441.350585938 40.5 c 128,-1,10
 359.69140625 -10 359.69140625 -10 235.69140625 -10 c 128,-1,11
 111.69140625 -10 111.69140625 -10 53.3505859375 40.5 c 128,-1,12
 -4.9912109375 91 -4.9912109375 91 16.017578125 182 c 0,13,14
 41.64453125 293 41.64453125 293 169.87890625 333 c 1,15,-1
 170.110351562 334 l 1,16,17
 126.49609375 353 126.49609375 353 107.154296875 390.5 c 128,-1,18
 87.8115234375 428 87.8115234375 428 99.35546875 478 c 0,19,20
 119.671875 566 119.671875 566 197.830078125 616.5 c 128,-1,0
 275.989257812 667 275.989257812 667 391.989257812 667 c 128,-1,1
359.436523438 526 m 128,-1,22
 325.436523438 526 325.436523438 526 303.01171875 509 c 128,-1,23
 280.586914062 492 280.586914062 492 273.430664062 461 c 128,-1,24
 266.2734375 430 266.2734375 430 281.348632812 413 c 128,-1,25
 296.423828125 396 296.423828125 396 329.423828125 396 c 128,-1,26
 362.423828125 396 362.423828125 396 385.348632812 413 c 128,-1,27
 408.2734375 430 408.2734375 430 415.430664062 461 c 128,-1,28
 422.586914062 492 422.586914062 492 408.01171875 509 c 128,-1,21
 393.436523438 526 393.436523438 526 359.436523438 526 c 128,-1,22
269.244140625 131 m 128,-1,30
 306.244140625 131 306.244140625 131 330.399414062 149 c 128,-1,31
 354.5546875 167 354.5546875 167 361.942382812 199 c 128,-1,32
 369.330078125 231 369.330078125 231 353.486328125 249 c 128,-1,33
 337.641601562 267 337.641601562 267 300.641601562 267 c 128,-1,34
 263.641601562 267 263.641601562 267 239.486328125 249 c 128,-1,35
 215.330078125 231 215.330078125 231 207.942382812 199 c 128,-1,36
 200.5546875 167 200.5546875 167 216.399414062 149 c 128,-1,29
 232.244140625 131 232.244140625 131 269.244140625 131 c 128,-1,30
EndSplineSet
Substitution2: "'onum' Oldstyle Figures lookup 27 subtable" eight.osf
Substitution2: "'tnum' Tabular Numbers lookup 26 subtable" eight.tf
Substitution2: "'nalt' Alternate Annotation Forms lookup 23 subtable" uni2787
Substitution2: "'frac' Diagonal Fractions lookup 19 subtable" eight.numr
Substitution2: "'dnom' Denominators lookup 17 subtable" eight.dnom
Substitution2: "'numr' Numerators lookup 16 subtable" eight.numr
Substitution2: "'sups' Superscript lookup 15 subtable" uni2078
Substitution2: "'subs' Subscript lookup 14 subtable" uni2088
Substitution2: "'sinf' Scientific Inferiors lookup 13 subtable" uni2088
Substitution2: "'smcp' Lowercase to Small Capitals lookup 12 subtable" eight.sc
Substitution2: "'c2sc' Capitals to Small Capitals lookup 11 subtable" eight.sc
AlternateSubs2: "'aalt' Access All Alternates lookup 1 subtable" eight.sc uni2088 uni2078 eight.numr eight.dnom uni2787 eight.tf eight.osf
EndChar

StartChar: nine
Encoding: 57 57 28
Width: 604
GlyphClass: 2
Flags: W
LayerCount: 2
Fore
SplineSet
381.681640625 670 m 0,0,1
 514.681640625 670 514.681640625 670 566.327148438 584 c 128,-1,2
 617.97265625 498 617.97265625 498 578.032226562 325 c 0,3,4
 537.399414062 149 537.399414062 149 448.044921875 69.5 c 128,-1,5
 358.69140625 -10 358.69140625 -10 219.69140625 -10 c 0,6,7
 29.69140625 -10 29.69140625 -10 3.474609375 132 c 1,8,-1
 203.173828125 200 l 1,9,10
 202.786132812 168 202.786132812 168 216.053710938 154 c 128,-1,11
 229.321289062 140 229.321289062 140 263.321289062 140 c 0,12,13
 355.321289062 140 355.321289062 140 389.720703125 289 c 2,14,-1
 394.107421875 308 l 1,15,-1
 391.107421875 308 l 1,16,17
 345.715820312 237 345.715820312 237 232.0234375 234 c 0,18,19
 138.330078125 231 138.330078125 231 91.7587890625 287 c 128,-1,20
 45.1875 343 45.1875 343 68.2744140625 443 c 0,21,22
 92.515625 548 92.515625 548 175.598632812 609 c 128,-1,23
 258.681640625 670 258.681640625 670 381.681640625 670 c 0,0,1
341.897460938 515 m 0,24,25
 306.897460938 515 306.897460938 515 283.625976562 496.5 c 128,-1,26
 260.35546875 478 260.35546875 478 252.505859375 444 c 128,-1,27
 244.65625 410 244.65625 410 259.384765625 391.5 c 128,-1,28
 274.114257812 373 274.114257812 373 309.114257812 373 c 0,29,30
 343.114257812 373 343.114257812 373 366.384765625 391.5 c 128,-1,31
 389.65625 410 389.65625 410 397.505859375 444 c 0,32,33
 405.124023438 477 405.124023438 477 390.510742188 496 c 128,-1,34
 375.897460938 515 375.897460938 515 341.897460938 515 c 0,24,25
EndSplineSet
Substitution2: "'onum' Oldstyle Figures lookup 27 subtable" nine.osf
Substitution2: "'tnum' Tabular Numbers lookup 26 subtable" nine.tf
Substitution2: "'nalt' Alternate Annotation Forms lookup 23 subtable" uni2788
Substitution2: "'frac' Diagonal Fractions lookup 19 subtable" nine.numr
Substitution2: "'dnom' Denominators lookup 17 subtable" nine.dnom
Substitution2: "'numr' Numerators lookup 16 subtable" nine.numr
Substitution2: "'sups' Superscript lookup 15 subtable" uni2079
Substitution2: "'subs' Subscript lookup 14 subtable" uni2089
Substitution2: "'sinf' Scientific Inferiors lookup 13 subtable" uni2089
Substitution2: "'smcp' Lowercase to Small Capitals lookup 12 subtable" nine.sc
Substitution2: "'c2sc' Capitals to Small Capitals lookup 11 subtable" nine.sc
AlternateSubs2: "'aalt' Access All Alternates lookup 1 subtable" nine.sc uni2089 uni2079 nine.numr nine.dnom uni2788 nine.tf nine.osf
EndChar

StartChar: colon
Encoding: 58 58 29
Width: 302
GlyphClass: 2
Flags: W
LayerCount: 2
Fore
SplineSet
204.743164062 510 m 128,-1,1
 257.743164062 510 257.743164062 510 281.240234375 484 c 128,-1,2
 304.737304688 458 304.737304688 458 293.88671875 411 c 128,-1,3
 283.036132812 364 283.036132812 364 247.533203125 338 c 128,-1,4
 212.03125 312 212.03125 312 159.03125 312 c 128,-1,5
 106.03125 312 106.03125 312 82.533203125 338 c 128,-1,6
 59.0361328125 364 59.0361328125 364 69.88671875 411 c 128,-1,7
 80.7373046875 458 80.7373046875 458 116.240234375 484 c 128,-1,0
 151.743164062 510 151.743164062 510 204.743164062 510 c 128,-1,1
130.865234375 190 m 128,-1,9
 183.865234375 190 183.865234375 190 207.362304688 164 c 128,-1,10
 230.859375 138 230.859375 138 220.008789062 91 c 128,-1,11
 209.158203125 44 209.158203125 44 173.655273438 18 c 128,-1,12
 138.153320312 -8 138.153320312 -8 85.1533203125 -8 c 128,-1,13
 32.1533203125 -8 32.1533203125 -8 8.6552734375 18 c 128,-1,14
 -14.841796875 44 -14.841796875 44 -3.9912109375 91 c 128,-1,15
 6.859375 138 6.859375 138 42.3623046875 164 c 128,-1,8
 77.865234375 190 77.865234375 190 130.865234375 190 c 128,-1,9
EndSplineSet
Substitution2: "'tnum' Tabular Numbers lookup 26 subtable" colon.tf
Substitution2: "'sups' Superscript lookup 15 subtable" colonsuperior
Substitution2: "'subs' Subscript lookup 14 subtable" coloninferior
Substitution2: "'sinf' Scientific Inferiors lookup 13 subtable" coloninferior
AlternateSubs2: "'aalt' Access All Alternates lookup 1 subtable" coloninferior colonsuperior colon.tf
EndChar

StartChar: semicolon
Encoding: 59 59 30
Width: 302
GlyphClass: 2
Flags: W
LayerCount: 2
Fore
SplineSet
161.03125 312 m 128,-1,1
 108.03125 312 108.03125 312 84.533203125 338 c 128,-1,2
 61.0361328125 364 61.0361328125 364 71.88671875 411 c 128,-1,3
 82.7373046875 458 82.7373046875 458 118.240234375 484 c 128,-1,4
 153.743164062 510 153.743164062 510 206.743164062 510 c 128,-1,5
 259.743164062 510 259.743164062 510 283.125 483.5 c 128,-1,6
 306.506835938 457 306.506835938 457 295.88671875 411 c 0,7,8
 285.036132812 364 285.036132812 364 249.533203125 338 c 128,-1,0
 214.03125 312 214.03125 312 161.03125 312 c 128,-1,1
129.865234375 190 m 0,9,10
 188.865234375 190 188.865234375 190 209.861328125 151 c 128,-1,11
 230.857421875 112 230.857421875 112 216.774414062 51 c 0,12,13
 200.61328125 -19 200.61328125 -19 149.069335938 -75.5 c 128,-1,14
 97.525390625 -132 97.525390625 -132 18.599609375 -162 c 1,15,-1
 -55.2412109375 -105 l 1,16,17
 60.6865234375 -62 60.6865234375 -62 103.923828125 4 c 1,18,-1
 99.8466796875 8 l 1,19,20
 84.845703125 -5 84.845703125 -5 65.845703125 -5 c 0,21,22
 27.845703125 -5 27.845703125 -5 5.38671875 19 c 128,-1,23
 -17.072265625 43 -17.072265625 43 -6.9140625 87 c 0,24,25
 4.859375 138 4.859375 138 41.3623046875 164 c 128,-1,26
 77.865234375 190 77.865234375 190 129.865234375 190 c 0,9,10
EndSplineSet
Substitution2: "'tnum' Tabular Numbers lookup 26 subtable" semicolon.tf
Substitution2: "'aalt' Access All Alternates lookup 0 subtable" semicolon.tf
EndChar

StartChar: less
Encoding: 60 60 31
Width: 604
GlyphClass: 2
Flags: W
LayerCount: 2
Fore
SplineSet
628.135742188 594 m 1,0,-1
 584.501953125 405 l 1,1,-1
 211.106445312 295 l 1,2,-1
 533.94140625 186 l 1,3,-1
 490.307617188 -3 l 1,4,-1
 44.9443359375 212 l 1,5,-1
 83.4990234375 379 l 1,6,-1
 628.135742188 594 l 1,0,-1
EndSplineSet
EndChar

StartChar: equal
Encoding: 61 61 32
Width: 604
GlyphClass: 2
Flags: W
LayerCount: 2
Fore
SplineSet
589.97265625 498 m 1,0,-1
 559.498046875 366 l 1,1,-1
 85.498046875 366 l 1,2,-1
 115.97265625 498 l 1,3,-1
 589.97265625 498 l 1,0,-1
538.719726562 276 m 1,4,-1
 508.245117188 144 l 1,5,-1
 34.2451171875 144 l 1,6,-1
 64.7197265625 276 l 1,7,-1
 538.719726562 276 l 1,4,-1
EndSplineSet
Substitution2: "'sups' Superscript lookup 15 subtable" uni207C
Substitution2: "'subs' Subscript lookup 14 subtable" uni208C
Substitution2: "'sinf' Scientific Inferiors lookup 13 subtable" uni208C
AlternateSubs2: "'aalt' Access All Alternates lookup 1 subtable" uni208C uni207C
EndChar

StartChar: greater
Encoding: 62 62 33
Width: 604
GlyphClass: 2
Flags: W
LayerCount: 2
Fore
SplineSet
122.135742188 594 m 1,0,-1
 567.499023438 379 l 1,1,-1
 528.944335938 212 l 1,2,-1
 -15.6923828125 -3 l 1,3,-1
 27.94140625 186 l 1,4,-1
 400.336914062 296 l 1,5,-1
 78.501953125 405 l 1,6,-1
 122.135742188 594 l 1,0,-1
EndSplineSet
EndChar

StartChar: question
Encoding: 63 63 34
Width: 631
GlyphClass: 2
Flags: W
LayerCount: 2
Fore
SplineSet
410.681640625 670 m 0,0,1
 536.681640625 670 536.681640625 670 598.79296875 625 c 128,-1,2
 660.903320312 580 660.903320312 580 638.970703125 485 c 0,3,4
 599.4921875 314 599.4921875 314 404.106445312 295 c 1,5,-1
 371.8671875 216 l 1,6,-1
 204.8671875 216 l 1,7,-1
 227.190429688 369 l 1,8,9
 395.268554688 378 395.268554688 378 412.583007812 453 c 0,10,11
 425.743164062 510 425.743164062 510 360.743164062 510 c 0,12,13
 284.743164062 510 284.743164062 510 260.426757812 422 c 1,14,-1
 79.5869140625 492 l 1,15,16
 107.287109375 573 107.287109375 573 188.484375 621.5 c 128,-1,17
 269.681640625 670 269.681640625 670 410.681640625 670 c 0,0,1
280.170898438 174 m 128,-1,19
 331.170898438 174 331.170898438 174 353.629882812 150 c 128,-1,20
 376.08984375 126 376.08984375 126 366.162109375 83 c 128,-1,21
 356.234375 40 356.234375 40 322.694335938 16 c 128,-1,22
 289.153320312 -8 289.153320312 -8 238.153320312 -8 c 128,-1,23
 187.153320312 -8 187.153320312 -8 164.194335938 16 c 128,-1,24
 141.234375 40 141.234375 40 151.162109375 83 c 128,-1,25
 161.08984375 126 161.08984375 126 195.129882812 150 c 128,-1,18
 229.170898438 174 229.170898438 174 280.170898438 174 c 128,-1,19
EndSplineSet
Substitution2: "'smcp' Lowercase to Small Capitals lookup 12 subtable" question.sc
Substitution2: "'c2sc' Capitals to Small Capitals lookup 11 subtable" question.sc
Substitution2: "'aalt' Access All Alternates lookup 0 subtable" question.sc
EndChar

StartChar: at
Encoding: 64 64 35
Width: 932
GlyphClass: 2
Flags: W
LayerCount: 2
Fore
SplineSet
576.373046875 660 m 0,0,1
 758.373046875 660 758.373046875 660 842.862304688 556 c 128,-1,2
 927.352539062 452 927.352539062 452 883.025390625 260 c 0,3,4
 867.327148438 192 867.327148438 192 836.436523438 140.5 c 128,-1,5
 805.546875 89 805.546875 89 767.352539062 60 c 128,-1,6
 729.157226562 31 729.157226562 31 688.309570312 16.5 c 128,-1,7
 647.461914062 2 647.461914062 2 605.461914062 2 c 0,8,9
 498.461914062 2 498.461914062 2 476.624023438 85 c 1,10,11
 405.692382812 3 405.692382812 3 312.692382812 3 c 0,12,13
 238.692382812 3 238.692382812 3 208.08203125 54.5 c 128,-1,14
 177.471679688 106 177.471679688 106 196.171875 187 c 0,15,16
 227.801757812 324 227.801757812 324 309.423828125 396 c 128,-1,17
 391.045898438 468 391.045898438 468 492.045898438 468 c 0,18,19
 536.045898438 468 536.045898438 468 554.736328125 445 c 128,-1,20
 573.426757812 422 573.426757812 422 572.961914062 394 c 1,21,-1
 608.506835938 457 l 1,22,-1
 755.506835938 457 l 1,23,-1
 645.556640625 180 l 2,24,25
 628.3984375 136 628.3984375 136 634.51171875 117 c 128,-1,26
 640.625 98 640.625 98 673.625 98 c 0,27,28
 712.625 98 712.625 98 747.321289062 140 c 128,-1,29
 782.017578125 182 782.017578125 182 800.025390625 260 c 0,30,31
 836.502929688 418 836.502929688 418 770.587890625 498.5 c 128,-1,32
 704.672851562 579 704.672851562 579 557.672851562 579 c 0,33,34
 398.672851562 579 398.672851562 579 279.740234375 484 c 128,-1,35
 160.807617188 389 160.807617188 389 122.483398438 223 c 0,36,37
 104.475585938 145 104.475585938 145 115.931640625 82 c 128,-1,38
 127.38671875 19 127.38671875 19 162.3828125 -20 c 128,-1,39
 197.37890625 -59 197.37890625 -59 248.645507812 -79.5 c 128,-1,40
 299.913085938 -100 299.913085938 -100 360.913085938 -100 c 0,41,42
 435.913085938 -100 435.913085938 -100 482.4140625 -87 c 128,-1,43
 528.916015625 -74 528.916015625 -74 570.149414062 -47 c 1,44,-1
 600.374023438 -111 l 1,45,46
 543.29296875 -146 543.29296875 -146 485.868164062 -163 c 128,-1,47
 428.443359375 -180 428.443359375 -180 338.443359375 -180 c 0,48,49
 162.443359375 -180 162.443359375 -180 74.76171875 -72.5 c 128,-1,50
 -12.919921875 35 -12.919921875 35 30.4833984375 223 c 0,51,52
 75.7333984375 419 75.7333984375 419 229.053710938 539.5 c 128,-1,53
 382.373046875 660 382.373046875 660 576.373046875 660 c 0,0,1
485.495117188 340 m 0,54,55
 452.495117188 340 452.495117188 340 419.915039062 305 c 128,-1,56
 387.333984375 270 387.333984375 270 374.174804688 213 c 0,57,58
 357.090820312 139 357.090820312 139 407.090820312 139 c 0,59,60
 428.090820312 139 428.090820312 139 447.091796875 152 c 128,-1,61
 466.092773438 165 466.092773438 165 475.633789062 189 c 2,62,-1
 509.874023438 281 l 2,63,64
 531.495117188 340 531.495117188 340 485.495117188 340 c 0,54,55
EndSplineSet
Substitution2: "'case' Case-Sensitive Forms lookup 29 subtable" at.case
Substitution2: "'aalt' Access All Alternates lookup 0 subtable" at.case
EndChar

StartChar: A
Encoding: 65 65 36
Width: 684
GlyphClass: 2
Flags: W
LayerCount: 2
Fore
SplineSet
413 0 m 1,0,-1
 407.62890625 137 l 1,1,-1
 206.62890625 137 l 1,2,-1
 137 0 l 1,3,-1
 -67 0 l 1,4,-1
 307.373046875 660 l 1,5,-1
 552.373046875 660 l 1,6,-1
 623 0 l 1,7,-1
 413 0 l 1,0,-1
273.103515625 269 m 1,8,-1
 403.103515625 269 l 1,9,-1
 397.34765625 400 l 1,10,-1
 394.28125 508 l 1,11,-1
 392.28125 508 l 1,12,-1
 340.578125 401 l 1,13,-1
 273.103515625 269 l 1,8,-1
EndSplineSet
Substitution2: "Single Substitution lookup 56 subtable" A.swsh
Substitution2: "Single Substitution lookup 55 subtable" ordfeminine
Substitution2: "'swsh' Swash lookup 32 subtable" A.swsh
Substitution2: "'c2sc' Capitals to Small Capitals lookup 11 subtable" a.sc
AlternateSubs2: "'aalt' Access All Alternates lookup 1 subtable" a.sc ordfeminine A.swsh
EndChar

StartChar: B
Encoding: 66 66 37
Width: 694
GlyphClass: 2
Flags: W
LayerCount: 2
Fore
SplineSet
-3 0 m 1,0,-1
 149.373046875 660 l 1,1,-1
 500.373046875 660 l 2,2,3
 743.142578125 659 743.142578125 659 702.509765625 483 c 0,4,5
 688.657226562 423 688.657226562 423 643.422851562 383 c 128,-1,6
 598.1875 343 598.1875 343 525.87890625 333 c 1,7,-1
 525.6484375 332 l 1,8,9
 602.33984375 322 602.33984375 322 632.874023438 281 c 128,-1,10
 663.408203125 240 663.408203125 240 648.6328125 176 c 0,11,12
 608 0 608 0 369 0 c 2,13,-1
 -3 0 l 1,0,-1
284.885742188 398 m 1,14,-1
 396.885742188 398 l 2,15,16
 473.885742188 398 473.885742188 398 487.506835938 457 c 128,-1,17
 501.127929688 516 501.127929688 516 424.127929688 516 c 2,18,-1
 312.127929688 516 l 1,19,-1
 284.885742188 398 l 1,14,-1
224.859375 138 m 1,20,-1
 353.859375 138 l 2,21,22
 430.859375 138 430.859375 138 444.711914062 198 c 0,23,24
 458.333007812 257 458.333007812 257 381.333007812 257 c 2,25,-1
 252.333007812 257 l 1,26,-1
 224.859375 138 l 1,20,-1
EndSplineSet
Substitution2: "'c2sc' Capitals to Small Capitals lookup 11 subtable" b.sc
Substitution2: "'aalt' Access All Alternates lookup 0 subtable" b.sc
EndChar

StartChar: C
Encoding: 67 67 38
Width: 679
GlyphClass: 2
Flags: W
LayerCount: 2
Fore
SplineSet
645.25 196 m 1,0,1
 544.69140625 -10 544.69140625 -10 300.69140625 -10 c 0,2,3
 145.69140625 -10 145.69140625 -10 78.4697265625 80 c 128,-1,4
 11.248046875 170 11.248046875 170 48.1865234375 330 c 128,-1,5
 85.125 490 85.125 490 193.903320312 580 c 128,-1,6
 302.681640625 670 302.681640625 670 456.681640625 670 c 0,7,8
 568.681640625 670 568.681640625 670 636.715820312 622.5 c 128,-1,9
 704.749023438 575 704.749023438 575 704.5859375 479 c 1,10,-1
 511.194335938 408 l 1,11,12
 514.27734375 469 514.27734375 469 494.471679688 491.5 c 128,-1,13
 474.666015625 514 474.666015625 514 426.666015625 514 c 0,14,15
 300.666015625 514 300.666015625 514 258.186523438 330 c 128,-1,16
 215.70703125 146 215.70703125 146 339.70703125 146 c 0,17,18
 389.70703125 146 389.70703125 146 421.631835938 169.5 c 128,-1,19
 453.557617188 193 453.557617188 193 474.5625 245 c 1,20,-1
 645.25 196 l 1,0,1
EndSplineSet
Substitution2: "'c2sc' Capitals to Small Capitals lookup 11 subtable" c.sc
Substitution2: "'aalt' Access All Alternates lookup 0 subtable" c.sc
EndChar

StartChar: D
Encoding: 68 68 39
Width: 717
GlyphClass: 2
Flags: W
LayerCount: 2
Fore
SplineSet
452.373046875 660 m 2,0,1
 606.373046875 660 606.373046875 660 668.133789062 574.5 c 128,-1,2
 729.89453125 489 729.89453125 489 693.186523438 330 c 128,-1,3
 656.478515625 171 656.478515625 171 555.239257812 85.5 c 128,-1,4
 454 0 454 0 300 0 c 2,5,-1
 -3 0 l 1,6,-1
 149.373046875 660 l 1,7,-1
 452.373046875 660 l 2,0,1
309.399414062 149 m 2,8,9
 381.399414062 149 381.399414062 149 421.442382812 192.5 c 128,-1,10
 461.485351562 236 461.485351562 236 483.186523438 330 c 128,-1,11
 504.887695312 424 504.887695312 424 484.930664062 467.5 c 128,-1,12
 464.973632812 511 464.973632812 511 392.973632812 511 c 2,13,-1
 318.973632812 511 l 1,14,-1
 235.399414062 149 l 1,15,-1
 309.399414062 149 l 2,8,9
EndSplineSet
Substitution2: "'c2sc' Capitals to Small Capitals lookup 11 subtable" d.sc
Substitution2: "'aalt' Access All Alternates lookup 0 subtable" d.sc
EndChar

StartChar: E
Encoding: 69 69 40
Width: 628
GlyphClass: 2
Flags: W
AnchorPoint: "Anchor-0" 267 0 basechar 0
LayerCount: 2
Fore
SplineSet
236.323242188 153 m 1,0,-1
 577.323242188 153 l 1,1,-1
 542 0 l 1,2,-1
 -3 0 l 1,3,-1
 149.373046875 660 l 1,4,-1
 681.373046875 660 l 1,5,-1
 646.049804688 507 l 1,6,-1
 318.049804688 507 l 1,7,-1
 293.34765625 400 l 1,8,-1
 555.34765625 400 l 1,9,-1
 522.564453125 258 l 1,10,-1
 260.564453125 258 l 1,11,-1
 236.323242188 153 l 1,0,-1
EndSplineSet
Substitution2: "Single Substitution lookup 57 subtable" E.swsh.001
Substitution2: "Single Substitution lookup 56 subtable" E.swsh
AlternateSubs2: "'swsh' Swash lookup 33 subtable" E.swsh E.swsh.001
Substitution2: "'c2sc' Capitals to Small Capitals lookup 11 subtable" e.sc
AlternateSubs2: "'aalt' Access All Alternates lookup 1 subtable" e.sc E.swsh E.swsh.001
EndChar

StartChar: F
Encoding: 70 70 41
Width: 613
GlyphClass: 2
Flags: W
LayerCount: 2
Fore
SplineSet
645.049804688 507 m 1,0,-1
 318.049804688 507 l 1,1,-1
 291.5 392 l 1,2,-1
 553.5 392 l 1,3,-1
 518.177734375 239 l 1,4,-1
 256.177734375 239 l 1,5,-1
 201 0 l 1,6,-1
 -3 0 l 1,7,-1
 149.373046875 660 l 1,8,-1
 680.373046875 660 l 1,9,-1
 645.049804688 507 l 1,0,-1
EndSplineSet
Substitution2: "Single Substitution lookup 56 subtable" F.swsh
Substitution2: "'swsh' Swash lookup 34 subtable" F.swsh
Substitution2: "'c2sc' Capitals to Small Capitals lookup 11 subtable" f.sc
AlternateSubs2: "'aalt' Access All Alternates lookup 1 subtable" f.sc F.swsh
EndChar

StartChar: G
Encoding: 71 71 42
Width: 722
GlyphClass: 2
Flags: W
AnchorPoint: "Anchor-0" 320 0 basechar 0
LayerCount: 2
Fore
SplineSet
353.0234375 234 m 1,0,-1
 383.266601562 365 l 1,1,-1
 691.266601562 365 l 1,2,-1
 607 0 l 1,3,-1
 469 0 l 1,4,-1
 479.545898438 76 l 1,5,6
 406.69140625 -10 406.69140625 -10 276.69140625 -10 c 0,7,8
 140.69140625 -10 140.69140625 -10 75.623046875 78.5 c 128,-1,9
 10.5546875 167 10.5546875 167 47.724609375 328 c 128,-1,10
 84.89453125 489 84.89453125 489 195.288085938 579.5 c 128,-1,11
 305.681640625 670 305.681640625 670 462.681640625 670 c 0,12,13
 580.681640625 670 580.681640625 670 642.215820312 629 c 128,-1,14
 703.750976562 588 703.750976562 588 722.279296875 495 c 1,15,-1
 515.887695312 424 l 1,16,17
 517.666015625 514 517.666015625 514 433.666015625 514 c 0,18,19
 300.666015625 514 300.666015625 514 258.186523438 330 c 0,20,21
 235.561523438 232 235.561523438 232 259.171875 187 c 128,-1,22
 282.783203125 142 282.783203125 142 353.783203125 142 c 0,23,24
 405.783203125 142 405.783203125 142 441.862304688 164 c 128,-1,25
 477.94140625 186 477.94140625 186 487.869140625 229 c 2,26,-1
 489.0234375 234 l 1,27,-1
 353.0234375 234 l 1,0,-1
EndSplineSet
Substitution2: "'ss04' Style Set 4 lookup 50 subtable" G.ss04
Substitution2: "'salt' Stylistic Alternatives lookup 42 subtable" G.ss04
Substitution2: "'c2sc' Capitals to Small Capitals lookup 11 subtable" g.sc
AlternateSubs2: "'aalt' Access All Alternates lookup 1 subtable" g.sc G.ss04
EndChar

StartChar: H
Encoding: 72 72 43
Width: 745
GlyphClass: 2
Flags: W
LayerCount: 2
Fore
SplineSet
567.373046875 660 m 1,0,-1
 772.373046875 660 l 1,1,-1
 620 0 l 1,2,-1
 415 0 l 1,3,-1
 474.102539062 256 l 1,4,-1
 260.102539062 256 l 1,5,-1
 201 0 l 1,6,-1
 -3 0 l 1,7,-1
 149.373046875 660 l 1,8,-1
 353.373046875 660 l 1,9,-1
 295.424804688 409 l 1,10,-1
 509.424804688 409 l 1,11,-1
 567.373046875 660 l 1,0,-1
EndSplineSet
Substitution2: "'sups' Superscript lookup 15 subtable" Hsuperior
Substitution2: "'subs' Subscript lookup 14 subtable" Hinferior
Substitution2: "'sinf' Scientific Inferiors lookup 13 subtable" Hinferior
Substitution2: "'c2sc' Capitals to Small Capitals lookup 11 subtable" h.sc
AlternateSubs2: "'aalt' Access All Alternates lookup 1 subtable" h.sc Hinferior Hsuperior
EndChar

StartChar: I
Encoding: 73 73 44
Width: 326
GlyphClass: 2
Flags: W
LayerCount: 2
Fore
SplineSet
353.373046875 660 m 1,0,-1
 201 0 l 1,1,-1
 -3 0 l 1,2,-1
 149.373046875 660 l 1,3,-1
 353.373046875 660 l 1,0,-1
EndSplineSet
Substitution2: "'c2sc' Capitals to Small Capitals lookup 11 subtable" i.sc
Substitution2: "'aalt' Access All Alternates lookup 0 subtable" i.sc
EndChar

StartChar: J
Encoding: 74 74 45
Width: 640
GlyphClass: 2
Flags: W
LayerCount: 2
Fore
SplineSet
681.373046875 660 m 1,0,-1
 589.71875 263 l 2,1,2
 559.705078125 133 559.705078125 133 465.198242188 61.5 c 128,-1,3
 370.69140625 -10 370.69140625 -10 228.69140625 -10 c 0,4,5
 73.69140625 -10 73.69140625 -10 26.314453125 68.5 c 128,-1,6
 -21.0625 147 -21.0625 147 31.9501953125 277 c 1,7,-1
 243.799804688 311 l 1,8,9
 211.021484375 221 211.021484375 221 219.364257812 183.5 c 128,-1,10
 227.70703125 146 227.70703125 146 276.70703125 146 c 0,11,12
 319.70703125 146 319.70703125 146 346.094726562 178 c 128,-1,13
 372.482421875 210 372.482421875 210 388.874023438 281 c 2,14,-1
 476.373046875 660 l 1,15,-1
 681.373046875 660 l 1,0,-1
EndSplineSet
Substitution2: "'c2sc' Capitals to Small Capitals lookup 11 subtable" j.sc
Substitution2: "'aalt' Access All Alternates lookup 0 subtable" j.sc
EndChar

StartChar: K
Encoding: 75 75 46
Width: 706
GlyphClass: 2
Flags: W
AnchorPoint: "Anchor-0" 295 0 basechar 0
LayerCount: 2
Fore
SplineSet
409 0 m 1,0,-1
 328.94921875 264 l 1,1,-1
 242.094726562 178 l 1,2,-1
 201 0 l 1,3,-1
 -3 0 l 1,4,-1
 149.373046875 660 l 1,5,-1
 353.373046875 660 l 1,6,-1
 291.26953125 391 l 1,7,-1
 555.373046875 660 l 1,8,-1
 776.373046875 660 l 1,9,-1
 504.193359375 395 l 1,10,-1
 640 0 l 1,11,-1
 409 0 l 1,0,-1
EndSplineSet
Substitution2: "'c2sc' Capitals to Small Capitals lookup 11 subtable" k.sc
Substitution2: "'aalt' Access All Alternates lookup 0 subtable" k.sc
EndChar

StartChar: L
Encoding: 76 76 47
Width: 604
GlyphClass: 2
Flags: W
AnchorPoint: "Anchor-0" 262 0 basechar 0
LayerCount: 2
Fore
SplineSet
236.323242188 153 m 1,0,-1
 550.323242188 153 l 1,1,-1
 515 0 l 1,2,-1
 -3 0 l 1,3,-1
 149.373046875 660 l 1,4,-1
 353.373046875 660 l 1,5,-1
 236.323242188 153 l 1,0,-1
EndSplineSet
Substitution2: "Single Substitution lookup 57 subtable" L.swsh
Substitution2: "'swsh' Swash lookup 34 subtable" L.swsh
Substitution2: "'c2sc' Capitals to Small Capitals lookup 11 subtable" l.sc
AlternateSubs2: "'aalt' Access All Alternates lookup 1 subtable" l.sc L.swsh
Position2: "Single Positioning lookup 6 subtable" dx=0 dy=0 dh=-152 dv=0
EndChar

StartChar: M
Encoding: 77 77 48
Width: 930
GlyphClass: 2
Flags: W
LayerCount: 2
Fore
SplineSet
958.373046875 660 m 1,0,-1
 806 0 l 1,1,-1
 626 0 l 1,2,-1
 686.94921875 264 l 1,3,-1
 740.124023438 477 l 1,4,-1
 738.124023438 477 l 1,5,-1
 483 0 l 1,6,-1
 319 0 l 1,7,-1
 286.124023438 477 l 1,8,-1
 283.124023438 477 l 1,9,-1
 237.94921875 264 l 1,10,-1
 177 0 l 1,11,-1
 -3 0 l 1,12,-1
 149.373046875 660 l 1,13,-1
 437.373046875 660 l 1,14,-1
 454.111328125 347 l 1,15,-1
 456.8671875 216 l 1,16,-1
 458.8671875 216 l 1,17,-1
 522.111328125 347 l 1,18,-1
 683.373046875 660 l 1,19,-1
 958.373046875 660 l 1,0,-1
EndSplineSet
Substitution2: "Single Substitution lookup 56 subtable" M.swsh
AlternateSubs2: "'swsh' Swash lookup 35 subtable" M.swsh M.swsh.001
Substitution2: "'c2sc' Capitals to Small Capitals lookup 11 subtable" m.sc
AlternateSubs2: "'aalt' Access All Alternates lookup 1 subtable" m.sc M.swsh M.swsh.001
EndChar

StartChar: N
Encoding: 78 78 49
Width: 744
GlyphClass: 2
Flags: W
AnchorPoint: "Anchor-0" 314 0 basechar 0
LayerCount: 2
Fore
SplineSet
771.373046875 660 m 1,0,-1
 619 0 l 1,1,-1
 395 0 l 1,2,-1
 290.494140625 327 l 1,3,-1
 269.272460938 417 l 1,4,-1
 267.272460938 417 l 1,5,-1
 241.028320312 286 l 1,6,-1
 175 0 l 1,7,-1
 -3 0 l 1,8,-1
 149.373046875 660 l 1,9,-1
 372.373046875 660 l 1,10,-1
 476.87890625 333 l 1,11,-1
 499.100585938 243 l 1,12,-1
 500.100585938 243 l 1,13,-1
 526.344726562 374 l 1,14,-1
 592.373046875 660 l 1,15,-1
 771.373046875 660 l 1,0,-1
EndSplineSet
Substitution2: "Single Substitution lookup 57 subtable" N.swsh
Substitution2: "'swsh' Swash lookup 36 subtable" N.swsh
Substitution2: "'c2sc' Capitals to Small Capitals lookup 11 subtable" n.sc
AlternateSubs2: "'aalt' Access All Alternates lookup 1 subtable" n.sc N.swsh
EndChar

StartChar: O
Encoding: 79 79 50
Width: 733
GlyphClass: 2
Flags: W
LayerCount: 2
Fore
SplineSet
457.681640625 670 m 128,-1,1
 612.681640625 670 612.681640625 670 679.018554688 580.5 c 128,-1,2
 745.356445312 491 745.356445312 491 708.186523438 330 c 128,-1,3
 671.016601562 169 671.016601562 169 563.354492188 79.5 c 128,-1,4
 455.69140625 -10 455.69140625 -10 300.69140625 -10 c 128,-1,5
 145.69140625 -10 145.69140625 -10 78.4697265625 80 c 128,-1,6
 11.248046875 170 11.248046875 170 48.1865234375 330 c 128,-1,7
 85.125 490 85.125 490 193.903320312 580 c 128,-1,0
 302.681640625 670 302.681640625 670 457.681640625 670 c 128,-1,1
421.666015625 514 m 0,8,9
 300.666015625 514 300.666015625 514 258.186523438 330 c 128,-1,10
 215.70703125 146 215.70703125 146 336.70703125 146 c 0,11,12
 456.70703125 146 456.70703125 146 499.186523438 330 c 128,-1,13
 541.666015625 514 541.666015625 514 421.666015625 514 c 0,8,9
EndSplineSet
Substitution2: "Single Substitution lookup 55 subtable" ordmasculine
Substitution2: "'nalt' Alternate Annotation Forms lookup 23 subtable" indexring
Substitution2: "'sups' Superscript lookup 15 subtable" Osuperior
Substitution2: "'subs' Subscript lookup 14 subtable" Oinferior
Substitution2: "'sinf' Scientific Inferiors lookup 13 subtable" Oinferior
Substitution2: "'c2sc' Capitals to Small Capitals lookup 11 subtable" o.sc
AlternateSubs2: "'aalt' Access All Alternates lookup 1 subtable" o.sc Oinferior Osuperior ordmasculine indexring
EndChar

StartChar: P
Encoding: 80 80 51
Width: 688
GlyphClass: 2
Flags: W
LayerCount: 2
Fore
SplineSet
477.373046875 660 m 2,0,1
 608.373046875 660 608.373046875 660 663.213867188 603 c 128,-1,2
 718.053710938 546 718.053710938 546 692.427734375 435 c 0,3,4
 668.186523438 330 668.186523438 330 586.873046875 274.5 c 128,-1,5
 505.560546875 219 505.560546875 219 375.560546875 219 c 2,6,-1
 251.560546875 219 l 1,7,-1
 201 0 l 1,8,-1
 -3 0 l 1,9,-1
 149.373046875 660 l 1,10,-1
 477.373046875 660 l 2,0,1
375.8046875 363 m 2,11,12
 470.8046875 363 470.8046875 363 487.889648438 437 c 128,-1,13
 504.973632812 511 504.973632812 511 409.973632812 511 c 2,14,-1
 318.973632812 511 l 1,15,-1
 284.8046875 363 l 1,16,-1
 375.8046875 363 l 2,11,12
EndSplineSet
Substitution2: "'c2sc' Capitals to Small Capitals lookup 11 subtable" p.sc
Substitution2: "'aalt' Access All Alternates lookup 0 subtable" p.sc
EndChar

StartChar: Q
Encoding: 81 81 52
Width: 733
GlyphClass: 2
Flags: W
LayerCount: 2
Fore
SplineSet
441.533203125 -54 m 0,0,1
 522.533203125 -54 522.533203125 -54 575.537109375 -15 c 1,2,-1
 589.522460938 -158 l 1,3,4
 521.209960938 -207 521.209960938 -207 399.209960938 -207 c 0,5,6
 285.209960938 -207 285.209960938 -207 244.638671875 -151 c 128,-1,7
 204.067382812 -95 204.067382812 -95 236.615234375 -6 c 1,8,9
 115.000976562 13 115.000976562 13 65.2021484375 100.5 c 128,-1,10
 15.4033203125 188 15.4033203125 188 48.1865234375 330 c 0,11,12
 85.125 490 85.125 490 193.903320312 580 c 128,-1,13
 302.681640625 670 302.681640625 670 457.681640625 670 c 128,-1,14
 612.681640625 670 612.681640625 670 679.018554688 580.5 c 128,-1,15
 745.356445312 491 745.356445312 491 708.186523438 330 c 0,16,17
 674.94140625 186 674.94140625 186 583.740234375 98.5 c 128,-1,18
 492.5390625 11 492.5390625 11 361.615234375 -6 c 1,19,20
 356.533203125 -54 356.533203125 -54 441.533203125 -54 c 0,0,1
258.186523438 330 m 128,-1,22
 215.70703125 146 215.70703125 146 336.70703125 146 c 0,23,24
 456.70703125 146 456.70703125 146 499.186523438 330 c 128,-1,25
 541.666015625 514 541.666015625 514 421.666015625 514 c 0,26,21
 300.666015625 514 300.666015625 514 258.186523438 330 c 128,-1,22
EndSplineSet
Substitution2: "'c2sc' Capitals to Small Capitals lookup 11 subtable" q.sc
Substitution2: "'aalt' Access All Alternates lookup 0 subtable" q.sc
EndChar

StartChar: R
Encoding: 82 82 53
Width: 696
GlyphClass: 2
Flags: W
AnchorPoint: "Anchor-0" 299 0 basechar 0
LayerCount: 2
Fore
SplineSet
-3 0 m 5,0,-1
 149.373046875 660 l 5,1,-1
 487.373046875 660 l 6,2,3
 613.373046875 660 613.373046875 660 667.021484375 606.5 c 132,-1,4
 720.669921875 553 720.669921875 553 697.352539062 452 c 4,5,6
 666.877929688 320 666.877929688 320 532.3359375 283 c 5,7,-1
 531.874023438 281 l 5,8,9
 609.025390625 260 609.025390625 260 603.940429688 173 c 4,10,11
 599.473632812 119 599.473632812 119 598.009765625 97.5 c 132,-1,12
 596.545898438 76 596.545898438 76 597.427734375 49.5 c 132,-1,13
 598.309570312 23 598.309570312 23 604.154296875 5 c 5,14,-1
 603 0 l 5,15,-1
 390 0 l 5,16,17
 386.924804688 17 386.924804688 17 388.388671875 38.5 c 132,-1,18
 389.852539062 60 389.852539062 60 393.5859375 93.5 c 132,-1,19
 397.3203125 127 397.3203125 127 398.553710938 154 c 4,20,21
 401.01953125 195 401.01953125 195 382.444335938 212 c 132,-1,22
 363.869140625 229 363.869140625 229 318.869140625 229 c 6,23,-1
 249.869140625 229 l 5,24,-1
 197 0 l 5,25,-1
 -3 0 l 5,0,-1
281.959960938 368 m 5,26,-1
 380.959960938 368 l 6,27,28
 430.959960938 368 430.959960938 368 455.768554688 384.5 c 132,-1,29
 480.578125 401 480.578125 401 489.3515625 439 c 132,-1,30
 498.124023438 477 498.124023438 477 480.548828125 494 c 132,-1,31
 462.973632812 511 462.973632812 511 413.973632812 511 c 6,32,-1
 314.973632812 511 l 5,33,-1
 281.959960938 368 l 5,26,-1
EndSplineSet
Substitution2: "Single Substitution lookup 57 subtable" R.swsh.001
Substitution2: "Single Substitution lookup 56 subtable" R.swsh
Substitution2: "'ss03' Style Set 3 lookup 49 subtable" R.ss03
Substitution2: "'salt' Stylistic Alternatives lookup 42 subtable" R.ss03
AlternateSubs2: "'swsh' Swash lookup 37 subtable" R.swsh R.swsh.001
Substitution2: "'c2sc' Capitals to Small Capitals lookup 11 subtable" r.sc
AlternateSubs2: "'aalt' Access All Alternates lookup 1 subtable" r.sc R.swsh R.swsh.001 R.ss03
EndChar

StartChar: S
Encoding: 83 83 54
Width: 645
GlyphClass: 2
Flags: W
AnchorPoint: "Anchor-0" 278 0 basechar 0
LayerCount: 2
Fore
SplineSet
424.681640625 670 m 0,0,1
 519.681640625 670 519.681640625 670 582.294921875 644.5 c 128,-1,2
 644.907226562 619 644.907226562 619 693.82421875 558 c 1,3,-1
 564.041992188 429 l 1,4,5
 508.127929688 516 508.127929688 516 394.127929688 516 c 0,6,7
 351.127929688 516 351.127929688 516 323.895507812 502 c 128,-1,8
 296.6640625 488 296.6640625 488 291.353515625 465 c 0,9,10
 286.966796875 446 286.966796875 446 308.581054688 433.5 c 128,-1,11
 330.1953125 421 330.1953125 421 391.65625 410 c 0,12,13
 524.345703125 387 524.345703125 387 573.533203125 338 c 128,-1,14
 622.720703125 289 622.720703125 289 601.711914062 198 c 0,15,16
 579.086914062 100 579.086914062 100 485.388671875 45 c 128,-1,17
 391.69140625 -10 391.69140625 -10 265.69140625 -10 c 0,18,19
 151.69140625 -10 151.69140625 -10 87.34765625 14.5 c 128,-1,20
 23.00390625 39 23.00390625 39 -24.759765625 92 c 1,21,-1
 104.0234375 234 l 1,22,23
 157.013671875 143 157.013671875 143 288.013671875 143 c 0,24,25
 379.013671875 143 379.013671875 143 389.403320312 188 c 0,26,27
 393.55859375 206 393.55859375 206 371.213867188 217.5 c 128,-1,28
 348.869140625 229 348.869140625 229 286.639648438 241 c 0,29,30
 153.1796875 265 153.1796875 265 104.76171875 313 c 128,-1,31
 56.34375 361 56.34375 361 76.66015625 449 c 0,32,33
 99.515625 548 99.515625 548 192.098632812 609 c 128,-1,34
 284.681640625 670 284.681640625 670 424.681640625 670 c 0,0,1
EndSplineSet
Substitution2: "Single Substitution lookup 57 subtable" S.swsh
Substitution2: "Single Substitution lookup 56 subtable" S.swsh
Substitution2: "'swsh' Swash lookup 38 subtable" S.swsh
Substitution2: "'c2sc' Capitals to Small Capitals lookup 11 subtable" s.sc
AlternateSubs2: "'aalt' Access All Alternates lookup 1 subtable" s.sc S.swsh
EndChar

StartChar: T
Encoding: 84 84 55
Width: 671
GlyphClass: 2
Flags: W
AnchorPoint: "Anchor-0" 261 0 basechar 0
LayerCount: 2
Fore
SplineSet
736.373046875 660 m 1,0,-1
 701.049804688 507 l 1,1,-1
 491.049804688 507 l 1,2,-1
 374 0 l 1,3,-1
 170 0 l 1,4,-1
 287.049804688 507 l 1,5,-1
 75.0498046875 507 l 1,6,-1
 110.373046875 660 l 1,7,-1
 736.373046875 660 l 1,0,-1
EndSplineSet
Substitution2: "Single Substitution lookup 56 subtable" T.swsh
Substitution2: "'swsh' Swash lookup 38 subtable" T.swsh
Substitution2: "'c2sc' Capitals to Small Capitals lookup 11 subtable" t.sc
AlternateSubs2: "'aalt' Access All Alternates lookup 1 subtable" t.sc T.swsh
EndChar

StartChar: U
Encoding: 85 85 56
Width: 710
GlyphClass: 2
Flags: W
LayerCount: 2
Fore
SplineSet
751.373046875 660 m 1,0,-1
 662.950195312 277 l 2,1,2
 596.69140625 -10 596.69140625 -10 288.69140625 -10 c 128,-1,3
 -19.30859375 -10 -19.30859375 -10 46.9501953125 277 c 2,4,-1
 135.373046875 660 l 1,5,-1
 341.373046875 660 l 1,6,-1
 250.411132812 266 l 2,7,8
 222.70703125 146 222.70703125 146 324.70703125 146 c 0,9,10
 427.70703125 146 427.70703125 146 455.411132812 266 c 2,11,-1
 546.373046875 660 l 1,12,-1
 751.373046875 660 l 1,0,-1
EndSplineSet
Substitution2: "'c2sc' Capitals to Small Capitals lookup 11 subtable" u.sc
Substitution2: "'aalt' Access All Alternates lookup 0 subtable" u.sc
EndChar

StartChar: V
Encoding: 86 86 57
Width: 696
GlyphClass: 2
Flags: W
LayerCount: 2
Fore
SplineSet
785.373046875 660 m 1,0,-1
 405 0 l 1,1,-1
 163 0 l 1,2,-1
 87.373046875 660 l 1,3,-1
 300.373046875 660 l 1,4,-1
 318.874023438 281 l 1,5,-1
 323.091796875 152 l 1,6,-1
 384.412109375 279 l 1,7,-1
 579.373046875 660 l 1,8,-1
 785.373046875 660 l 1,0,-1
EndSplineSet
Substitution2: "'c2sc' Capitals to Small Capitals lookup 11 subtable" v.sc
Substitution2: "'aalt' Access All Alternates lookup 0 subtable" v.sc
EndChar

StartChar: W
Encoding: 87 87 58
Width: 1010
GlyphClass: 2
Flags: W
LayerCount: 2
Fore
SplineSet
480.104492188 282 m 1,0,-1
 351 0 l 1,1,-1
 125 0 l 1,2,-1
 88.373046875 660 l 1,3,-1
 308.373046875 660 l 1,4,-1
 286.169921875 161 l 1,5,-1
 505.373046875 660 l 1,6,-1
 685.373046875 660 l 1,7,-1
 679.631835938 163 l 1,8,-1
 885.373046875 660 l 1,9,-1
 1097.37304688 660 l 1,10,-1
 756 0 l 1,11,-1
 536 0 l 1,12,-1
 537.104492188 282 l 1,13,-1
 548.198242188 447 l 1,14,-1
 545.198242188 447 l 1,15,-1
 480.104492188 282 l 1,0,-1
EndSplineSet
Substitution2: "Single Substitution lookup 56 subtable" W.swsh
Substitution2: "'swsh' Swash lookup 38 subtable" W.swsh
Substitution2: "'c2sc' Capitals to Small Capitals lookup 11 subtable" w.sc
AlternateSubs2: "'aalt' Access All Alternates lookup 1 subtable" w.sc W.swsh
EndChar

StartChar: X
Encoding: 88 88 59
Width: 685
GlyphClass: 2
Flags: W
LayerCount: 2
Fore
SplineSet
622 0 m 1,0,-1
 376 0 l 1,1,-1
 316.557617188 193 l 1,2,-1
 174 0 l 1,3,-1
 -58 0 l 1,4,-1
 240.186523438 330 l 1,5,-1
 105.373046875 660 l 1,6,-1
 346.373046875 660 l 1,7,-1
 396.969726562 472 l 1,8,-1
 535.373046875 660 l 1,9,-1
 757.373046875 660 l 1,10,-1
 472.340820312 335 l 1,11,-1
 622 0 l 1,0,-1
EndSplineSet
Substitution2: "'c2sc' Capitals to Small Capitals lookup 11 subtable" x.sc
Substitution2: "'aalt' Access All Alternates lookup 0 subtable" x.sc
EndChar

StartChar: Y
Encoding: 89 89 60
Width: 687
GlyphClass: 2
Flags: W
LayerCount: 2
Fore
SplineSet
765.373046875 660 m 1,0,-1
 436.0234375 234 l 1,1,-1
 382 0 l 1,2,-1
 177 0 l 1,3,-1
 231.0234375 234 l 1,4,-1
 97.373046875 660 l 1,5,-1
 304.373046875 660 l 1,6,-1
 346.279296875 495 l 1,7,-1
 368.729492188 380 l 1,8,-1
 443.279296875 495 l 1,9,-1
 562.373046875 660 l 1,10,-1
 765.373046875 660 l 1,0,-1
EndSplineSet
Substitution2: "'c2sc' Capitals to Small Capitals lookup 11 subtable" y.sc
Substitution2: "'aalt' Access All Alternates lookup 0 subtable" y.sc
EndChar

StartChar: Z
Encoding: 90 90 61
Width: 636
GlyphClass: 2
Flags: W
LayerCount: 2
Fore
SplineSet
222.399414062 149 m 1,0,-1
 583.399414062 149 l 1,1,-1
 549 0 l 1,2,-1
 -33 0 l 1,3,-1
 0.013671875 143 l 1,4,-1
 435.973632812 511 l 1,5,-1
 89.9736328125 511 l 1,6,-1
 124.373046875 660 l 1,7,-1
 690.373046875 660 l 1,8,-1
 657.358398438 517 l 1,9,-1
 222.399414062 149 l 1,0,-1
EndSplineSet
Substitution2: "'c2sc' Capitals to Small Capitals lookup 11 subtable" z.sc
Substitution2: "'aalt' Access All Alternates lookup 0 subtable" z.sc
EndChar

StartChar: bracketleft
Encoding: 91 91 62
Width: 407
GlyphClass: 2
Flags: W
LayerCount: 2
Fore
SplineSet
450.826171875 571 m 1,0,-1
 324.826171875 571 l 1,1,-1
 185.612304688 -32 l 1,2,-1
 311.612304688 -32 l 1,3,-1
 280.213867188 -168 l 1,4,-1
 -17.7861328125 -168 l 1,5,-1
 183.993164062 706 l 1,6,-1
 481.993164062 706 l 1,7,-1
 450.826171875 571 l 1,0,-1
EndSplineSet
Substitution2: "'case' Case-Sensitive Forms lookup 29 subtable" bracketleft.case
Substitution2: "'sups' Superscript lookup 15 subtable" bracketleftsuperior
Substitution2: "'subs' Subscript lookup 14 subtable" bracketleftinferior
Substitution2: "'sinf' Scientific Inferiors lookup 13 subtable" bracketleftinferior
AlternateSubs2: "'aalt' Access All Alternates lookup 1 subtable" bracketleftinferior bracketleftsuperior bracketleft.case
EndChar

StartChar: backslash
Encoding: 92 92 63
Width: 479
GlyphClass: 2
Flags: W
LayerCount: 2
Fore
SplineSet
108.993164062 706 m 1,0,-1
 296.993164062 706 l 1,1,-1
 388.838867188 -70 l 1,2,-1
 200.838867188 -70 l 1,3,-1
 108.993164062 706 l 1,0,-1
EndSplineSet
EndChar

StartChar: bracketright
Encoding: 93 93 64
Width: 407
GlyphClass: 2
Flags: W
LayerCount: 2
Fore
SplineSet
420.993164062 706 m 1,0,-1
 219.213867188 -168 l 1,1,-1
 -79.7861328125 -168 l 1,2,-1
 -48.3876953125 -32 l 1,3,-1
 77.6123046875 -32 l 1,4,-1
 216.826171875 571 l 1,5,-1
 90.826171875 571 l 1,6,-1
 121.993164062 706 l 1,7,-1
 420.993164062 706 l 1,0,-1
EndSplineSet
Substitution2: "'case' Case-Sensitive Forms lookup 29 subtable" bracketright.case
Substitution2: "'sups' Superscript lookup 15 subtable" bracketrightsuperior
Substitution2: "'subs' Subscript lookup 14 subtable" bracketrightinferior
Substitution2: "'sinf' Scientific Inferiors lookup 13 subtable" bracketrightinferior
AlternateSubs2: "'aalt' Access All Alternates lookup 1 subtable" bracketrightinferior bracketrightsuperior bracketright.case
EndChar

StartChar: asciicircum
Encoding: 94 94 65
Width: 631
GlyphClass: 2
Flags: W
LayerCount: 2
Fore
SplineSet
624.958007812 355 m 1,0,-1
 449.958007812 355 l 1,1,-1
 388.59765625 596 l 1,2,-1
 215.958007812 355 l 1,3,-1
 41.9580078125 355 l 1,4,-1
 333.686523438 722 l 1,5,-1
 501.686523438 722 l 1,6,-1
 624.958007812 355 l 1,0,-1
EndSplineSet
EndChar

StartChar: underscore
Encoding: 95 95 66
Width: 539
GlyphClass: 2
Flags: W
LayerCount: 2
Fore
SplineSet
462.302734375 -55 m 1,0,-1
 426.287109375 -211 l 1,1,-1
 -112.712890625 -211 l 1,2,-1
 -76.697265625 -55 l 1,3,-1
 462.302734375 -55 l 1,0,-1
EndSplineSet
EndChar

StartChar: grave
Encoding: 96 96 67
Width: 500
GlyphClass: 2
Flags: W
LayerCount: 2
Fore
SplineSet
367.45703125 734 m 1,0,-1
 390.055664062 559 l 1,1,-1
 246.055664062 559 l 1,2,-1
 184.45703125 734 l 1,3,-1
 367.45703125 734 l 1,0,-1
EndSplineSet
EndChar

StartChar: a
Encoding: 97 97 68
Width: 585
GlyphClass: 2
Flags: W
LayerCount: 2
Fore
SplineSet
520.625976562 111 m 0,0,1
 537.625976562 111 537.625976562 111 549.549804688 115 c 1,2,-1
 508.846679688 8 l 1,3,4
 471.69140625 -10 471.69140625 -10 433.69140625 -10 c 0,5,6
 314.69140625 -10 314.69140625 -10 308.391601562 71 c 1,7,8
 243.69140625 -10 243.69140625 -10 111.69140625 -10 c 0,9,10
 35.69140625 -10 35.69140625 -10 3.4638671875 21.5 c 128,-1,11
 -28.763671875 53 -28.763671875 53 -15.142578125 112 c 0,12,13
 -0.59765625 175 -0.59765625 175 53.40625 214 c 128,-1,14
 107.409179688 253 107.409179688 253 217.2578125 274 c 2,15,-1
 328.336914062 296 l 1,16,-1
 332.723632812 315 l 2,17,18
 339.418945312 344 339.418945312 344 328.112304688 360 c 128,-1,19
 316.806640625 376 316.806640625 376 289.806640625 376 c 0,20,21
 225.806640625 376 225.806640625 376 201.876953125 307 c 1,22,-1
 43.95703125 342 l 1,23,24
 73.4267578125 422 73.4267578125 422 145.084960938 466 c 128,-1,25
 216.743164062 510 216.743164062 510 327.743164062 510 c 0,26,27
 577.743164062 510 577.743164062 510 531.799804688 311 c 2,28,-1
 494.861328125 151 l 2,29,30
 485.625976562 111 485.625976562 111 520.625976562 111 c 0,0,1
219.93359375 108 m 0,31,32
 245.93359375 108 245.93359375 108 269.012695312 123.5 c 128,-1,33
 292.090820312 139 292.090820312 139 298.5546875 167 c 2,34,-1
 309.174804688 213 l 1,35,-1
 250.942382812 199 l 2,36,37
 195.94140625 186 195.94140625 186 186.9375 147 c 128,-1,38
 177.93359375 108 177.93359375 108 219.93359375 108 c 0,31,32
EndSplineSet
Substitution2: "Single Substitution lookup 55 subtable" ordfeminine
Substitution2: "'smcp' Lowercase to Small Capitals lookup 12 subtable" a.sc
AlternateSubs2: "'aalt' Access All Alternates lookup 1 subtable" a.sc ordfeminine
EndChar

StartChar: b
Encoding: 98 98 69
Width: 628
GlyphClass: 2
Flags: W
LayerCount: 2
Fore
SplineSet
450.743164062 510 m 0,0,1
 544.743164062 510 544.743164062 510 580.8125 441 c 128,-1,2
 616.8828125 372 616.8828125 372 588.254882812 248 c 0,3,4
 559.858398438 125 559.858398438 125 492.775390625 57.5 c 128,-1,5
 425.69140625 -10 425.69140625 -10 331.69140625 -10 c 0,6,7
 271.69140625 -10 271.69140625 -10 236.194335938 22.5 c 128,-1,8
 200.697265625 55 200.697265625 55 193.625976562 111 c 1,9,-1
 162 0 l 1,10,-1
 -15 0 l 1,11,-1
 147.993164062 706 l 1,12,-1
 349.993164062 706 l 1,13,-1
 283.041015625 416 l 1,14,15
 347.743164062 510 347.743164062 510 450.743164062 510 c 0,0,1
286.936523438 134 m 0,16,17
 358.936523438 134 358.936523438 134 385.716796875 250 c 0,18,19
 412.266601562 365 412.266601562 365 340.266601562 365 c 0,20,21
 274.266601562 365 274.266601562 365 247.256835938 261 c 2,22,-1
 242.177734375 239 l 2,23,24
 220.936523438 134 220.936523438 134 286.936523438 134 c 0,16,17
EndSplineSet
Substitution2: "'smcp' Lowercase to Small Capitals lookup 12 subtable" b.sc
Substitution2: "'aalt' Access All Alternates lookup 0 subtable" b.sc
EndChar

StartChar: c
Encoding: 99 99 70
Width: 574
GlyphClass: 2
Flags: W
LayerCount: 2
Fore
SplineSet
351.743164062 510 m 0,0,1
 478.743164062 510 478.743164062 510 527.5078125 463.5 c 128,-1,2
 576.272460938 417 576.272460938 417 568.111328125 347 c 1,3,-1
 367.952148438 290 l 1,4,5
 383.65234375 371 383.65234375 371 329.65234375 371 c 0,6,7
 289.65234375 371 289.65234375 371 264.572265625 342.5 c 128,-1,8
 239.4921875 314 239.4921875 314 224.254882812 248 c 128,-1,9
 209.017578125 182 209.017578125 182 222.400390625 155.5 c 128,-1,10
 235.782226562 129 235.782226562 129 272.782226562 129 c 0,11,12
 326.782226562 129 326.782226562 129 352.635742188 202 c 1,13,-1
 520.475585938 145 l 1,14,15
 500.0078125 78 500.0078125 78 425.849609375 34 c 128,-1,16
 351.69140625 -10 351.69140625 -10 241.69140625 -10 c 0,17,18
 105.69140625 -10 105.69140625 -10 49.275390625 57.5 c 128,-1,19
 -7.1416015625 125 -7.1416015625 125 21.716796875 250 c 0,20,21
 50.3447265625 374 50.3447265625 374 137.043945312 442 c 128,-1,22
 223.743164062 510 223.743164062 510 351.743164062 510 c 0,0,1
EndSplineSet
Substitution2: "'smcp' Lowercase to Small Capitals lookup 12 subtable" c.sc
Substitution2: "'aalt' Access All Alternates lookup 0 subtable" c.sc
EndChar

StartChar: d
Encoding: 100 100 71
Width: 628
GlyphClass: 2
Flags: W
LayerCount: 2
Fore
SplineSet
474.993164062 706 m 1,0,-1
 676.993164062 706 l 1,1,-1
 514 0 l 1,2,-1
 333 0 l 1,3,-1
 348.39453125 97 l 1,4,5
 315.08203125 48 315.08203125 48 267.38671875 19 c 128,-1,6
 219.69140625 -10 219.69140625 -10 163.69140625 -10 c 0,7,8
 69.69140625 -10 69.69140625 -10 33.390625 58 c 128,-1,9
 -2.91015625 126 -2.91015625 126 25.2548828125 248 c 0,10,11
 53.8828125 372 53.8828125 372 122.3125 441 c 128,-1,12
 190.743164062 510 190.743164062 510 284.743164062 510 c 0,13,14
 386.743164062 510 386.743164062 510 407.810546875 415 c 1,15,-1
 474.993164062 706 l 1,0,-1
273.936523438 134 m 0,16,17
 342.936523438 134 342.936523438 134 368.793945312 246 c 2,18,-1
 370.640625 254 l 2,19,20
 396.266601562 365 396.266601562 365 327.266601562 365 c 0,21,22
 256.266601562 365 256.266601562 365 229.716796875 250 c 0,23,24
 202.936523438 134 202.936523438 134 273.936523438 134 c 0,16,17
EndSplineSet
Substitution2: "'smcp' Lowercase to Small Capitals lookup 12 subtable" d.sc
Substitution2: "'aalt' Access All Alternates lookup 0 subtable" d.sc
EndChar

StartChar: e
Encoding: 101 101 72
Width: 583
GlyphClass: 2
Flags: W
AnchorPoint: "Anchor-0" 232 0 basechar 0
LayerCount: 2
Fore
SplineSet
552.487304688 262 m 0,0,1
 544.17578125 226 544.17578125 226 534.096679688 204 c 1,2,-1
 205.096679688 204 l 1,3,4
 201.400390625 162 201.400390625 162 218.475585938 145 c 128,-1,5
 235.55078125 128 235.55078125 128 273.55078125 128 c 0,6,7
 334.55078125 128 334.55078125 128 359.6328125 176 c 1,8,-1
 511.782226562 129 l 1,9,10
 477.083007812 61 477.083007812 61 405.38671875 25.5 c 128,-1,11
 333.69140625 -10 333.69140625 -10 241.69140625 -10 c 0,12,13
 105.69140625 -10 105.69140625 -10 49.275390625 57.5 c 128,-1,14
 -7.1416015625 125 -7.1416015625 125 21.716796875 250 c 0,15,16
 50.3447265625 374 50.3447265625 374 136.543945312 442 c 128,-1,17
 222.743164062 510 222.743164062 510 350.743164062 510 c 0,18,19
 475.743164062 510 475.743164062 510 527.389648438 443.5 c 128,-1,20
 579.037109375 377 579.037109375 377 552.487304688 262 c 0,0,1
320.114257812 373 m 0,21,22
 287.114257812 373 287.114257812 373 264.227539062 354 c 128,-1,23
 241.340820312 335 241.340820312 335 225.413085938 292 c 1,24,-1
 370.413085938 292 l 1,25,26
 378.114257812 373 378.114257812 373 320.114257812 373 c 0,21,22
EndSplineSet
Substitution2: "'smcp' Lowercase to Small Capitals lookup 12 subtable" e.sc
Substitution2: "'aalt' Access All Alternates lookup 0 subtable" e.sc
EndChar

StartChar: f
Encoding: 102 102 73
Width: 423
GlyphClass: 2
Flags: W
LayerCount: 2
Fore
SplineSet
327.282226562 521 m 2,0,-1
 322.434570312 500 l 1,1,-1
 468.434570312 500 l 1,2,-1
 436.34375 361 l 1,3,-1
 303.34375 361 l 1,4,-1
 220 0 l 1,5,-1
 18 0 l 1,6,-1
 101.34375 361 l 1,7,-1
 27.34375 361 l 1,8,-1
 59.4345703125 500 l 1,9,-1
 133.434570312 500 l 1,10,-1
 140.822265625 532 l 2,11,12
 163.447265625 630 163.447265625 630 235.182617188 676.5 c 128,-1,13
 306.91796875 723 306.91796875 723 400.91796875 723 c 0,14,15
 486.91796875 723 486.91796875 723 518.760742188 692 c 1,16,-1
 474.826171875 571 l 1,17,18
 458.51953125 587 458.51953125 587 421.51953125 587 c 0,19,20
 342.51953125 587 342.51953125 587 327.282226562 521 c 2,0,-1
EndSplineSet
Substitution2: "'smcp' Lowercase to Small Capitals lookup 12 subtable" f.sc
Substitution2: "'aalt' Access All Alternates lookup 0 subtable" f.sc
EndChar

StartChar: g
Encoding: 103 103 74
Width: 628
GlyphClass: 2
Flags: W
LayerCount: 2
Fore
SplineSet
448.434570312 500 m 1,0,-1
 629.434570312 500 l 1,1,-1
 523.234375 40 l 2,2,3
 464.36328125 -215 464.36328125 -215 175.36328125 -215 c 0,4,5
 70.36328125 -215 70.36328125 -215 15.712890625 -181 c 128,-1,6
 -38.9375 -147 -38.9375 -147 -32.0830078125 -61 c 1,7,-1
 172.767578125 -14 l 1,8,9
 155.067382812 -95 155.067382812 -95 221.067382812 -95 c 0,10,11
 290.067382812 -95 290.067382812 -95 310.153320312 -8 c 2,12,-1
 333.701171875 94 l 1,13,14
 265.38671875 19 265.38671875 19 170.38671875 19 c 0,15,16
 76.38671875 19 76.38671875 19 39.046875 82.5 c 128,-1,17
 1.70703125 146 1.70703125 146 28.4873046875 262 c 0,18,19
 55.7294921875 380 55.7294921875 380 123.236328125 445 c 128,-1,20
 190.743164062 510 190.743164062 510 284.743164062 510 c 0,21,22
 348.743164062 510 348.743164062 510 381.27734375 475.5 c 128,-1,23
 413.8125 441 413.8125 441 415.9609375 381 c 1,24,-1
 448.434570312 500 l 1,0,-1
280.631835938 163 m 0,25,26
 349.631835938 163 349.631835938 163 372.025390625 260 c 2,27,-1
 373.873046875 268 l 2,28,29
 396.266601562 365 396.266601562 365 327.266601562 365 c 0,30,31
 256.266601562 365 256.266601562 365 232.94921875 264 c 128,-1,32
 209.631835938 163 209.631835938 163 280.631835938 163 c 0,25,26
EndSplineSet
Substitution2: "'ss01' Style Set 1 lookup 47 subtable" g.ss01
Substitution2: "'salt' Stylistic Alternatives lookup 42 subtable" g.ss01
Substitution2: "'smcp' Lowercase to Small Capitals lookup 12 subtable" g.sc
AlternateSubs2: "'aalt' Access All Alternates lookup 1 subtable" g.sc g.ss01
EndChar

StartChar: h
Encoding: 104 104 75
Width: 620
GlyphClass: 2
Flags: W
LayerCount: 2
Fore
SplineSet
461.743164062 510 m 0,0,1
 538.743164062 510 538.743164062 510 571.853515625 465 c 128,-1,2
 604.96484375 420 604.96484375 420 586.033203125 338 c 2,3,-1
 508 0 l 1,4,-1
 306 0 l 1,5,-1
 371.56640625 284 l 2,6,7
 388.881835938 359 388.881835938 359 337.881835938 359 c 0,8,9
 269.881835938 359 269.881835938 359 247.71875 263 c 2,10,-1
 187 0 l 1,11,-1
 -15 0 l 1,12,-1
 147.993164062 706 l 1,13,-1
 349.993164062 706 l 1,14,-1
 280.040039062 403 l 1,15,16
 348.743164062 510 348.743164062 510 461.743164062 510 c 0,0,1
EndSplineSet
Substitution2: "'smcp' Lowercase to Small Capitals lookup 12 subtable" h.sc
Substitution2: "'aalt' Access All Alternates lookup 0 subtable" h.sc
EndChar

StartChar: i
Encoding: 105 105 76
Width: 300
GlyphClass: 2
Flags: W
LayerCount: 2
Fore
SplineSet
211.592773438 544 m 128,-1,1
 150.592773438 544 150.592773438 544 129.440429688 565 c 128,-1,2
 108.2890625 586 108.2890625 586 119.139648438 633 c 0,3,4
 130.221679688 681 130.221679688 681 161.069335938 702 c 128,-1,5
 191.91796875 723 191.91796875 723 252.91796875 723 c 128,-1,6
 313.91796875 723 313.91796875 723 335.069335938 702 c 128,-1,7
 356.221679688 681 356.221679688 681 345.139648438 633 c 0,8,9
 334.2890625 586 334.2890625 586 303.440429688 565 c 128,-1,0
 272.592773438 544 272.592773438 544 211.592773438 544 c 128,-1,1
302.434570312 500 m 1,10,-1
 187 0 l 1,11,-1
 -15 0 l 1,12,-1
 100.434570312 500 l 1,13,-1
 302.434570312 500 l 1,10,-1
EndSplineSet
Substitution2: "'smcp' Lowercase to Small Capitals lookup 12 subtable" i.sc
Substitution2: "'locl' Localized Forms in Latin lookup 6 subtable" i.loclTRK
Substitution2: "'locl' Localized Forms in Latin lookup 5 subtable" i.loclTRK
Substitution2: "'locl' Localized Forms in Latin lookup 4 subtable" i.loclTRK
Substitution2: "'locl' Localized Forms in Latin lookup 3 subtable" i.loclTRK
Substitution2: "'locl' Localized Forms in Latin lookup 2 subtable" i.loclTRK
Substitution2: "'aalt' Access All Alternates lookup 0 subtable" i.sc
EndChar

StartChar: j
Encoding: 106 106 77
Width: 299
GlyphClass: 2
Flags: W
LayerCount: 2
Fore
SplineSet
251.91796875 723 m 0,0,1
 312.91796875 723 312.91796875 723 334.569335938 702 c 128,-1,2
 356.221679688 681 356.221679688 681 345.139648438 633 c 0,3,4
 334.2890625 586 334.2890625 586 302.940429688 565 c 128,-1,5
 271.592773438 544 271.592773438 544 210.592773438 544 c 0,6,7
 150.592773438 544 150.592773438 544 129.440429688 565 c 128,-1,8
 108.2890625 586 108.2890625 586 119.139648438 633 c 128,-1,9
 129.990234375 680 129.990234375 680 160.954101562 701.5 c 128,-1,10
 191.91796875 723 191.91796875 723 251.91796875 723 c 0,0,1
302.434570312 500 m 1,11,-1
 182.3828125 -20 l 2,12,13
 158.603515625 -123 158.603515625 -123 96.9833984375 -169 c 128,-1,14
 35.36328125 -215 35.36328125 -215 -70.63671875 -215 c 0,15,16
 -157.63671875 -215 -157.63671875 -215 -205.479492188 -184 c 1,17,-1
 -151.083007812 -61 l 1,18,19
 -135.0078125 -78 -135.0078125 -78 -99.0078125 -78 c 0,20,21
 -33.0078125 -78 -33.0078125 -78 -15.4619140625 -2 c 2,22,-1
 100.434570312 500 l 1,23,-1
 302.434570312 500 l 1,11,-1
EndSplineSet
Substitution2: "'smcp' Lowercase to Small Capitals lookup 12 subtable" j.sc
Substitution2: "'aalt' Access All Alternates lookup 0 subtable" j.sc
EndChar

StartChar: k
Encoding: 107 107 78
Width: 641
GlyphClass: 2
Flags: W
AnchorPoint: "Anchor-0" 269 0 basechar 0
LayerCount: 2
Fore
SplineSet
363 0 m 1,0,-1
 302.633789062 189 l 1,1,-1
 211.241210938 105 l 1,2,-1
 187 0 l 1,3,-1
 -15 0 l 1,4,-1
 147.993164062 706 l 1,5,-1
 349.993164062 706 l 1,6,-1
 257.876953125 307 l 1,7,-1
 469.434570312 500 l 1,8,-1
 689.434570312 500 l 1,9,-1
 463.18359375 304 l 1,10,-1
 585 0 l 1,11,-1
 363 0 l 1,0,-1
EndSplineSet
Substitution2: "'smcp' Lowercase to Small Capitals lookup 12 subtable" k.sc
Substitution2: "'aalt' Access All Alternates lookup 0 subtable" k.sc
EndChar

StartChar: l
Encoding: 108 108 79
Width: 334
GlyphClass: 2
Flags: W
AnchorPoint: "Anchor-0" 117 0 basechar 0
LayerCount: 2
Fore
SplineSet
348.993164062 706 m 1,0,-1
 229.171875 187 l 2,1,2
 221.784179688 155 221.784179688 155 228.552734375 141 c 128,-1,3
 235.3203125 127 235.3203125 127 259.3203125 127 c 0,4,5
 281.3203125 127 281.3203125 127 303.936523438 134 c 1,6,-1
 266.38671875 19 l 1,7,8
 218.69140625 -10 218.69140625 -10 144.69140625 -10 c 0,9,10
 57.69140625 -10 57.69140625 -10 28.6953125 29 c 128,-1,11
 -0.30078125 68 -0.30078125 68 20.24609375 157 c 2,12,-1
 146.993164062 706 l 1,13,-1
 348.993164062 706 l 1,0,-1
EndSplineSet
Substitution2: "'ss02' Style Set 2 lookup 48 subtable" l.ss02
Substitution2: "'salt' Stylistic Alternatives lookup 42 subtable" l.ss02
Substitution2: "'smcp' Lowercase to Small Capitals lookup 12 subtable" l.sc
AlternateSubs2: "'aalt' Access All Alternates lookup 1 subtable" l.sc l.ss02
Position2: "Single Positioning lookup 6 subtable" dx=0 dy=0 dh=-40 dv=0
EndChar

StartChar: m
Encoding: 109 109 80
Width: 937
GlyphClass: 2
Flags: W
LayerCount: 2
Fore
SplineSet
779.743164062 510 m 0,0,1
 854.743164062 510 854.743164062 510 888.353515625 465 c 128,-1,2
 921.96484375 420 921.96484375 420 903.033203125 338 c 2,3,-1
 825 0 l 1,4,-1
 623 0 l 1,5,-1
 689.490234375 288 l 2,6,7
 705.881835938 359 705.881835938 359 655.881835938 359 c 0,8,9
 588.881835938 359 588.881835938 359 566.94921875 264 c 2,10,-1
 506 0 l 1,11,-1
 304 0 l 1,12,-1
 370.490234375 288 l 2,13,14
 386.881835938 359 386.881835938 359 336.881835938 359 c 0,15,16
 305.881835938 359 305.881835938 359 282.340820312 335 c 128,-1,17
 258.799804688 311 258.799804688 311 247.71875 263 c 2,18,-1
 187 0 l 1,19,-1
 -15 0 l 1,20,-1
 100.434570312 500 l 1,21,-1
 282.434570312 500 l 1,22,-1
 263.654296875 397 l 1,23,24
 335.743164062 510 335.743164062 510 460.743164062 510 c 0,25,26
 578.743164062 510 578.743164062 510 590.424804688 409 c 1,27,28
 660.743164062 510 660.743164062 510 779.743164062 510 c 0,0,1
EndSplineSet
Substitution2: "'smcp' Lowercase to Small Capitals lookup 12 subtable" m.sc
Substitution2: "'aalt' Access All Alternates lookup 0 subtable" m.sc
EndChar

StartChar: n
Encoding: 110 110 81
Width: 620
GlyphClass: 2
Flags: W
AnchorPoint: "Anchor-0" 246 0 basechar 0
LayerCount: 2
Fore
SplineSet
461.743164062 510 m 0,0,1
 538.743164062 510 538.743164062 510 571.853515625 465 c 128,-1,2
 604.96484375 420 604.96484375 420 586.033203125 338 c 2,3,-1
 508 0 l 1,4,-1
 306 0 l 1,5,-1
 371.56640625 284 l 2,6,7
 388.881835938 359 388.881835938 359 337.881835938 359 c 0,8,9
 269.881835938 359 269.881835938 359 247.71875 263 c 2,10,-1
 187 0 l 1,11,-1
 -15 0 l 1,12,-1
 100.434570312 500 l 1,13,-1
 282.434570312 500 l 1,14,-1
 263.654296875 397 l 1,15,16
 335.743164062 510 335.743164062 510 461.743164062 510 c 0,0,1
EndSplineSet
Substitution2: "Single Substitution lookup 57 subtable" n.swsh
Substitution2: "'swsh' Swash lookup 38 subtable" n.swsh
Substitution2: "'smcp' Lowercase to Small Capitals lookup 12 subtable" n.sc
AlternateSubs2: "'aalt' Access All Alternates lookup 1 subtable" n.sc n.swsh
EndChar

StartChar: o
Encoding: 111 111 82
Width: 600
GlyphClass: 2
Flags: W
LayerCount: 2
Fore
SplineSet
353.743164062 510 m 128,-1,1
 482.743164062 510 482.743164062 510 538.428710938 441.5 c 128,-1,2
 594.114257812 373 594.114257812 373 565.716796875 250 c 128,-1,3
 537.3203125 127 537.3203125 127 450.005859375 58.5 c 128,-1,4
 362.69140625 -10 362.69140625 -10 233.69140625 -10 c 128,-1,5
 104.69140625 -10 104.69140625 -10 49.005859375 58.5 c 128,-1,6
 -6.6796875 127 -6.6796875 127 21.716796875 250 c 128,-1,7
 50.1142578125 373 50.1142578125 373 137.428710938 441.5 c 128,-1,0
 224.743164062 510 224.743164062 510 353.743164062 510 c 128,-1,1
321.65234375 371 m 128,-1,9
 283.65234375 371 283.65234375 371 262.034179688 344.5 c 128,-1,10
 240.416015625 318 240.416015625 318 224.716796875 250 c 128,-1,11
 209.017578125 182 209.017578125 182 218.400390625 155.5 c 128,-1,12
 227.782226562 129 227.782226562 129 265.782226562 129 c 128,-1,13
 303.782226562 129 303.782226562 129 325.400390625 155.5 c 128,-1,14
 347.017578125 182 347.017578125 182 362.716796875 250 c 128,-1,15
 378.416015625 318 378.416015625 318 369.034179688 344.5 c 128,-1,8
 359.65234375 371 359.65234375 371 321.65234375 371 c 128,-1,9
EndSplineSet
Substitution2: "Single Substitution lookup 55 subtable" ordmasculine
Substitution2: "'smcp' Lowercase to Small Capitals lookup 12 subtable" o.sc
AlternateSubs2: "'aalt' Access All Alternates lookup 1 subtable" o.sc ordmasculine
EndChar

StartChar: p
Encoding: 112 112 83
Width: 628
GlyphClass: 2
Flags: W
LayerCount: 2
Fore
SplineSet
451.743164062 510 m 0,0,1
 545.743164062 510 545.743164062 510 581.659179688 442.5 c 128,-1,2
 617.575195312 375 617.575195312 375 589.178710938 252 c 0,3,4
 560.55078125 128 560.55078125 128 492.62109375 59 c 128,-1,5
 424.69140625 -10 424.69140625 -10 330.69140625 -10 c 0,6,7
 227.69140625 -10 227.69140625 -10 206.392578125 84 c 1,8,-1
 138.517578125 -210 l 1,9,-1
 -63.482421875 -210 l 1,10,-1
 100.434570312 500 l 1,11,-1
 277.434570312 500 l 1,12,-1
 257.807617188 389 l 1,13,14
 290.736328125 445 290.736328125 445 341.239257812 477.5 c 128,-1,15
 391.743164062 510 391.743164062 510 451.743164062 510 c 0,0,1
287.166992188 135 m 0,16,17
 359.166992188 135 359.166992188 135 385.716796875 250 c 0,18,19
 412.498046875 366 412.498046875 366 340.498046875 366 c 0,20,21
 274.498046875 366 274.498046875 366 247.256835938 261 c 2,22,-1
 242.177734375 239 l 2,23,24
 221.166992188 135 221.166992188 135 287.166992188 135 c 0,16,17
EndSplineSet
Substitution2: "'smcp' Lowercase to Small Capitals lookup 12 subtable" p.sc
Substitution2: "'aalt' Access All Alternates lookup 0 subtable" p.sc
EndChar

StartChar: q
Encoding: 113 113 84
Width: 628
GlyphClass: 2
Flags: W
LayerCount: 2
Fore
SplineSet
452.434570312 500 m 1,0,-1
 630.434570312 500 l 1,1,-1
 466.517578125 -210 l 1,2,-1
 264.517578125 -210 l 1,3,-1
 332.624023438 85 l 1,4,5
 267.69140625 -10 267.69140625 -10 164.69140625 -10 c 0,6,7
 70.69140625 -10 70.69140625 -10 34.12109375 59 c 128,-1,8
 -2.44921875 128 -2.44921875 128 26.1787109375 252 c 0,9,10
 54.3447265625 374 54.3447265625 374 122.043945312 442 c 128,-1,11
 189.743164062 510 189.743164062 510 283.743164062 510 c 0,12,13
 343.743164062 510 343.743164062 510 378.739257812 477.5 c 128,-1,14
 413.736328125 445 413.736328125 445 421.807617188 389 c 1,15,-1
 452.434570312 500 l 1,0,-1
275.166992188 135 m 0,16,17
 339.166992188 135 339.166992188 135 366.330078125 231 c 1,18,-1
 375.103515625 269 l 1,19,20
 391.498046875 366 391.498046875 366 328.498046875 366 c 0,21,22
 256.498046875 366 256.498046875 366 229.716796875 250 c 0,23,24
 203.166992188 135 203.166992188 135 275.166992188 135 c 0,16,17
EndSplineSet
Substitution2: "'smcp' Lowercase to Small Capitals lookup 12 subtable" q.sc
Substitution2: "'aalt' Access All Alternates lookup 0 subtable" q.sc
EndChar

StartChar: r
Encoding: 114 114 85
Width: 437
GlyphClass: 2
Flags: W
AnchorPoint: "Anchor-0" 80 0 basechar 0
LayerCount: 2
Fore
SplineSet
438.743164062 510 m 0,0,1
 473.743164062 510 473.743164062 510 488.97265625 498 c 1,2,-1
 431.416992188 331 l 1,3,4
 414.880859375 346 414.880859375 346 371.880859375 346 c 0,5,6
 324.880859375 346 324.880859375 346 289.993164062 320.5 c 128,-1,7
 255.106445312 295 255.106445312 295 243.793945312 246 c 2,8,-1
 187 0 l 1,9,-1
 -15 0 l 1,10,-1
 100.434570312 500 l 1,11,-1
 281.434570312 500 l 1,12,-1
 260.422851562 383 l 1,13,14
 326.743164062 510 326.743164062 510 438.743164062 510 c 0,0,1
EndSplineSet
Substitution2: "Single Substitution lookup 57 subtable" r.swsh
Substitution2: "'swsh' Swash lookup 38 subtable" r.swsh
Substitution2: "'smcp' Lowercase to Small Capitals lookup 12 subtable" r.sc
AlternateSubs2: "'aalt' Access All Alternates lookup 1 subtable" r.sc r.swsh
EndChar

StartChar: s
Encoding: 115 115 86
Width: 535
GlyphClass: 2
Flags: W
AnchorPoint: "Anchor-0" 210 0 basechar 0
LayerCount: 2
Fore
SplineSet
202.69140625 -10 m 0,0,1
 25.69140625 -10 25.69140625 -10 -33.6083984375 71 c 1,2,-1
 86.787109375 181 l 1,3,4
 125.01171875 117 125.01171875 117 220.01171875 117 c 0,5,6
 278.01171875 117 278.01171875 117 283.552734375 141 c 0,7,8
 288.400390625 162 288.400390625 162 210.325195312 179 c 0,9,10
 105.173828125 200 105.173828125 200 65.677734375 239 c 128,-1,11
 26.181640625 278 26.181640625 278 40.4951171875 340 c 0,12,13
 56.1943359375 408 56.1943359375 408 133.96875 459 c 128,-1,14
 211.743164062 510 211.743164062 510 336.743164062 510 c 0,15,16
 499.743164062 510 499.743164062 510 552.581054688 427 c 1,17,-1
 433.801757812 324 l 1,18,19
 406.422851562 383 406.422851562 383 315.422851562 383 c 0,20,21
 252.422851562 383 252.422851562 383 246.189453125 356 c 0,22,23
 241.571289062 336 241.571289062 336 314.801757812 324 c 0,24,25
 423.876953125 307 423.876953125 307 465.48828125 268.5 c 128,-1,26
 507.099609375 230 507.099609375 230 491.400390625 162 c 0,27,28
 474.0859375 87 474.0859375 87 399.888671875 38.5 c 128,-1,29
 325.69140625 -10 325.69140625 -10 202.69140625 -10 c 0,0,1
EndSplineSet
Substitution2: "'hist' Historical Forms lookup 44 subtable" longs
Substitution2: "'smcp' Lowercase to Small Capitals lookup 12 subtable" s.sc
AlternateSubs2: "'aalt' Access All Alternates lookup 1 subtable" s.sc longs
EndChar

StartChar: t
Encoding: 116 116 87
Width: 440
GlyphClass: 2
Flags: W
AnchorPoint: "Anchor-0" 188 0 basechar 0
LayerCount: 2
Fore
SplineSet
389.245117188 144 m 1,0,-1
 375.002929688 26 l 1,1,2
 312.69140625 -10 312.69140625 -10 221.69140625 -10 c 0,3,4
 121.69140625 -10 121.69140625 -10 80.92578125 30 c 128,-1,5
 40.1611328125 70 40.1611328125 70 60.9384765625 160 c 2,6,-1
 107.34375 361 l 1,7,-1
 26.34375 361 l 1,8,-1
 58.4345703125 500 l 1,9,-1
 139.434570312 500 l 1,10,-1
 164.598632812 609 l 1,11,-1
 379.52734375 665 l 1,12,-1
 341.434570312 500 l 1,13,-1
 478.434570312 500 l 1,14,-1
 446.34375 361 l 1,15,-1
 309.34375 361 l 1,16,-1
 270.327148438 192 l 2,17,18
 262.24609375 157 262.24609375 157 274.283203125 142 c 128,-1,19
 286.3203125 127 286.3203125 127 318.3203125 127 c 0,20,21
 356.3203125 127 356.3203125 127 389.245117188 144 c 1,0,-1
EndSplineSet
Substitution2: "Single Substitution lookup 57 subtable" t.swsh
Substitution2: "'swsh' Swash lookup 38 subtable" t.swsh
Substitution2: "'smcp' Lowercase to Small Capitals lookup 12 subtable" t.sc
AlternateSubs2: "'aalt' Access All Alternates lookup 1 subtable" t.sc t.swsh
EndChar

StartChar: u
Encoding: 117 117 88
Width: 620
GlyphClass: 2
Flags: W
LayerCount: 2
Fore
SplineSet
420.434570312 500 m 1,0,-1
 622.434570312 500 l 1,1,-1
 507 0 l 1,2,-1
 325 0 l 1,3,-1
 342.85546875 99 l 1,4,5
 272.69140625 -10 272.69140625 -10 146.69140625 -10 c 0,6,7
 -19.30859375 -10 -19.30859375 -10 20.8623046875 164 c 2,8,-1
 98.4345703125 500 l 1,9,-1
 300.434570312 500 l 1,10,-1
 234.40625 214 l 2,11,12
 225.170898438 174 225.170898438 174 233.861328125 157.5 c 128,-1,13
 242.552734375 141 242.552734375 141 269.552734375 141 c 0,14,15
 337.552734375 141 337.552734375 141 359.715820312 237 c 2,16,-1
 420.434570312 500 l 1,0,-1
EndSplineSet
Substitution2: "'smcp' Lowercase to Small Capitals lookup 12 subtable" u.sc
Substitution2: "'aalt' Access All Alternates lookup 0 subtable" u.sc
EndChar

StartChar: v
Encoding: 118 118 89
Width: 575
GlyphClass: 2
Flags: W
LayerCount: 2
Fore
SplineSet
423.434570312 500 m 1,0,-1
 632.434570312 500 l 1,1,-1
 347 0 l 1,2,-1
 100 0 l 1,3,-1
 45.4345703125 500 l 1,4,-1
 256.434570312 500 l 1,5,-1
 252.858398438 125 l 1,6,-1
 423.434570312 500 l 1,0,-1
EndSplineSet
Substitution2: "'smcp' Lowercase to Small Capitals lookup 12 subtable" v.sc
Substitution2: "'aalt' Access All Alternates lookup 0 subtable" v.sc
EndChar

StartChar: w
Encoding: 119 119 90
Width: 926
GlyphClass: 2
Flags: W
LayerCount: 2
Fore
SplineSet
767.434570312 500 m 1,0,-1
 977.434570312 500 l 1,1,-1
 719 0 l 1,2,-1
 472 0 l 1,3,-1
 463.56640625 284 l 1,4,-1
 326 0 l 1,5,-1
 79 0 l 1,6,-1
 51.4345703125 500 l 1,7,-1
 261.434570312 500 l 1,8,-1
 247.090820312 139 l 1,9,-1
 415.434570312 500 l 1,10,-1
 613.434570312 500 l 1,11,-1
 615.090820312 139 l 1,12,-1
 767.434570312 500 l 1,0,-1
EndSplineSet
Substitution2: "'smcp' Lowercase to Small Capitals lookup 12 subtable" w.sc
Substitution2: "'aalt' Access All Alternates lookup 0 subtable" w.sc
EndChar

StartChar: x
Encoding: 120 120 91
Width: 609
GlyphClass: 2
Flags: W
LayerCount: 2
Fore
SplineSet
548 0 m 1,0,-1
 323 0 l 1,1,-1
 275.862304688 164 l 1,2,-1
 154 0 l 1,3,-1
 -68 0 l 1,4,-1
 167.640625 254 l 1,5,-1
 53.4345703125 500 l 1,6,-1
 278.434570312 500 l 1,7,-1
 321.418945312 344 l 1,8,-1
 438.434570312 500 l 1,9,-1
 659.434570312 500 l 1,10,-1
 430.948242188 251 l 1,11,-1
 548 0 l 1,0,-1
EndSplineSet
Substitution2: "'smcp' Lowercase to Small Capitals lookup 12 subtable" x.sc
Substitution2: "'aalt' Access All Alternates lookup 0 subtable" x.sc
EndChar

StartChar: y
Encoding: 121 121 92
Width: 583
GlyphClass: 2
Flags: W
LayerCount: 2
Fore
SplineSet
639.434570312 500 m 1,0,-1
 367.92578125 30 l 2,1,2
 290.758789062 -105 290.758789062 -105 215.561523438 -160 c 128,-1,3
 140.36328125 -215 140.36328125 -215 31.36328125 -215 c 0,4,5
 -58.63671875 -215 -58.63671875 -215 -106.556640625 -180 c 1,6,-1
 -37.54296875 -50 l 1,7,8
 -13.3916015625 -71 -13.3916015625 -71 45.6083984375 -71 c 0,9,10
 76.6083984375 -71 76.6083984375 -71 95.455078125 -63 c 128,-1,11
 114.302734375 -55 114.302734375 -55 127.150390625 -34 c 2,12,-1
 138.537109375 -15 l 1,13,-1
 110.3203125 127 l 1,14,-1
 50.4345703125 500 l 1,15,-1
 272.434570312 500 l 1,16,-1
 269.869140625 229 l 1,17,-1
 265.2421875 118 l 1,18,-1
 315.561523438 232 l 1,19,-1
 440.434570312 500 l 1,20,-1
 639.434570312 500 l 1,0,-1
EndSplineSet
Substitution2: "Single Substitution lookup 57 subtable" y.swsh
Substitution2: "'swsh' Swash lookup 38 subtable" y.swsh
Substitution2: "'smcp' Lowercase to Small Capitals lookup 12 subtable" y.sc
AlternateSubs2: "'aalt' Access All Alternates lookup 1 subtable" y.sc y.swsh
EndChar

StartChar: z
Encoding: 122 122 93
Width: 508
GlyphClass: 2
Flags: W
LayerCount: 2
Fore
SplineSet
-35 0 m 1,0,-1
 -7.5263671875 119 l 1,1,-1
 212.954101562 316 l 1,2,-1
 274.266601562 365 l 1,3,-1
 197.8046875 363 l 1,4,-1
 48.8046875 363 l 1,5,-1
 80.4345703125 500 l 1,6,-1
 529.434570312 500 l 1,7,-1
 501.9609375 381 l 1,8,-1
 282.94140625 186 l 1,9,-1
 220.166992188 135 l 1,10,-1
 305.62890625 137 l 1,11,-1
 454.62890625 137 l 1,12,-1
 423 0 l 1,13,-1
 -35 0 l 1,0,-1
EndSplineSet
Substitution2: "'smcp' Lowercase to Small Capitals lookup 12 subtable" z.sc
Substitution2: "'aalt' Access All Alternates lookup 0 subtable" z.sc
EndChar

StartChar: braceleft
Encoding: 123 123 94
Width: 445
GlyphClass: 2
Flags: W
LayerCount: 2
Fore
SplineSet
257.309570312 23 m 2,0,1
 245.997070312 -26 245.997070312 -26 267.034179688 -47.5 c 128,-1,2
 288.0703125 -69 288.0703125 -69 346.0703125 -69 c 1,3,-1
 315.672851562 -192 l 1,4,5
 170.672851562 -192 170.672851562 -192 119.75390625 -150.5 c 128,-1,6
 68.8349609375 -109 68.8349609375 -109 92.615234375 -6 c 2,7,-1
 117.779296875 103 l 2,8,9
 130.708007812 159 130.708007812 159 110.749023438 183 c 128,-1,10
 90.7900390625 207 90.7900390625 207 29.7900390625 207 c 1,11,-1
 58.4169921875 331 l 1,12,13
 119.416992188 331 119.416992188 331 150.458007812 355 c 128,-1,14
 181.499023438 379 181.499023438 379 194.427734375 435 c 2,15,-1
 219.823242188 545 l 2,16,17
 243.602539062 648 243.602539062 648 313.68359375 689.5 c 128,-1,18
 383.764648438 731 383.764648438 731 528.764648438 731 c 1,19,-1
 502.13671875 607 l 1,20,21
 444.13671875 607 444.13671875 607 413.172851562 585.5 c 128,-1,22
 382.209960938 564 382.209960938 564 371.127929688 516 c 2,23,-1
 341.807617188 389 l 2,24,25
 320.798828125 298 320.798828125 298 221.103515625 269 c 1,26,27
 307.408203125 240 307.408203125 240 286.399414062 149 c 2,28,-1
 257.309570312 23 l 2,0,1
EndSplineSet
Substitution2: "'case' Case-Sensitive Forms lookup 29 subtable" braceleft.case
Substitution2: "'aalt' Access All Alternates lookup 0 subtable" braceleft.case
EndChar

StartChar: bar
Encoding: 124 124 95
Width: 348
GlyphClass: 2
Flags: W
LayerCount: 2
Fore
SplineSet
361.993164062 706 m 1,0,-1
 160.213867188 -168 l 1,1,-1
 -17.7861328125 -168 l 1,2,-1
 183.993164062 706 l 1,3,-1
 361.993164062 706 l 1,0,-1
EndSplineSet
Substitution2: "'case' Case-Sensitive Forms lookup 29 subtable" bar.case
Substitution2: "'aalt' Access All Alternates lookup 0 subtable" bar.case
EndChar

StartChar: braceright
Encoding: 125 125 96
Width: 445
GlyphClass: 2
Flags: W
LayerCount: 2
Fore
SplineSet
323.427734375 435 m 2,0,1
 310.499023438 379 310.499023438 379 330.458007812 355 c 128,-1,2
 350.416992188 331 350.416992188 331 411.416992188 331 c 1,3,-1
 382.790039062 207 l 1,4,5
 321.790039062 207 321.790039062 207 290.749023438 183 c 128,-1,6
 259.708007812 159 259.708007812 159 246.779296875 103 c 2,7,-1
 221.615234375 -6 l 2,8,9
 197.834960938 -109 197.834960938 -109 127.75390625 -150.5 c 128,-1,10
 57.6728515625 -192 57.6728515625 -192 -87.3271484375 -192 c 1,11,-1
 -61.9296875 -69 l 1,12,13
 -3.9296875 -69 -3.9296875 -69 27.5341796875 -47.5 c 128,-1,14
 58.9970703125 -26 58.9970703125 -26 70.3095703125 23 c 2,15,-1
 99.3994140625 149 l 2,16,17
 120.408203125 240 120.408203125 240 219.103515625 269 c 1,18,19
 133.798828125 298 133.798828125 298 154.807617188 389 c 2,20,-1
 184.127929688 516 l 2,21,22
 195.209960938 564 195.209960938 564 173.672851562 585.5 c 128,-1,23
 152.13671875 607 152.13671875 607 94.13671875 607 c 1,24,-1
 125.764648438 731 l 1,25,26
 270.764648438 731 270.764648438 731 321.68359375 689.5 c 128,-1,27
 372.602539062 648 372.602539062 648 348.823242188 545 c 2,28,-1
 323.427734375 435 l 2,0,1
EndSplineSet
Substitution2: "'case' Case-Sensitive Forms lookup 29 subtable" braceright.case
Substitution2: "'aalt' Access All Alternates lookup 0 subtable" braceright.case
EndChar

StartChar: asciitilde
Encoding: 126 126 97
Width: 617
GlyphClass: 2
Flags: W
LayerCount: 2
Fore
SplineSet
611.3515625 439 m 1,0,1
 554.869140625 229 554.869140625 229 391.869140625 229 c 0,2,3
 350.869140625 229 350.869140625 229 322.83203125 244 c 128,-1,4
 294.794921875 259 294.794921875 259 276.2578125 274 c 128,-1,5
 257.720703125 289 257.720703125 289 240.720703125 289 c 0,6,7
 204.720703125 289 204.720703125 289 185.485351562 236 c 1,8,-1
 33.4853515625 236 l 1,9,10
 90.966796875 446 90.966796875 446 253.966796875 446 c 0,11,12
 294.966796875 446 294.966796875 446 323.00390625 431 c 128,-1,13
 351.041015625 416 351.041015625 416 369.078125 401 c 128,-1,14
 387.115234375 386 387.115234375 386 404.115234375 386 c 0,15,16
 440.115234375 386 440.115234375 386 459.3515625 439 c 1,17,-1
 611.3515625 439 l 1,0,1
EndSplineSet
EndChar

StartChar: exclamdown
Encoding: 161 161 99
Width: 310
GlyphClass: 2
Flags: W
LayerCount: 2
Fore
SplineSet
167.494140625 327 m 0,0,1
 116.494140625 327 116.494140625 327 93.4189453125 350.5 c 128,-1,2
 70.3447265625 374 70.3447265625 374 80.2724609375 417 c 128,-1,3
 90.19921875 460 90.19921875 460 124.240234375 484 c 128,-1,4
 158.28125 508 158.28125 508 209.28125 508 c 0,5,6
 259.28125 508 259.28125 508 282.240234375 484 c 128,-1,7
 305.19921875 460 305.19921875 460 295.272460938 417 c 128,-1,8
 285.344726562 374 285.344726562 374 251.418945312 350.5 c 128,-1,9
 217.494140625 327 217.494140625 327 167.494140625 327 c 0,0,1
-50.9384765625 -160 m 1,10,-1
 -7.7666015625 27 l 1,11,-1
 73.1044921875 282 l 1,12,-1
 240.104492188 282 l 1,13,-1
 203.233398438 27 l 1,14,-1
 160.061523438 -160 l 1,15,-1
 -50.9384765625 -160 l 1,10,-1
EndSplineSet
Substitution2: "'case' Case-Sensitive Forms lookup 29 subtable" exclamdown.case
Substitution2: "'smcp' Lowercase to Small Capitals lookup 12 subtable" exclamdown.sc
Substitution2: "'c2sc' Capitals to Small Capitals lookup 11 subtable" exclamdown.sc
AlternateSubs2: "'aalt' Access All Alternates lookup 1 subtable" exclamdown.sc exclamdown.case
EndChar

StartChar: cent
Encoding: 162 162 100
Width: 604
GlyphClass: 2
Flags: W
LayerCount: 2
Fore
SplineSet
304.087890625 113 m 1,0,1
 369.858398438 125 369.858398438 125 398.25 196 c 1,2,-1
 529.70703125 146 l 1,3,4
 513.469726562 80 513.469726562 80 446.657226562 37.5 c 128,-1,5
 379.845703125 -5 379.845703125 -5 275.921875 -9 c 1,6,-1
 254.913085938 -100 l 1,7,-1
 195.913085938 -100 l 1,8,-1
 216.921875 -9 l 1,9,10
 100 0 100 0 52.9677734375 67 c 128,-1,11
 5.9365234375 134 5.9365234375 134 32.716796875 250 c 0,12,13
 59.728515625 367 59.728515625 367 139.3125 434.5 c 128,-1,14
 218.895507812 502 218.895507812 502 336.51171875 509 c 1,15,-1
 357.520507812 600 l 1,16,-1
 416.520507812 600 l 1,17,-1
 395.51171875 509 l 1,18,19
 505.126953125 503 505.126953125 503 546.853515625 458.5 c 128,-1,20
 588.579101562 414 588.579101562 414 576.111328125 347 c 1,21,-1
 418.567382812 297 l 1,22,23
 427.114257812 373 427.114257812 373 367.115234375 386 c 1,24,-1
 304.087890625 113 l 1,0,1
207.254882812 248 m 0,25,26
 180.244140625 131 180.244140625 131 245.549804688 115 c 1,27,-1
 307.883789062 385 l 1,28,29
 235.190429688 369 235.190429688 369 207.254882812 248 c 0,25,26
EndSplineSet
Substitution2: "'tnum' Tabular Numbers lookup 26 subtable" cent.tf
Substitution2: "'aalt' Access All Alternates lookup 0 subtable" cent.tf
EndChar

StartChar: sterling
Encoding: 163 163 101
Width: 604
GlyphClass: 2
Flags: W
LayerCount: 2
Fore
SplineSet
546.479492188 184 m 1,0,1
 531.39453125 97 531.39453125 97 485.04296875 43.5 c 128,-1,2
 438.69140625 -10 438.69140625 -10 364.69140625 -10 c 0,3,4
 300.69140625 -10 300.69140625 -10 236.850585938 47 c 1,5,6
 168.69140625 -10 168.69140625 -10 86.69140625 -10 c 0,7,8
 31.69140625 -10 31.69140625 -10 1.962890625 15 c 128,-1,9
 -27.765625 40 -27.765625 40 -17.3759765625 85 c 0,10,11
 -6.755859375 131 -6.755859375 131 36.400390625 155.5 c 128,-1,12
 79.556640625 180 79.556640625 180 136.556640625 180 c 0,13,14
 165.556640625 180 165.556640625 180 188.86328125 177 c 1,15,16
 195.791015625 220 195.791015625 220 183.1796875 265 c 1,17,-1
 37.1796875 265 l 1,18,-1
 60.728515625 367 l 1,19,-1
 139.728515625 367 l 1,20,21
 117.426757812 422 117.426757812 422 130.124023438 477 c 0,22,23
 148.82421875 558 148.82421875 558 224.752929688 614 c 128,-1,24
 300.681640625 670 300.681640625 670 415.681640625 670 c 0,25,26
 516.681640625 670 516.681640625 670 561.138671875 626.5 c 128,-1,27
 605.595703125 583 605.595703125 583 605.125 490 c 1,28,-1
 431.2734375 430 l 1,29,30
 437.509765625 483 437.509765625 483 423.319335938 506 c 128,-1,31
 409.12890625 529 409.12890625 529 375.12890625 529 c 0,32,33
 347.12890625 529 347.12890625 529 326.8203125 512.5 c 128,-1,34
 306.510742188 496 306.510742188 496 299.353515625 465 c 0,35,36
 292.889648438 437 292.889648438 437 316.729492188 380 c 0,37,38
 320.8828125 372 320.8828125 372 321.728515625 367 c 1,39,-1
 515.728515625 367 l 1,40,-1
 492.1796875 265 l 1,41,-1
 344.1796875 265 l 1,42,43
 342.870117188 242 342.870117188 242 336.174804688 213 c 0,44,45
 326.708984375 172 326.708984375 172 305.936523438 134 c 1,46,47
 334.396484375 123 334.396484375 123 360.396484375 123 c 0,48,49
 417.396484375 123 417.396484375 123 431.173828125 200 c 1,50,-1
 546.479492188 184 l 1,0,1
106.390625 58 m 0,51,52
 145.390625 58 145.390625 58 166.548828125 102 c 1,53,54
 144.087890625 113 144.087890625 113 118.087890625 113 c 0,55,56
 82.087890625 113 82.087890625 113 75.8544921875 86 c 0,57,58
 69.390625 58 69.390625 58 106.390625 58 c 0,51,52
EndSplineSet
Substitution2: "'tnum' Tabular Numbers lookup 26 subtable" sterling.tf
Substitution2: "'aalt' Access All Alternates lookup 0 subtable" sterling.tf
EndChar

StartChar: currency
Encoding: 164 164 102
Width: 604
GlyphClass: 2
Flags: W
LayerCount: 2
Fore
SplineSet
528.186523438 330 m 0,0,1
 516.181640625 278 516.181640625 278 486.25390625 235 c 1,2,-1
 567.399414062 149 l 1,3,-1
 425.849609375 34 l 1,4,-1
 359.859375 138 l 1,5,6
 314.166015625 122 314.166015625 122 267.166015625 122 c 0,7,8
 217.166015625 122 217.166015625 122 179.090820312 139 c 1,9,-1
 64.849609375 34 l 1,10,-1
 -23.6005859375 149 l 1,11,-1
 97.4853515625 236 l 1,12,13
 88.6435546875 280 88.6435546875 280 100.186523438 330 c 128,-1,14
 111.729492188 380 111.729492188 380 140.657226562 423 c 1,15,-1
 59.7431640625 510 l 1,16,-1
 201.061523438 624 l 1,17,-1
 266.051757812 520 l 1,18,19
 312.9765625 537 312.9765625 537 362.9765625 537 c 0,20,21
 409.9765625 537 409.9765625 537 449.282226562 521 c 1,22,-1
 562.061523438 624 l 1,23,-1
 650.743164062 510 l 1,24,-1
 530.657226562 423 l 1,25,26
 539.499023438 379 539.499023438 379 528.186523438 330 c 0,0,1
299.025390625 260 m 0,27,28
 329.025390625 260 329.025390625 260 351.412109375 279 c 128,-1,29
 373.798828125 298 373.798828125 298 381.186523438 330 c 0,30,31
 388.34375 361 388.34375 361 374.729492188 380 c 128,-1,32
 361.116210938 399 361.116210938 399 331.116210938 399 c 0,33,34
 300.116210938 399 300.116210938 399 277.229492188 380 c 128,-1,35
 254.34375 361 254.34375 361 247.186523438 330 c 0,36,37
 239.798828125 298 239.798828125 298 253.912109375 279 c 128,-1,38
 268.025390625 260 268.025390625 260 299.025390625 260 c 0,27,28
EndSplineSet
Substitution2: "'tnum' Tabular Numbers lookup 26 subtable" currency.tf
Substitution2: "'aalt' Access All Alternates lookup 0 subtable" currency.tf
EndChar

StartChar: yen
Encoding: 165 165 103
Width: 604
GlyphClass: 2
Flags: W
LayerCount: 2
Fore
SplineSet
420.876953125 307 m 1,0,-1
 470.107421875 308 l 1,1,-1
 567.107421875 308 l 1,2,-1
 553.254882812 248 l 1,3,-1
 390.254882812 248 l 1,4,-1
 375.7109375 185 l 1,5,-1
 538.7109375 185 l 1,6,-1
 525.3203125 127 l 1,7,-1
 362.3203125 127 l 1,8,-1
 333 0 l 1,9,-1
 143 0 l 1,10,-1
 172.3203125 127 l 1,11,-1
 9.3203125 127 l 1,12,-1
 22.7109375 185 l 1,13,-1
 185.7109375 185 l 1,14,-1
 200.254882812 248 l 1,15,-1
 37.2548828125 248 l 1,16,-1
 51.107421875 308 l 1,17,-1
 148.107421875 308 l 1,18,-1
 196.876953125 307 l 1,19,-1
 103.373046875 660 l 1,20,-1
 287.373046875 660 l 1,21,-1
 314.891601562 463 l 1,22,-1
 319.881835938 359 l 1,23,-1
 321.881835938 359 l 1,24,-1
 375.123046875 464 l 1,25,-1
 493.373046875 660 l 1,26,-1
 677.373046875 660 l 1,27,-1
 420.876953125 307 l 1,0,-1
EndSplineSet
Substitution2: "'tnum' Tabular Numbers lookup 26 subtable" yen.tf
Substitution2: "'aalt' Access All Alternates lookup 0 subtable" yen.tf
EndChar

StartChar: brokenbar
Encoding: 166 166 104
Width: 279
GlyphClass: 2
Flags: W
LayerCount: 2
Fore
SplineSet
327.993164062 706 m 1,0,-1
 239.108398438 321 l 1,1,-1
 60.1083984375 321 l 1,2,-1
 148.993164062 706 l 1,3,-1
 327.993164062 706 l 1,0,-1
215.329101562 218 m 1,4,-1
 126.213867188 -168 l 1,5,-1
 -52.7861328125 -168 l 1,6,-1
 36.3291015625 218 l 1,7,-1
 215.329101562 218 l 1,4,-1
EndSplineSet
EndChar

StartChar: section
Encoding: 167 167 105
Width: 631
GlyphClass: 2
Flags: W
LayerCount: 2
Fore
SplineSet
611.643554688 280 m 0,0,1
 589.7109375 185 589.7109375 185 506.244140625 131 c 1,2,3
 512.010742188 104 512.010742188 104 503.69921875 68 c 0,4,5
 484.075195312 -17 484.075195312 -17 409.83984375 -63.5 c 128,-1,6
 335.604492188 -110 335.604492188 -110 222.604492188 -110 c 0,7,8
 133.604492188 -110 133.604492188 -110 84.798828125 -87.5 c 128,-1,9
 35.9931640625 -65 35.9931640625 -65 4.3056640625 -16 c 1,10,-1
 123.776367188 77 l 1,11,12
 142.158203125 44 142.158203125 44 170.310546875 29.5 c 128,-1,13
 198.462890625 15 198.462890625 15 249.462890625 15 c 0,14,15
 348.462890625 15 348.462890625 15 356.3125 49 c 0,16,17
 360.9296875 69 360.9296875 69 336.584960938 80.5 c 128,-1,18
 312.240234375 92 312.240234375 92 244.625 98 c 0,19,20
 109.165039062 109 109.165039062 109 55.361328125 151 c 128,-1,21
 1.5576171875 193 1.5576171875 193 19.103515625 269 c 0,22,23
 40.57421875 362 40.57421875 362 123.272460938 417 c 1,24,25
 117.966796875 446 117.966796875 446 126.047851562 481 c 0,26,27
 145.90234375 567 145.90234375 567 222.791992188 618.5 c 128,-1,28
 299.681640625 670 299.681640625 670 411.681640625 670 c 0,29,30
 500.681640625 670 500.681640625 670 548.987304688 647.5 c 128,-1,31
 597.29296875 625 597.29296875 625 627.98046875 576 c 1,32,-1
 509.509765625 483 l 1,33,34
 490.127929688 516 490.127929688 516 462.475585938 530.5 c 128,-1,35
 434.823242188 545 434.823242188 545 383.823242188 545 c 0,36,37
 335.823242188 545 335.823242188 545 307.322265625 532 c 128,-1,38
 278.8203125 519 278.8203125 519 274.203125 499 c 0,39,40
 269.81640625 480 269.81640625 480 293.77734375 469 c 128,-1,41
 317.737304688 458 317.737304688 458 385.12109375 451 c 0,42,43
 520.3515625 439 520.3515625 439 574.654296875 397 c 128,-1,44
 628.958007812 355 628.958007812 355 611.643554688 280 c 0,0,1
162.260742188 300 m 128,-1,46
 157.181640625 278 157.181640625 278 183.295898438 265.5 c 128,-1,47
 209.409179688 253 209.409179688 253 281.793945312 246 c 0,48,49
 379.485351562 236 379.485351562 236 432.944335938 212 c 1,50,51
 463.407226562 227 463.407226562 227 468.486328125 249 c 128,-1,52
 473.565429688 271 473.565429688 271 447.451171875 283.5 c 128,-1,53
 421.336914062 296 421.336914062 296 348.953125 303 c 0,54,55
 250.03125 312 250.03125 312 196.802734375 337 c 1,56,45
 167.33984375 322 167.33984375 322 162.260742188 300 c 128,-1,46
EndSplineSet
EndChar

StartChar: dieresis
Encoding: 168 168 106
Width: 500
GlyphClass: 2
Flags: W
LayerCount: 2
Fore
SplineSet
236.301757812 716 m 0,0,1
 282.301757812 716 282.301757812 716 302.107421875 693.5 c 128,-1,2
 321.912109375 671 321.912109375 671 312.677734375 631 c 0,3,4
 303.211914062 590 303.211914062 590 273.1328125 568 c 128,-1,5
 243.053710938 546 243.053710938 546 197.053710938 546 c 0,6,7
 153.053710938 546 153.053710938 546 133.249023438 568.5 c 128,-1,8
 113.443359375 591 113.443359375 591 122.677734375 631 c 128,-1,9
 131.912109375 671 131.912109375 671 162.107421875 693.5 c 128,-1,10
 192.301757812 716 192.301757812 716 236.301757812 716 c 0,0,1
465.301757812 716 m 0,11,12
 511.301757812 716 511.301757812 716 531.107421875 693.5 c 128,-1,13
 550.912109375 671 550.912109375 671 541.677734375 631 c 0,14,15
 532.211914062 590 532.211914062 590 502.1328125 568 c 128,-1,16
 472.053710938 546 472.053710938 546 426.053710938 546 c 0,17,18
 382.053710938 546 382.053710938 546 362.249023438 568.5 c 128,-1,19
 342.443359375 591 342.443359375 591 351.677734375 631 c 128,-1,20
 360.912109375 671 360.912109375 671 391.107421875 693.5 c 128,-1,21
 421.301757812 716 421.301757812 716 465.301757812 716 c 0,11,12
EndSplineSet
EndChar

StartChar: copyright
Encoding: 169 169 107
Width: 755
GlyphClass: 2
Flags: W
LayerCount: 2
Fore
SplineSet
467.681640625 670 m 0,0,1
 624.681640625 670 624.681640625 670 697.7109375 577 c 128,-1,2
 770.740234375 484 770.740234375 484 735.186523438 330 c 128,-1,3
 699.6328125 176 699.6328125 176 583.662109375 83 c 128,-1,4
 467.69140625 -10 467.69140625 -10 310.69140625 -10 c 0,5,6
 154.69140625 -10 154.69140625 -10 81.662109375 83 c 128,-1,7
 8.6328125 176 8.6328125 176 44.1865234375 330 c 128,-1,8
 79.740234375 484 79.740234375 484 195.7109375 577 c 128,-1,9
 311.681640625 670 311.681640625 670 467.681640625 670 c 0,0,1
446.903320312 580 m 0,10,11
 333.903320312 580 333.903320312 580 250.088867188 511.5 c 128,-1,12
 166.274414062 443 166.274414062 443 140.186523438 330 c 128,-1,13
 114.098632812 217 114.098632812 217 166.284179688 148.5 c 128,-1,14
 218.469726562 80 218.469726562 80 331.469726562 80 c 0,15,16
 445.469726562 80 445.469726562 80 529.284179688 148.5 c 128,-1,17
 613.098632812 217 613.098632812 217 639.186523438 330 c 128,-1,18
 665.274414062 443 665.274414062 443 613.088867188 511.5 c 128,-1,19
 560.903320312 580 560.903320312 580 446.903320312 580 c 0,10,11
426.744140625 523 m 0,20,21
 578.744140625 523 578.744140625 523 587.962890625 407 c 1,22,-1
 466.49609375 353 l 1,23,24
 460.8828125 372 460.8828125 372 448.614257812 379.5 c 128,-1,25
 436.345703125 387 436.345703125 387 409.345703125 387 c 0,26,27
 355.345703125 387 355.345703125 387 342.186523438 330 c 0,28,29
 328.795898438 272 328.795898438 272 383.795898438 272 c 0,30,31
 410.795898438 272 410.795898438 272 427.52734375 279.5 c 128,-1,32
 444.258789062 287 444.258789062 287 458.337890625 309 c 1,33,-1
 550.102539062 256 l 1,34,35
 508.865234375 190 508.865234375 190 462.631835938 163 c 128,-1,36
 416.3984375 136 416.3984375 136 337.3984375 136 c 0,37,38
 257.3984375 136 257.3984375 136 221.133789062 189 c 128,-1,39
 184.870117188 242 184.870117188 242 205.186523438 330 c 128,-1,40
 225.502929688 418 225.502929688 418 286.123046875 470.5 c 128,-1,41
 346.744140625 523 346.744140625 523 426.744140625 523 c 0,20,21
EndSplineSet
EndChar

StartChar: ordfeminine
Encoding: 170 170 108
Width: 458
GlyphClass: 2
Flags: W
LayerCount: 2
Fore
SplineSet
213.279296875 495 m 2,0,-1
 291.973632812 511 l 1,1,-1
 294.974609375 524 l 2,2,3
 304.440429688 565 304.440429688 565 264.440429688 565 c 0,4,5
 221.440429688 565 221.440429688 565 205.358398438 517 c 1,6,-1
 89.6689453125 540 l 1,7,8
 132.603515625 661 132.603515625 661 294.603515625 661 c 0,9,10
 472.603515625 661 472.603515625 661 439.8203125 519 c 2,11,-1
 415.579101562 414 l 2,12,13
 408.653320312 384 408.653320312 384 434.653320312 384 c 0,14,15
 447.653320312 384 447.653320312 384 454.345703125 387 c 1,16,-1
 426.03125 312 l 1,17,18
 400.029296875 299 400.029296875 299 362.029296875 299 c 0,19,20
 285.029296875 299 285.029296875 299 281.189453125 356 c 1,21,22
 231.029296875 299 231.029296875 299 140.029296875 299 c 0,23,24
 30.029296875 299 30.029296875 299 49.19140625 382 c 0,25,26
 59.5810546875 427 59.5810546875 427 97.6982421875 453.5 c 128,-1,27
 135.81640625 480 135.81640625 480 213.279296875 495 c 2,0,-1
218.9609375 381 m 0,28,29
 236.9609375 381 236.9609375 381 251.884765625 391.5 c 128,-1,30
 266.80859375 402 266.80859375 402 271.426757812 422 c 2,31,-1
 279.506835938 457 l 1,32,-1
 244.428710938 448 l 2,33,34
 200.889648438 437 200.889648438 437 194.194335938 408 c 0,35,36
 187.9609375 381 187.9609375 381 218.9609375 381 c 0,28,29
3.705078125 133 m 1,37,-1
 27.0234375 234 l 1,38,-1
 408.0234375 234 l 1,39,-1
 384.705078125 133 l 1,40,-1
 3.705078125 133 l 1,37,-1
EndSplineSet
EndChar

StartChar: guillemotleft
Encoding: 171 171 109
Width: 618
GlyphClass: 2
Flags: W
LayerCount: 2
Fore
SplineSet
365.430664062 461 m 1,0,-1
 202.1796875 265 l 1,1,-1
 274.9296875 69 l 1,2,-1
 105.9296875 69 l 1,3,-1
 26.1796875 265 l 1,4,-1
 196.430664062 461 l 1,5,-1
 365.430664062 461 l 1,0,-1
631.430664062 461 m 1,6,-1
 468.1796875 265 l 1,7,-1
 540.9296875 69 l 1,8,-1
 371.9296875 69 l 1,9,-1
 292.1796875 265 l 1,10,-1
 462.430664062 461 l 1,11,-1
 631.430664062 461 l 1,6,-1
EndSplineSet
Substitution2: "'case' Case-Sensitive Forms lookup 29 subtable" guillemotleft.case
Substitution2: "'aalt' Access All Alternates lookup 0 subtable" guillemotleft.case
EndChar

StartChar: logicalnot
Encoding: 172 172 110
Width: 604
GlyphClass: 2
Flags: W
LayerCount: 2
Fore
SplineSet
87.654296875 397 m 1,0,-1
 571.654296875 397 l 1,1,-1
 499.624023438 85 l 1,2,-1
 342.624023438 85 l 1,3,-1
 382.794921875 259 l 1,4,-1
 55.794921875 259 l 1,5,-1
 87.654296875 397 l 1,0,-1
EndSplineSet
EndChar

StartChar: uni00AD
Encoding: 173 173 111
Width: 534
GlyphClass: 2
Flags: W
LayerCount: 2
Fore
SplineSet
473.573242188 349 m 1,0,-1
 437.095703125 191 l 1,1,-1
 58.095703125 191 l 1,2,-1
 94.5732421875 349 l 1,3,-1
 473.573242188 349 l 1,0,-1
EndSplineSet
EndChar

StartChar: registered
Encoding: 174 174 112
Width: 755
GlyphClass: 2
Flags: W
LayerCount: 2
Fore
SplineSet
467.681640625 670 m 0,0,1
 624.681640625 670 624.681640625 670 697.7109375 577 c 128,-1,2
 770.740234375 484 770.740234375 484 735.186523438 330 c 128,-1,3
 699.6328125 176 699.6328125 176 583.662109375 83 c 128,-1,4
 467.69140625 -10 467.69140625 -10 310.69140625 -10 c 0,5,6
 154.69140625 -10 154.69140625 -10 81.662109375 83 c 128,-1,7
 8.6328125 176 8.6328125 176 44.1865234375 330 c 128,-1,8
 79.740234375 484 79.740234375 484 195.7109375 577 c 128,-1,9
 311.681640625 670 311.681640625 670 467.681640625 670 c 0,0,1
331.469726562 80 m 0,10,11
 445.469726562 80 445.469726562 80 529.284179688 148.5 c 128,-1,12
 613.098632812 217 613.098632812 217 639.186523438 330 c 128,-1,13
 665.274414062 443 665.274414062 443 613.088867188 511.5 c 128,-1,14
 560.903320312 580 560.903320312 580 446.903320312 580 c 0,15,16
 333.903320312 580 333.903320312 580 250.088867188 511.5 c 128,-1,17
 166.274414062 443 166.274414062 443 140.186523438 330 c 128,-1,18
 114.098632812 217 114.098632812 217 166.284179688 148.5 c 128,-1,19
 218.469726562 80 218.469726562 80 331.469726562 80 c 0,10,11
568.423828125 396 m 0,20,21
 549.723632812 315 549.723632812 315 468.028320312 286 c 1,22,-1
 521.553710938 154 l 1,23,-1
 383.553710938 154 l 1,24,-1
 355.48828125 275 l 1,25,-1
 342.48828125 275 l 1,26,-1
 314.553710938 154 l 1,27,-1
 201.553710938 154 l 1,28,-1
 285.127929688 516 l 1,29,-1
 468.127929688 516 l 2,30,31
 522.127929688 516 522.127929688 516 551.278320312 482 c 128,-1,32
 580.428710938 448 580.428710938 448 568.423828125 396 c 0,20,21
376.1953125 421 m 1,33,-1
 360.265625 352 l 1,34,-1
 399.265625 352 l 2,35,36
 442.265625 352 442.265625 352 450.115234375 386 c 0,37,38
 458.1953125 421 458.1953125 421 415.1953125 421 c 2,39,-1
 376.1953125 421 l 1,33,-1
EndSplineSet
Substitution2: "'ordn' Ordinals lookup 22 subtable" registeredsuperior
Substitution2: "'sups' Superscript lookup 15 subtable" registeredsuperior
Substitution2: "'aalt' Access All Alternates lookup 0 subtable" registeredsuperior
EndChar

StartChar: macron
Encoding: 175 175 113
Width: 500
GlyphClass: 2
Flags: W
LayerCount: 2
Fore
SplineSet
532.528320312 678 m 1,0,-1
 505.055664062 559 l 1,1,-1
 125.055664062 559 l 1,2,-1
 152.528320312 678 l 1,3,-1
 532.528320312 678 l 1,0,-1
EndSplineSet
EndChar

StartChar: degree
Encoding: 176 176 114
Width: 508
GlyphClass: 2
Flags: W
LayerCount: 2
Fore
SplineSet
255.3359375 283 m 128,-1,1
 156.3359375 283 156.3359375 283 110.840820312 335 c 128,-1,2
 65.345703125 387 65.345703125 387 86.1240234375 477 c 0,3,4
 106.671875 566 106.671875 566 176.176757812 618 c 128,-1,5
 245.681640625 670 245.681640625 670 344.681640625 670 c 128,-1,6
 443.681640625 670 443.681640625 670 489.176757812 618 c 128,-1,7
 534.671875 566 534.671875 566 514.124023438 477 c 0,8,9
 493.345703125 387 493.345703125 387 423.840820312 335 c 128,-1,0
 354.3359375 283 354.3359375 283 255.3359375 283 c 128,-1,1
283.962890625 407 m 128,-1,11
 314.962890625 407 314.962890625 407 339.46484375 426.5 c 128,-1,12
 363.966796875 446 363.966796875 446 371.124023438 477 c 128,-1,13
 378.28125 508 378.28125 508 363.16796875 527 c 128,-1,14
 348.053710938 546 348.053710938 546 316.053710938 546 c 128,-1,15
 284.053710938 546 284.053710938 546 260.16796875 527 c 128,-1,16
 236.28125 508 236.28125 508 229.124023438 477 c 128,-1,17
 221.966796875 446 221.966796875 446 237.46484375 426.5 c 128,-1,10
 252.962890625 407 252.962890625 407 283.962890625 407 c 128,-1,11
EndSplineSet
EndChar

StartChar: plusminus
Encoding: 177 177 115
Width: 604
GlyphClass: 2
Flags: W
LayerCount: 2
Fore
SplineSet
422.818359375 493 m 1,0,-1
 605.818359375 493 l 1,1,-1
 575.112304688 360 l 1,2,-1
 392.112304688 360 l 1,3,-1
 354.25 196 l 1,4,-1
 213.25 196 l 1,5,-1
 251.112304688 360 l 1,6,-1
 67.1123046875 360 l 1,7,-1
 97.818359375 493 l 1,8,-1
 281.818359375 493 l 1,9,-1
 319.44921875 656 l 1,10,-1
 460.44921875 656 l 1,11,-1
 422.818359375 493 l 1,0,-1
-15.76953125 1 m 1,12,-1
 13.7822265625 129 l 1,13,-1
 521.782226562 129 l 1,14,-1
 492.23046875 1 l 1,15,-1
 -15.76953125 1 l 1,12,-1
EndSplineSet
EndChar

StartChar: uni00B2
Encoding: 178 178 116
Width: 402
GlyphClass: 2
Flags: W
LayerCount: 2
Fore
SplineSet
37.87890625 333 m 1,0,-1
 58.1953125 421 l 1,1,2
 106.8125 441 106.8125 441 157.045898438 468 c 0,3,4
 288.20703125 538 288.20703125 538 300.673828125 592 c 0,5,6
 308.75390625 627 308.75390625 627 272.75390625 627 c 0,7,8
 227.75390625 627 227.75390625 627 214.59375 557 c 1,9,-1
 83.673828125 592 l 1,10,11
 100.603515625 661 100.603515625 661 158.146484375 698 c 128,-1,12
 215.688476562 735 215.688476562 735 300.688476562 735 c 0,13,14
 394.688476562 735 394.688476562 735 430.299804688 696.5 c 128,-1,15
 465.911132812 658 465.911132812 658 453.444335938 604 c 0,16,17
 437.283203125 534 437.283203125 534 345.278320312 482 c 0,18,19
 306.96875 459 306.96875 459 250.043945312 442 c 1,20,-1
 249.58203125 440 l 1,21,22
 298.505859375 444 298.505859375 444 352.505859375 444 c 2,23,-1
 420.505859375 444 l 1,24,-1
 394.87890625 333 l 1,25,-1
 37.87890625 333 l 1,0,-1
EndSplineSet
EndChar

StartChar: uni00B3
Encoding: 179 179 117
Width: 386
GlyphClass: 2
Flags: W
LayerCount: 2
Fore
SplineSet
295.688476562 735 m 0,0,1
 376.688476562 735 376.688476562 735 412.877929688 705.5 c 128,-1,2
 449.067382812 676 449.067382812 676 436.138671875 620 c 0,3,4
 427.365234375 582 427.365234375 582 399.555664062 559 c 128,-1,5
 371.745117188 536 371.745117188 536 331.052734375 533 c 1,6,-1
 330.12890625 529 l 1,7,8
 423.12890625 529 423.12890625 529 404.198242188 447 c 0,9,10
 391.5 392 391.5 392 339.497070312 359.5 c 128,-1,11
 287.494140625 327 287.494140625 327 209.494140625 327 c 0,12,13
 129.494140625 327 129.494140625 327 87.53515625 351 c 128,-1,14
 45.5751953125 375 45.5751953125 375 39.2734375 430 c 1,15,-1
 182.124023438 477 l 1,16,17
 170.581054688 427 170.581054688 427 219.581054688 427 c 0,18,19
 259.581054688 427 259.581054688 427 267.661132812 462 c 0,20,21
 274.356445312 491 274.356445312 491 234.356445312 491 c 2,22,-1
 212.356445312 491 l 1,23,-1
 228.516601562 561 l 1,24,-1
 246.516601562 561 l 2,25,26
 284.516601562 561 284.516601562 561 292.366210938 595 c 0,27,28
 299.985351562 628 299.985351562 628 264.985351562 628 c 0,29,30
 223.985351562 628 223.985351562 628 208.903320312 580 c 1,31,-1
 91.138671875 620 l 1,32,33
 113.759765625 679 113.759765625 679 168.223632812 707 c 128,-1,34
 222.688476562 735 222.688476562 735 295.688476562 735 c 0,0,1
EndSplineSet
EndChar

StartChar: acute
Encoding: 180 180 118
Width: 500
GlyphClass: 2
Flags: W
LayerCount: 2
Fore
SplineSet
343.45703125 734 m 1,0,-1
 526.45703125 734 l 1,1,-1
 384.055664062 559 l 1,2,-1
 240.055664062 559 l 1,3,-1
 343.45703125 734 l 1,0,-1
EndSplineSet
EndChar

StartChar: uni00B5
Encoding: 181 181 119
Width: 619
GlyphClass: 2
Flags: W
LayerCount: 2
Fore
SplineSet
420.434570312 500 m 1,0,-1
 622.434570312 500 l 1,1,-1
 507 0 l 1,2,-1
 327 0 l 1,3,-1
 343.932617188 95 l 1,4,5
 283.845703125 -5 283.845703125 -5 183.69140625 -10 c 1,6,-1
 137.517578125 -210 l 1,7,-1
 -64.482421875 -210 l 1,8,-1
 99.4345703125 500 l 1,9,-1
 301.434570312 500 l 1,10,-1
 235.40625 214 l 2,11,12
 226.170898438 174 226.170898438 174 234.861328125 157.5 c 128,-1,13
 243.552734375 141 243.552734375 141 270.552734375 141 c 0,14,15
 334.552734375 141 334.552734375 141 357.869140625 229 c 2,16,-1
 420.434570312 500 l 1,0,-1
EndSplineSet
EndChar

StartChar: paragraph
Encoding: 182 182 120
Width: 777
GlyphClass: 2
Flags: W
LayerCount: 2
Fore
SplineSet
807.373046875 660 m 1,0,-1
 631.913085938 -100 l 1,1,-1
 469.913085938 -100 l 1,2,-1
 610.28125 508 l 1,3,-1
 510.28125 508 l 1,4,-1
 369.913085938 -100 l 1,5,-1
 206.913085938 -100 l 1,6,-1
 282.407226562 227 l 1,7,8
 20.869140625 229 20.869140625 229 70.2744140625 443 c 0,9,10
 120.373046875 660 120.373046875 660 403.373046875 660 c 2,11,-1
 807.373046875 660 l 1,0,-1
EndSplineSet
Substitution2: "'ornm' Ornaments lookup 40 subtable" uni2761
Substitution2: "'aalt' Access All Alternates lookup 0 subtable" uni2761
EndChar

StartChar: periodcentered
Encoding: 183 183 121
Width: 291
GlyphClass: 2
Flags: W
LayerCount: 2
Fore
SplineSet
186.352539062 452 m 128,-1,1
 239.352539062 452 239.352539062 452 262.734375 425.5 c 128,-1,2
 286.116210938 399 286.116210938 399 275.49609375 353 c 0,3,4
 264.645507812 306 264.645507812 306 229.02734375 279.5 c 128,-1,5
 193.409179688 253 193.409179688 253 140.409179688 253 c 128,-1,6
 87.4091796875 253 87.4091796875 253 63.52734375 279.5 c 128,-1,7
 39.6455078125 306 39.6455078125 306 50.49609375 353 c 128,-1,8
 61.34765625 400 61.34765625 400 97.349609375 426 c 128,-1,0
 133.352539062 452 133.352539062 452 186.352539062 452 c 128,-1,1
EndSplineSet
Substitution2: "Single Substitution lookup 55 subtable" periodcentered.loclCAT.sc
Substitution2: "Single Substitution lookup 54 subtable" periodcentered.loclCAT.case
Substitution2: "Single Substitution lookup 53 subtable" periodcentered.loclCAT
Substitution2: "'case' Case-Sensitive Forms lookup 29 subtable" periodcentered.case
Substitution2: "'smcp' Lowercase to Small Capitals lookup 12 subtable" periodcentered.sc
Substitution2: "'c2sc' Capitals to Small Capitals lookup 11 subtable" periodcentered.sc
AlternateSubs2: "'aalt' Access All Alternates lookup 1 subtable" periodcentered.sc periodcentered.case
Position2: "Single Positioning lookup 6 subtable" dx=0 dy=0 dh=-30 dv=0
EndChar

StartChar: cedilla
Encoding: 184 184 122
Width: 500
GlyphClass: 2
Flags: W
LayerCount: 2
Fore
SplineSet
111.461914062 2 m 1,0,-1
 160.234375 40 l 1,1,2
 246.157226562 31 246.157226562 31 285.345703125 -5 c 128,-1,3
 324.534179688 -41 324.534179688 -41 312.529296875 -93 c 0,4,5
 298.215820312 -155 298.215820312 -155 249.2890625 -185 c 128,-1,6
 200.36328125 -215 200.36328125 -215 131.36328125 -215 c 0,7,8
 48.36328125 -215 48.36328125 -215 12.0595703125 -173 c 1,9,-1
 74.3759765625 -85 l 1,10,11
 96.6806640625 -114 96.6806640625 -114 140.680664062 -114 c 0,12,13
 165.680664062 -114 165.680664062 -114 183.56640625 -101.5 c 128,-1,14
 201.453125 -89 201.453125 -89 206.532226562 -67 c 0,15,16
 212.303710938 -42 212.303710938 -42 192.11328125 -25.5 c 128,-1,17
 171.921875 -9 171.921875 -9 111.461914062 2 c 1,0,-1
EndSplineSet
EndChar

StartChar: uni00B9
Encoding: 185 185 123
Width: 318
GlyphClass: 2
Flags: W
LayerCount: 2
Fore
SplineSet
264.534179688 730 m 1,0,-1
 384.534179688 730 l 1,1,-1
 292.87890625 333 l 1,2,-1
 151.87890625 333 l 1,3,-1
 198.9765625 537 l 2,4,5
 207.518554688 574 207.518554688 574 216.290039062 599 c 1,6,7
 144.362304688 556 144.362304688 556 85.669921875 553 c 1,8,-1
 112.451171875 669 l 1,9,10
 148.374023438 673 148.374023438 673 196.260742188 692 c 128,-1,11
 244.147460938 711 244.147460938 711 264.534179688 730 c 1,0,-1
EndSplineSet
EndChar

StartChar: ordmasculine
Encoding: 186 186 124
Width: 445
GlyphClass: 2
Flags: W
LayerCount: 2
Fore
SplineSet
227.029296875 299 m 128,-1,1
 138.029296875 299 138.029296875 299 98.611328125 347 c 128,-1,2
 59.193359375 395 59.193359375 395 78.81640625 480 c 128,-1,3
 98.4404296875 565 98.4404296875 565 160.022460938 613 c 128,-1,4
 221.603515625 661 221.603515625 661 310.603515625 661 c 128,-1,5
 399.603515625 661 399.603515625 661 439.522460938 613 c 128,-1,6
 479.440429688 565 479.440429688 565 459.81640625 480 c 128,-1,7
 440.193359375 395 440.193359375 395 378.111328125 347 c 128,-1,0
 316.029296875 299 316.029296875 299 227.029296875 299 c 128,-1,1
248.0390625 390 m 0,8,9
 272.0390625 390 272.0390625 390 286.771484375 410.5 c 128,-1,10
 301.50390625 431 301.50390625 431 312.81640625 480 c 0,11,12
 323.8984375 528 323.8984375 528 318.747070312 549 c 128,-1,13
 313.594726562 570 313.594726562 570 289.594726562 570 c 0,14,15
 266.594726562 570 266.594726562 570 251.247070312 549 c 128,-1,16
 235.8984375 528 235.8984375 528 224.81640625 480 c 128,-1,17
 213.735351562 432 213.735351562 432 219.38671875 411 c 128,-1,18
 225.0390625 390 225.0390625 390 248.0390625 390 c 0,8,9
2.705078125 133 m 1,19,-1
 26.0234375 234 l 1,20,-1
 399.0234375 234 l 1,21,-1
 375.705078125 133 l 1,22,-1
 2.705078125 133 l 1,19,-1
EndSplineSet
EndChar

StartChar: guillemotright
Encoding: 187 187 125
Width: 618
GlyphClass: 2
Flags: W
LayerCount: 2
Fore
SplineSet
71.4306640625 461 m 1,0,-1
 240.430664062 461 l 1,1,-1
 320.1796875 265 l 1,2,-1
 149.9296875 69 l 1,3,-1
 -19.0703125 69 l 1,4,-1
 144.1796875 265 l 1,5,-1
 71.4306640625 461 l 1,0,-1
337.430664062 461 m 1,6,-1
 506.430664062 461 l 1,7,-1
 586.1796875 265 l 1,8,-1
 415.9296875 69 l 1,9,-1
 246.9296875 69 l 1,10,-1
 410.1796875 265 l 1,11,-1
 337.430664062 461 l 1,6,-1
EndSplineSet
Substitution2: "'case' Case-Sensitive Forms lookup 29 subtable" guillemotright.case
Substitution2: "'aalt' Access All Alternates lookup 0 subtable" guillemotright.case
EndChar

StartChar: onequarter
Encoding: 188 188 126
Width: 919
GlyphClass: 2
Flags: W
LayerCount: 2
Fore
SplineSet
136.873046875 268 m 1,0,-1
 183.969726562 472 l 2,1,2
 189.510742188 496 189.510742188 496 201.283203125 534 c 1,3,4
 129.356445312 491 129.356445312 491 70.6640625 488 c 1,5,-1
 97.4443359375 604 l 1,6,7
 133.368164062 608 133.368164062 608 181.25390625 627 c 128,-1,8
 229.140625 646 229.140625 646 249.52734375 665 c 1,9,-1
 369.52734375 665 l 1,10,-1
 277.873046875 268 l 1,11,-1
 136.873046875 268 l 1,0,-1
711.603515625 661 m 1,12,-1
 845.603515625 661 l 1,13,-1
 217 0 l 1,14,-1
 83 0 l 1,15,-1
 711.603515625 661 l 1,12,-1
824.016601562 169 m 1,16,-1
 880.016601562 169 l 1,17,-1
 858.315429688 75 l 1,18,-1
 802.315429688 75 l 1,19,-1
 784.076171875 -4 l 1,20,-1
 659.076171875 -4 l 1,21,-1
 677.315429688 75 l 1,22,-1
 475.315429688 75 l 1,23,-1
 490.090820312 139 l 1,24,-1
 703.961914062 394 l 1,25,-1
 875.961914062 394 l 1,26,-1
 824.016601562 169 l 1,16,-1
713.791992188 233 m 2,27,28
 715.408203125 240 715.408203125 240 735.723632812 315 c 1,29,-1
 732.723632812 315 l 1,30,31
 713.104492188 282 713.104492188 282 688.409179688 253 c 2,32,-1
 617.016601562 169 l 1,33,-1
 699.016601562 169 l 1,34,-1
 713.791992188 233 l 2,27,28
EndSplineSet
EndChar

StartChar: onehalf
Encoding: 189 189 127
Width: 988
GlyphClass: 2
Flags: W
LayerCount: 2
Fore
SplineSet
136.873046875 268 m 1,0,-1
 183.969726562 472 l 2,1,2
 189.510742188 496 189.510742188 496 201.283203125 534 c 1,3,4
 129.356445312 491 129.356445312 491 70.6640625 488 c 1,5,-1
 97.4443359375 604 l 1,6,7
 133.368164062 608 133.368164062 608 181.25390625 627 c 128,-1,8
 229.140625 646 229.140625 646 249.52734375 665 c 1,9,-1
 369.52734375 665 l 1,10,-1
 277.873046875 268 l 1,11,-1
 136.873046875 268 l 1,0,-1
711.603515625 661 m 1,12,-1
 845.603515625 661 l 1,13,-1
 217 0 l 1,14,-1
 83 0 l 1,15,-1
 711.603515625 661 l 1,12,-1
860.703125 107 m 2,16,-1
 928.703125 107 l 1,17,-1
 903.076171875 -4 l 1,18,-1
 546.076171875 -4 l 1,19,-1
 566.392578125 84 l 1,20,21
 615.010742188 104 615.010742188 104 665.244140625 131 c 0,22,23
 796.404296875 201 796.404296875 201 808.87109375 255 c 0,24,25
 816.952148438 290 816.952148438 290 780.952148438 290 c 0,26,27
 735.952148438 290 735.952148438 290 722.791015625 220 c 1,28,-1
 591.87109375 255 l 1,29,30
 608.801757812 324 608.801757812 324 666.34375 361 c 128,-1,31
 723.885742188 398 723.885742188 398 808.885742188 398 c 0,32,33
 902.885742188 398 902.885742188 398 938.497070312 359.5 c 128,-1,34
 974.108398438 321 974.108398438 321 961.641601562 267 c 0,35,36
 945.481445312 197 945.481445312 197 853.475585938 145 c 0,37,38
 815.166015625 122 815.166015625 122 758.241210938 105 c 1,39,-1
 757.779296875 103 l 1,40,41
 806.703125 107 806.703125 107 860.703125 107 c 2,16,-1
EndSplineSet
EndChar

StartChar: threequarters
Encoding: 190 190 128
Width: 987
GlyphClass: 2
Flags: W
LayerCount: 2
Fore
SplineSet
280.681640625 670 m 0,0,1
 361.681640625 670 361.681640625 670 397.87109375 640.5 c 128,-1,2
 434.060546875 611 434.060546875 611 421.131835938 555 c 0,3,4
 412.358398438 517 412.358398438 517 384.548828125 494 c 128,-1,5
 356.739257812 471 356.739257812 471 316.045898438 468 c 1,6,-1
 315.123046875 464 l 1,7,8
 408.123046875 464 408.123046875 464 389.19140625 382 c 0,9,10
 376.494140625 327 376.494140625 327 324.490234375 294.5 c 128,-1,11
 272.487304688 262 272.487304688 262 194.487304688 262 c 0,12,13
 114.487304688 262 114.487304688 262 72.5283203125 286 c 128,-1,14
 30.5693359375 310 30.5693359375 310 24.2666015625 365 c 1,15,-1
 167.118164062 412 l 1,16,17
 155.57421875 362 155.57421875 362 204.57421875 362 c 0,18,19
 244.57421875 362 244.57421875 362 252.654296875 397 c 0,20,21
 259.349609375 426 259.349609375 426 219.349609375 426 c 2,22,-1
 197.349609375 426 l 1,23,-1
 213.510742188 496 l 1,24,-1
 231.510742188 496 l 2,25,26
 269.510742188 496 269.510742188 496 277.360351562 530 c 0,27,28
 284.978515625 563 284.978515625 563 249.978515625 563 c 0,29,30
 208.978515625 563 208.978515625 563 193.897460938 515 c 1,31,-1
 76.1318359375 555 l 1,32,33
 98.7529296875 614 98.7529296875 614 153.217773438 642 c 128,-1,34
 207.681640625 670 207.681640625 670 280.681640625 670 c 0,0,1
151 0 m 1,35,-1
 779.603515625 661 l 1,36,-1
 913.603515625 661 l 1,37,-1
 285 0 l 1,38,-1
 151 0 l 1,35,-1
947.016601562 169 m 1,39,-1
 925.315429688 75 l 1,40,-1
 869.315429688 75 l 1,41,-1
 851.076171875 -4 l 1,42,-1
 726.076171875 -4 l 1,43,-1
 744.315429688 75 l 1,44,-1
 542.315429688 75 l 1,45,-1
 557.090820312 139 l 1,46,-1
 770.961914062 394 l 1,47,-1
 942.961914062 394 l 1,48,-1
 891.016601562 169 l 1,49,-1
 947.016601562 169 l 1,39,-1
684.016601562 169 m 1,50,-1
 766.016601562 169 l 1,51,-1
 780.791992188 233 l 2,52,53
 782.408203125 240 782.408203125 240 802.723632812 315 c 1,54,-1
 799.723632812 315 l 1,55,56
 780.104492188 282 780.104492188 282 755.409179688 253 c 2,57,-1
 684.016601562 169 l 1,50,-1
EndSplineSet
EndChar

StartChar: questiondown
Encoding: 191 191 129
Width: 630
GlyphClass: 2
Flags: W
LayerCount: 2
Fore
SplineSet
337.494140625 327 m 128,-1,1
 286.494140625 327 286.494140625 327 264.03515625 351 c 128,-1,2
 241.575195312 375 241.575195312 375 251.502929688 418 c 128,-1,3
 261.430664062 461 261.430664062 461 294.970703125 485 c 128,-1,4
 328.51171875 509 328.51171875 509 379.51171875 509 c 128,-1,5
 430.51171875 509 430.51171875 509 453.470703125 485 c 128,-1,6
 476.430664062 461 476.430664062 461 466.502929688 418 c 128,-1,7
 456.575195312 375 456.575195312 375 422.53515625 351 c 128,-1,0
 388.494140625 327 388.494140625 327 337.494140625 327 c 128,-1,1
206.983398438 -169 m 0,8,9
 80.9833984375 -169 80.9833984375 -169 18.8720703125 -124 c 128,-1,10
 -43.23828125 -79 -43.23828125 -79 -21.3056640625 16 c 0,11,12
 17.7109375 185 17.7109375 185 213.55859375 206 c 1,13,-1
 245.797851562 285 l 1,14,-1
 413.797851562 285 l 1,15,-1
 391.244140625 131 l 1,16,17
 222.396484375 123 222.396484375 123 204.850585938 47 c 0,18,19
 191.921875 -9 191.921875 -9 256.921875 -9 c 0,20,21
 332.921875 -9 332.921875 -9 357.23828125 79 c 1,22,-1
 538.078125 9 l 1,23,24
 510.377929688 -72 510.377929688 -72 429.180664062 -120.5 c 128,-1,25
 347.983398438 -169 347.983398438 -169 206.983398438 -169 c 0,8,9
EndSplineSet
Substitution2: "'case' Case-Sensitive Forms lookup 29 subtable" questiondown.case
Substitution2: "'smcp' Lowercase to Small Capitals lookup 12 subtable" questiondown.sc
Substitution2: "'c2sc' Capitals to Small Capitals lookup 11 subtable" questiondown.sc
AlternateSubs2: "'aalt' Access All Alternates lookup 1 subtable" questiondown.sc questiondown.case
EndChar

StartChar: Agrave
Encoding: 192 192 130
Width: 684
GlyphClass: 2
Flags: W
LayerCount: 2
Fore
SplineSet
506.0703125 715 m 1,0,-1
 362.0703125 715 l 1,1,-1
 305.93359375 879 l 1,2,-1
 490.93359375 879 l 1,3,-1
 506.0703125 715 l 1,0,-1
413 0 m 1,4,-1
 407.62890625 137 l 1,5,-1
 206.62890625 137 l 1,6,-1
 137 0 l 1,7,-1
 -67 0 l 1,8,-1
 307.373046875 660 l 1,9,-1
 552.373046875 660 l 1,10,-1
 623 0 l 1,11,-1
 413 0 l 1,4,-1
273.103515625 269 m 1,12,-1
 403.103515625 269 l 1,13,-1
 397.34765625 400 l 1,14,-1
 394.28125 508 l 1,15,-1
 392.28125 508 l 1,16,-1
 340.578125 401 l 1,17,-1
 273.103515625 269 l 1,12,-1
EndSplineSet
Substitution2: "Single Substitution lookup 56 subtable" Agrave.swsh
Substitution2: "'swsh' Swash lookup 32 subtable" Agrave.swsh
Substitution2: "'c2sc' Capitals to Small Capitals lookup 11 subtable" agrave.sc
AlternateSubs2: "'aalt' Access All Alternates lookup 1 subtable" agrave.sc Agrave.swsh
EndChar

StartChar: Aacute
Encoding: 193 193 131
Width: 684
GlyphClass: 2
Flags: W
LayerCount: 2
Fore
SplineSet
636.93359375 879 m 1,0,-1
 505.0703125 715 l 1,1,-1
 361.0703125 715 l 1,2,-1
 451.93359375 879 l 1,3,-1
 636.93359375 879 l 1,0,-1
413 0 m 1,4,-1
 407.62890625 137 l 1,5,-1
 206.62890625 137 l 1,6,-1
 137 0 l 1,7,-1
 -67 0 l 1,8,-1
 307.373046875 660 l 1,9,-1
 552.373046875 660 l 1,10,-1
 623 0 l 1,11,-1
 413 0 l 1,4,-1
273.103515625 269 m 1,12,-1
 403.103515625 269 l 1,13,-1
 397.34765625 400 l 1,14,-1
 394.28125 508 l 1,15,-1
 392.28125 508 l 1,16,-1
 340.578125 401 l 1,17,-1
 273.103515625 269 l 1,12,-1
EndSplineSet
Substitution2: "Single Substitution lookup 56 subtable" Aacute.swsh
Substitution2: "'swsh' Swash lookup 32 subtable" Aacute.swsh
Substitution2: "'c2sc' Capitals to Small Capitals lookup 11 subtable" aacute.sc
AlternateSubs2: "'aalt' Access All Alternates lookup 1 subtable" aacute.sc Aacute.swsh
EndChar

StartChar: Acircumflex
Encoding: 194 194 132
Width: 684
GlyphClass: 2
Flags: W
LayerCount: 2
Fore
SplineSet
459.6171875 791 m 1,0,-1
 381.83984375 714 l 1,1,-1
 236.83984375 714 l 1,2,-1
 385.39453125 881 l 1,3,-1
 575.39453125 881 l 1,4,-1
 646.83984375 714 l 1,5,-1
 501.83984375 714 l 1,6,-1
 459.6171875 791 l 1,0,-1
413 0 m 1,7,-1
 407.62890625 137 l 1,8,-1
 206.62890625 137 l 1,9,-1
 137 0 l 1,10,-1
 -67 0 l 1,11,-1
 307.373046875 660 l 1,12,-1
 552.373046875 660 l 1,13,-1
 623 0 l 1,14,-1
 413 0 l 1,7,-1
273.103515625 269 m 1,15,-1
 403.103515625 269 l 1,16,-1
 397.34765625 400 l 1,17,-1
 394.28125 508 l 1,18,-1
 392.28125 508 l 1,19,-1
 340.578125 401 l 1,20,-1
 273.103515625 269 l 1,15,-1
EndSplineSet
Substitution2: "Single Substitution lookup 56 subtable" Acircumflex.swsh
Substitution2: "'swsh' Swash lookup 32 subtable" Acircumflex.swsh
Substitution2: "'c2sc' Capitals to Small Capitals lookup 11 subtable" acircumflex.sc
AlternateSubs2: "'aalt' Access All Alternates lookup 1 subtable" acircumflex.sc Acircumflex.swsh
EndChar

StartChar: Atilde
Encoding: 195 195 133
Width: 684
GlyphClass: 2
Flags: W
LayerCount: 2
Fore
SplineSet
390.3828125 764 m 0,0,1
 362.3828125 764 362.3828125 764 344.377929688 712 c 1,2,-1
 236.377929688 712 l 1,3,4
 281.1640625 880 281.1640625 880 415.1640625 880 c 0,5,6
 441.1640625 880 441.1640625 880 460.701171875 871.5 c 128,-1,7
 480.239257812 863 480.239257812 863 488.545898438 853.5 c 128,-1,8
 496.852539062 844 496.852539062 844 507.890625 835.5 c 128,-1,9
 518.927734375 827 518.927734375 827 530.927734375 827 c 0,10,11
 558.927734375 827 558.927734375 827 576.93359375 879 c 1,12,-1
 684.93359375 879 l 1,13,14
 639.916015625 710 639.916015625 710 505.916015625 710 c 0,15,16
 471.916015625 710 471.916015625 710 451.533203125 723.5 c 128,-1,17
 431.149414062 737 431.149414062 737 418.266601562 750.5 c 128,-1,18
 405.3828125 764 405.3828125 764 390.3828125 764 c 0,0,1
413 0 m 1,19,-1
 407.62890625 137 l 1,20,-1
 206.62890625 137 l 1,21,-1
 137 0 l 1,22,-1
 -67 0 l 1,23,-1
 307.373046875 660 l 1,24,-1
 552.373046875 660 l 1,25,-1
 623 0 l 1,26,-1
 413 0 l 1,19,-1
273.103515625 269 m 1,27,-1
 403.103515625 269 l 1,28,-1
 397.34765625 400 l 1,29,-1
 394.28125 508 l 1,30,-1
 392.28125 508 l 1,31,-1
 340.578125 401 l 1,32,-1
 273.103515625 269 l 1,27,-1
EndSplineSet
Substitution2: "Single Substitution lookup 56 subtable" Atilde.swsh
Substitution2: "'swsh' Swash lookup 32 subtable" Atilde.swsh
Substitution2: "'c2sc' Capitals to Small Capitals lookup 11 subtable" atilde.sc
AlternateSubs2: "'aalt' Access All Alternates lookup 1 subtable" atilde.sc Atilde.swsh
EndChar

StartChar: Adieresis
Encoding: 196 196 134
Width: 684
GlyphClass: 2
Flags: W
LayerCount: 2
Fore
SplineSet
324.993164062 706 m 0,0,1
 280.993164062 706 280.993164062 706 261.1875 728.5 c 128,-1,2
 241.381835938 751 241.381835938 751 250.6171875 791 c 128,-1,3
 259.8515625 831 259.8515625 831 290.045898438 853.5 c 128,-1,4
 320.240234375 876 320.240234375 876 364.240234375 876 c 0,5,6
 410.240234375 876 410.240234375 876 430.045898438 853.5 c 128,-1,7
 449.8515625 831 449.8515625 831 440.6171875 791 c 0,8,9
 431.151367188 750 431.151367188 750 401.072265625 728 c 128,-1,10
 370.993164062 706 370.993164062 706 324.993164062 706 c 0,0,1
553.993164062 706 m 0,11,12
 509.993164062 706 509.993164062 706 490.1875 728.5 c 128,-1,13
 470.381835938 751 470.381835938 751 479.6171875 791 c 128,-1,14
 488.8515625 831 488.8515625 831 519.045898438 853.5 c 128,-1,15
 549.240234375 876 549.240234375 876 593.240234375 876 c 0,16,17
 639.240234375 876 639.240234375 876 659.045898438 853.5 c 128,-1,18
 678.8515625 831 678.8515625 831 669.6171875 791 c 0,19,20
 660.151367188 750 660.151367188 750 630.072265625 728 c 128,-1,21
 599.993164062 706 599.993164062 706 553.993164062 706 c 0,11,12
413 0 m 1,22,-1
 407.62890625 137 l 1,23,-1
 206.62890625 137 l 1,24,-1
 137 0 l 1,25,-1
 -67 0 l 1,26,-1
 307.373046875 660 l 1,27,-1
 552.373046875 660 l 1,28,-1
 623 0 l 1,29,-1
 413 0 l 1,22,-1
273.103515625 269 m 1,30,-1
 403.103515625 269 l 1,31,-1
 397.34765625 400 l 1,32,-1
 394.28125 508 l 1,33,-1
 392.28125 508 l 1,34,-1
 340.578125 401 l 1,35,-1
 273.103515625 269 l 1,30,-1
EndSplineSet
Substitution2: "Single Substitution lookup 56 subtable" Adieresis.swsh
Substitution2: "'titl' Titling lookup 41 subtable" Adieresis.titl
Substitution2: "'swsh' Swash lookup 32 subtable" Adieresis.swsh
Substitution2: "'c2sc' Capitals to Small Capitals lookup 11 subtable" adieresis.sc
AlternateSubs2: "'aalt' Access All Alternates lookup 1 subtable" adieresis.sc Adieresis.swsh Adieresis.titl
EndChar

StartChar: Aring
Encoding: 197 197 135
Width: 684
GlyphClass: 2
Flags: W
LayerCount: 2
Fore
SplineSet
413 0 m 1,0,-1
 407.62890625 137 l 1,1,-1
 206.62890625 137 l 1,2,-1
 137 0 l 1,3,-1
 -67 0 l 1,4,-1
 305.448242188 643 l 1,5,6
 275.60546875 674 275.60546875 674 288.764648438 731 c 0,7,8
 302.84765625 792 302.84765625 792 353.159179688 828 c 128,-1,9
 403.469726562 864 403.469726562 864 477.469726562 864 c 0,10,11
 552.469726562 864 552.469726562 864 586.159179688 828 c 128,-1,12
 619.84765625 792 619.84765625 792 605.764648438 731 c 0,13,14
 593.297851562 677 593.297851562 677 546.448242188 643 c 1,15,-1
 623 0 l 1,16,-1
 413 0 l 1,0,-1
456.922851562 775 m 128,-1,18
 431.922851562 775 431.922851562 775 414.190429688 761 c 128,-1,19
 396.458984375 747 396.458984375 747 390.91796875 723 c 0,20,21
 385.607421875 700 385.607421875 700 396.875976562 686 c 128,-1,22
 408.143554688 672 408.143554688 672 433.143554688 672 c 128,-1,23
 458.143554688 672 458.143554688 672 475.875976562 686 c 128,-1,24
 493.607421875 700 493.607421875 700 498.91796875 723 c 0,25,26
 504.458984375 747 504.458984375 747 493.190429688 761 c 128,-1,17
 481.922851562 775 481.922851562 775 456.922851562 775 c 128,-1,18
273.103515625 269 m 1,27,-1
 403.103515625 269 l 1,28,-1
 397.34765625 400 l 1,29,-1
 395.28125 508 l 1,30,-1
 391.28125 508 l 1,31,-1
 340.578125 401 l 1,32,-1
 273.103515625 269 l 1,27,-1
EndSplineSet
Substitution2: "'c2sc' Capitals to Small Capitals lookup 11 subtable" aring.sc
Substitution2: "'aalt' Access All Alternates lookup 0 subtable" aring.sc
EndChar

StartChar: AE
Encoding: 198 198 136
Width: 913
GlyphClass: 2
Flags: W
LayerCount: 2
Fore
SplineSet
568.475585938 145 m 1,0,-1
 860.475585938 145 l 1,1,-1
 827 0 l 1,2,-1
 346 0 l 1,3,-1
 389.865234375 190 l 1,4,-1
 234.865234375 190 l 1,5,-1
 132 0 l 1,6,-1
 -71 0 l 1,7,-1
 327.373046875 660 l 1,8,-1
 966.373046875 660 l 1,9,-1
 932.897460938 515 l 1,10,-1
 653.897460938 515 l 1,11,-1
 626.654296875 397 l 1,12,-1
 840.654296875 397 l 1,13,-1
 809.487304688 262 l 1,14,-1
 595.487304688 262 l 1,15,-1
 568.475585938 145 l 1,0,-1
301.723632812 315 m 1,16,-1
 418.723632812 315 l 1,17,-1
 466.513671875 522 l 1,18,-1
 413.513671875 522 l 1,19,-1
 301.723632812 315 l 1,16,-1
EndSplineSet
Substitution2: "'c2sc' Capitals to Small Capitals lookup 11 subtable" ae.sc
Substitution2: "'aalt' Access All Alternates lookup 0 subtable" ae.sc
EndChar

StartChar: Ccedilla
Encoding: 199 199 137
Width: 679
GlyphClass: 2
Flags: W
LayerCount: 2
Fore
SplineSet
645.25 196 m 1,0,1
 564.92578125 30 564.92578125 30 388.538085938 -2 c 1,2,3
 431.2265625 -38 431.2265625 -38 418.529296875 -93 c 0,4,5
 404.215820312 -155 404.215820312 -155 355.2890625 -185 c 128,-1,6
 306.36328125 -215 306.36328125 -215 237.36328125 -215 c 0,7,8
 154.36328125 -215 154.36328125 -215 118.059570312 -173 c 1,9,-1
 180.375976562 -85 l 1,10,11
 202.680664062 -114 202.680664062 -114 246.680664062 -114 c 0,12,13
 271.680664062 -114 271.680664062 -114 289.56640625 -101.5 c 128,-1,14
 307.453125 -89 307.453125 -89 312.532226562 -67 c 0,15,16
 321.766601562 -27 321.766601562 -27 262.153320312 -8 c 1,17,18
 127.692382812 3 127.692382812 3 70.6240234375 91.5 c 128,-1,19
 13.556640625 180 13.556640625 180 48.1865234375 330 c 0,20,21
 85.125 490 85.125 490 193.903320312 580 c 128,-1,22
 302.681640625 670 302.681640625 670 456.681640625 670 c 0,23,24
 568.681640625 670 568.681640625 670 636.715820312 622.5 c 128,-1,25
 704.749023438 575 704.749023438 575 704.5859375 479 c 1,26,-1
 511.194335938 408 l 1,27,28
 514.27734375 469 514.27734375 469 494.471679688 491.5 c 128,-1,29
 474.666015625 514 474.666015625 514 426.666015625 514 c 0,30,31
 300.666015625 514 300.666015625 514 258.186523438 330 c 128,-1,32
 215.70703125 146 215.70703125 146 339.70703125 146 c 0,33,34
 389.70703125 146 389.70703125 146 421.631835938 169.5 c 128,-1,35
 453.557617188 193 453.557617188 193 474.5625 245 c 1,36,-1
 645.25 196 l 1,0,1
EndSplineSet
Substitution2: "'c2sc' Capitals to Small Capitals lookup 11 subtable" ccedilla.sc
Substitution2: "'aalt' Access All Alternates lookup 0 subtable" ccedilla.sc
EndChar

StartChar: Egrave
Encoding: 200 200 138
Width: 628
GlyphClass: 2
Flags: W
AnchorPoint: "Anchor-0" 267 0 basechar 0
LayerCount: 2
Fore
SplineSet
510.0703125 715 m 1,0,-1
 366.0703125 715 l 1,1,-1
 309.93359375 879 l 1,2,-1
 494.93359375 879 l 1,3,-1
 510.0703125 715 l 1,0,-1
236.323242188 153 m 1,4,-1
 577.323242188 153 l 1,5,-1
 542 0 l 1,6,-1
 -3 0 l 1,7,-1
 149.373046875 660 l 1,8,-1
 681.373046875 660 l 1,9,-1
 646.049804688 507 l 1,10,-1
 318.049804688 507 l 1,11,-1
 293.34765625 400 l 1,12,-1
 555.34765625 400 l 1,13,-1
 522.564453125 258 l 1,14,-1
 260.564453125 258 l 1,15,-1
 236.323242188 153 l 1,4,-1
EndSplineSet
Substitution2: "Single Substitution lookup 57 subtable" Egrave.swsh.001
Substitution2: "Single Substitution lookup 56 subtable" Egrave.swsh
AlternateSubs2: "'swsh' Swash lookup 33 subtable" Egrave.swsh Egrave.swsh.001
Substitution2: "'c2sc' Capitals to Small Capitals lookup 11 subtable" egrave.sc
AlternateSubs2: "'aalt' Access All Alternates lookup 1 subtable" egrave.sc Egrave.swsh Egrave.swsh.001
EndChar

StartChar: Eacute
Encoding: 201 201 139
Width: 628
GlyphClass: 2
Flags: W
AnchorPoint: "Anchor-0" 267 0 basechar 0
LayerCount: 2
Fore
SplineSet
612.93359375 879 m 1,0,-1
 481.0703125 715 l 1,1,-1
 337.0703125 715 l 1,2,-1
 427.93359375 879 l 1,3,-1
 612.93359375 879 l 1,0,-1
236.323242188 153 m 1,4,-1
 577.323242188 153 l 1,5,-1
 542 0 l 1,6,-1
 -3 0 l 1,7,-1
 149.373046875 660 l 1,8,-1
 681.373046875 660 l 1,9,-1
 646.049804688 507 l 1,10,-1
 318.049804688 507 l 1,11,-1
 293.34765625 400 l 1,12,-1
 555.34765625 400 l 1,13,-1
 522.564453125 258 l 1,14,-1
 260.564453125 258 l 1,15,-1
 236.323242188 153 l 1,4,-1
EndSplineSet
Substitution2: "Single Substitution lookup 57 subtable" Eacute.swsh.001
Substitution2: "Single Substitution lookup 56 subtable" Eacute.swsh
AlternateSubs2: "'swsh' Swash lookup 33 subtable" Eacute.swsh Eacute.swsh.001
Substitution2: "'c2sc' Capitals to Small Capitals lookup 11 subtable" eacute.sc
AlternateSubs2: "'aalt' Access All Alternates lookup 1 subtable" eacute.sc Eacute.swsh Eacute.swsh.001
EndChar

StartChar: Ecircumflex
Encoding: 202 202 140
Width: 628
GlyphClass: 2
Flags: W
AnchorPoint: "Anchor-0" 267 0 basechar 0
LayerCount: 2
Fore
SplineSet
436.6171875 791 m 1,0,-1
 358.83984375 714 l 1,1,-1
 213.83984375 714 l 1,2,-1
 362.39453125 881 l 1,3,-1
 552.39453125 881 l 1,4,-1
 623.83984375 714 l 1,5,-1
 478.83984375 714 l 1,6,-1
 436.6171875 791 l 1,0,-1
236.323242188 153 m 1,7,-1
 577.323242188 153 l 1,8,-1
 542 0 l 1,9,-1
 -3 0 l 1,10,-1
 149.373046875 660 l 1,11,-1
 681.373046875 660 l 1,12,-1
 646.049804688 507 l 1,13,-1
 318.049804688 507 l 1,14,-1
 293.34765625 400 l 1,15,-1
 555.34765625 400 l 1,16,-1
 522.564453125 258 l 1,17,-1
 260.564453125 258 l 1,18,-1
 236.323242188 153 l 1,7,-1
EndSplineSet
Substitution2: "Single Substitution lookup 57 subtable" Ecircumflex.swsh.001
Substitution2: "Single Substitution lookup 56 subtable" Ecircumflex.swsh
AlternateSubs2: "'swsh' Swash lookup 33 subtable" Ecircumflex.swsh Ecircumflex.swsh.001
Substitution2: "'c2sc' Capitals to Small Capitals lookup 11 subtable" ecircumflex.sc
AlternateSubs2: "'aalt' Access All Alternates lookup 1 subtable" ecircumflex.sc Ecircumflex.swsh Ecircumflex.swsh.001
EndChar

StartChar: Edieresis
Encoding: 203 203 141
Width: 628
GlyphClass: 2
Flags: W
AnchorPoint: "Anchor-0" 267 0 basechar 0
LayerCount: 2
Fore
SplineSet
300.993164062 706 m 0,0,1
 256.993164062 706 256.993164062 706 237.1875 728.5 c 128,-1,2
 217.381835938 751 217.381835938 751 226.6171875 791 c 128,-1,3
 235.8515625 831 235.8515625 831 266.045898438 853.5 c 128,-1,4
 296.240234375 876 296.240234375 876 340.240234375 876 c 0,5,6
 386.240234375 876 386.240234375 876 406.045898438 853.5 c 128,-1,7
 425.8515625 831 425.8515625 831 416.6171875 791 c 0,8,9
 407.151367188 750 407.151367188 750 377.072265625 728 c 128,-1,10
 346.993164062 706 346.993164062 706 300.993164062 706 c 0,0,1
529.993164062 706 m 0,11,12
 485.993164062 706 485.993164062 706 466.1875 728.5 c 128,-1,13
 446.381835938 751 446.381835938 751 455.6171875 791 c 128,-1,14
 464.8515625 831 464.8515625 831 495.045898438 853.5 c 128,-1,15
 525.240234375 876 525.240234375 876 569.240234375 876 c 0,16,17
 615.240234375 876 615.240234375 876 635.045898438 853.5 c 128,-1,18
 654.8515625 831 654.8515625 831 645.6171875 791 c 0,19,20
 636.151367188 750 636.151367188 750 606.072265625 728 c 128,-1,21
 575.993164062 706 575.993164062 706 529.993164062 706 c 0,11,12
236.323242188 153 m 1,22,-1
 577.323242188 153 l 1,23,-1
 542 0 l 1,24,-1
 -3 0 l 1,25,-1
 149.373046875 660 l 1,26,-1
 681.373046875 660 l 1,27,-1
 646.049804688 507 l 1,28,-1
 318.049804688 507 l 1,29,-1
 293.34765625 400 l 1,30,-1
 555.34765625 400 l 1,31,-1
 522.564453125 258 l 1,32,-1
 260.564453125 258 l 1,33,-1
 236.323242188 153 l 1,22,-1
EndSplineSet
Substitution2: "Single Substitution lookup 57 subtable" Edieresis.swsh.001
Substitution2: "Single Substitution lookup 56 subtable" Edieresis.swsh
AlternateSubs2: "'swsh' Swash lookup 33 subtable" Edieresis.swsh Edieresis.swsh.001
Substitution2: "'c2sc' Capitals to Small Capitals lookup 11 subtable" edieresis.sc
AlternateSubs2: "'aalt' Access All Alternates lookup 1 subtable" edieresis.sc Edieresis.swsh Edieresis.swsh.001
EndChar

StartChar: Igrave
Encoding: 204 204 142
Width: 326
GlyphClass: 2
Flags: W
LayerCount: 2
Fore
SplineSet
312.93359375 879 m 1,0,-1
 328.0703125 715 l 1,1,-1
 184.0703125 715 l 1,2,-1
 127.93359375 879 l 1,3,-1
 312.93359375 879 l 1,0,-1
353.373046875 660 m 1,4,-1
 201 0 l 1,5,-1
 -3 0 l 1,6,-1
 149.373046875 660 l 1,7,-1
 353.373046875 660 l 1,4,-1
EndSplineSet
Substitution2: "'c2sc' Capitals to Small Capitals lookup 11 subtable" igrave.sc
Substitution2: "'aalt' Access All Alternates lookup 0 subtable" igrave.sc
EndChar

StartChar: Iacute
Encoding: 205 205 143
Width: 326
GlyphClass: 2
Flags: W
LayerCount: 2
Fore
SplineSet
272.93359375 879 m 1,0,-1
 457.93359375 879 l 1,1,-1
 326.0703125 715 l 1,2,-1
 182.0703125 715 l 1,3,-1
 272.93359375 879 l 1,0,-1
353.373046875 660 m 1,4,-1
 201 0 l 1,5,-1
 -3 0 l 1,6,-1
 149.373046875 660 l 1,7,-1
 353.373046875 660 l 1,4,-1
EndSplineSet
Substitution2: "'c2sc' Capitals to Small Capitals lookup 11 subtable" iacute.sc
Substitution2: "'aalt' Access All Alternates lookup 0 subtable" iacute.sc
EndChar

StartChar: Icircumflex
Encoding: 206 206 144
Width: 326
GlyphClass: 2
Flags: W
LayerCount: 2
Fore
SplineSet
468.83984375 714 m 1,0,-1
 323.83984375 714 l 1,1,-1
 281.6171875 791 l 1,2,-1
 203.83984375 714 l 1,3,-1
 58.83984375 714 l 1,4,-1
 207.39453125 881 l 1,5,-1
 397.39453125 881 l 1,6,-1
 468.83984375 714 l 1,0,-1
353.373046875 660 m 1,7,-1
 201 0 l 1,8,-1
 -3 0 l 1,9,-1
 149.373046875 660 l 1,10,-1
 353.373046875 660 l 1,7,-1
EndSplineSet
Substitution2: "'c2sc' Capitals to Small Capitals lookup 11 subtable" icircumflex.sc
Substitution2: "'aalt' Access All Alternates lookup 0 subtable" icircumflex.sc
EndChar

StartChar: Idieresis
Encoding: 207 207 145
Width: 326
GlyphClass: 2
Flags: W
LayerCount: 2
Fore
SplineSet
192.240234375 876 m 128,-1,1
 235.240234375 876 235.240234375 876 255.045898438 853.5 c 128,-1,2
 274.8515625 831 274.8515625 831 265.6171875 791 c 128,-1,3
 256.381835938 751 256.381835938 751 226.6875 728.5 c 128,-1,4
 196.993164062 706 196.993164062 706 152.993164062 706 c 0,5,6
 109.993164062 706 109.993164062 706 91.6875 728.5 c 128,-1,7
 73.3818359375 751 73.3818359375 751 82.6171875 791 c 128,-1,8
 91.8515625 831 91.8515625 831 120.545898438 853.5 c 128,-1,0
 149.240234375 876 149.240234375 876 192.240234375 876 c 128,-1,1
407.240234375 876 m 0,9,10
 451.240234375 876 451.240234375 876 471.045898438 853.5 c 128,-1,11
 490.8515625 831 490.8515625 831 481.6171875 791 c 128,-1,12
 472.381835938 751 472.381835938 751 442.1875 728.5 c 128,-1,13
 411.993164062 706 411.993164062 706 367.993164062 706 c 0,14,15
 324.993164062 706 324.993164062 706 306.6875 728.5 c 128,-1,16
 288.381835938 751 288.381835938 751 297.6171875 791 c 128,-1,17
 306.8515625 831 306.8515625 831 335.545898438 853.5 c 128,-1,18
 364.240234375 876 364.240234375 876 407.240234375 876 c 0,9,10
353.373046875 660 m 1,19,-1
 201 0 l 1,20,-1
 -3 0 l 1,21,-1
 149.373046875 660 l 1,22,-1
 353.373046875 660 l 1,19,-1
EndSplineSet
Substitution2: "'c2sc' Capitals to Small Capitals lookup 11 subtable" idieresis.sc
Substitution2: "'aalt' Access All Alternates lookup 0 subtable" idieresis.sc
EndChar

StartChar: Eth
Encoding: 208 208 146
Width: 744
GlyphClass: 2
Flags: W
LayerCount: 2
Fore
SplineSet
479.373046875 660 m 2,0,1
 633.373046875 660 633.373046875 660 695.133789062 574.5 c 128,-1,2
 756.89453125 489 756.89453125 489 720.186523438 330 c 128,-1,3
 683.478515625 171 683.478515625 171 582.239257812 85.5 c 128,-1,4
 481 0 481 0 327 0 c 2,5,-1
 24 0 l 1,6,-1
 89.3359375 283 l 1,7,-1
 11.3359375 283 l 1,8,-1
 32.1142578125 373 l 1,9,-1
 110.114257812 373 l 1,10,-1
 176.373046875 660 l 1,11,-1
 479.373046875 660 l 2,0,1
336.399414062 149 m 2,12,13
 408.399414062 149 408.399414062 149 448.442382812 192.5 c 128,-1,14
 488.485351562 236 488.485351562 236 510.186523438 330 c 128,-1,15
 531.887695312 424 531.887695312 424 511.930664062 467.5 c 128,-1,16
 491.973632812 511 491.973632812 511 419.973632812 511 c 2,17,-1
 345.973632812 511 l 1,18,-1
 314.114257812 373 l 1,19,-1
 421.114257812 373 l 1,20,-1
 400.3359375 283 l 1,21,-1
 293.3359375 283 l 1,22,-1
 262.399414062 149 l 1,23,-1
 336.399414062 149 l 2,12,13
EndSplineSet
Substitution2: "'c2sc' Capitals to Small Capitals lookup 11 subtable" eth.sc
Substitution2: "'aalt' Access All Alternates lookup 0 subtable" eth.sc
EndChar

StartChar: Ntilde
Encoding: 209 209 147
Width: 744
GlyphClass: 2
Flags: W
AnchorPoint: "Anchor-0" 314 0 basechar 0
LayerCount: 2
Fore
SplineSet
715.93359375 879 m 1,0,1
 670.916015625 710 670.916015625 710 536.916015625 710 c 0,2,3
 502.916015625 710 502.916015625 710 482.533203125 723.5 c 128,-1,4
 462.149414062 737 462.149414062 737 449.266601562 750.5 c 128,-1,5
 436.3828125 764 436.3828125 764 421.3828125 764 c 0,6,7
 393.3828125 764 393.3828125 764 375.377929688 712 c 1,8,-1
 267.377929688 712 l 1,9,10
 312.1640625 880 312.1640625 880 446.1640625 880 c 0,11,12
 472.1640625 880 472.1640625 880 491.701171875 871.5 c 128,-1,13
 511.239257812 863 511.239257812 863 519.545898438 853.5 c 128,-1,14
 527.852539062 844 527.852539062 844 538.890625 835.5 c 128,-1,15
 549.927734375 827 549.927734375 827 561.927734375 827 c 0,16,17
 589.927734375 827 589.927734375 827 607.93359375 879 c 1,18,-1
 715.93359375 879 l 1,0,1
771.373046875 660 m 1,19,-1
 619 0 l 1,20,-1
 395 0 l 1,21,-1
 290.494140625 327 l 1,22,-1
 269.272460938 417 l 1,23,-1
 267.272460938 417 l 1,24,-1
 241.028320312 286 l 1,25,-1
 175 0 l 1,26,-1
 -3 0 l 1,27,-1
 149.373046875 660 l 1,28,-1
 372.373046875 660 l 1,29,-1
 476.87890625 333 l 1,30,-1
 499.100585938 243 l 1,31,-1
 500.100585938 243 l 1,32,-1
 526.344726562 374 l 1,33,-1
 592.373046875 660 l 1,34,-1
 771.373046875 660 l 1,19,-1
EndSplineSet
Substitution2: "Single Substitution lookup 57 subtable" Ntilde.swsh
Substitution2: "'swsh' Swash lookup 36 subtable" Ntilde.swsh
Substitution2: "'c2sc' Capitals to Small Capitals lookup 11 subtable" ntilde.sc
AlternateSubs2: "'aalt' Access All Alternates lookup 1 subtable" ntilde.sc Ntilde.swsh
EndChar

StartChar: Ograve
Encoding: 210 210 148
Width: 733
GlyphClass: 2
Flags: W
LayerCount: 2
Fore
SplineSet
516.93359375 879 m 1,0,-1
 532.0703125 715 l 1,1,-1
 388.0703125 715 l 1,2,-1
 331.93359375 879 l 1,3,-1
 516.93359375 879 l 1,0,-1
457.681640625 670 m 128,-1,5
 612.681640625 670 612.681640625 670 679.018554688 580.5 c 128,-1,6
 745.356445312 491 745.356445312 491 708.186523438 330 c 128,-1,7
 671.016601562 169 671.016601562 169 563.354492188 79.5 c 128,-1,8
 455.69140625 -10 455.69140625 -10 300.69140625 -10 c 128,-1,9
 145.69140625 -10 145.69140625 -10 78.4697265625 80 c 128,-1,10
 11.248046875 170 11.248046875 170 48.1865234375 330 c 128,-1,11
 85.125 490 85.125 490 193.903320312 580 c 128,-1,4
 302.681640625 670 302.681640625 670 457.681640625 670 c 128,-1,5
421.666015625 514 m 0,12,13
 300.666015625 514 300.666015625 514 258.186523438 330 c 128,-1,14
 215.70703125 146 215.70703125 146 336.70703125 146 c 0,15,16
 456.70703125 146 456.70703125 146 499.186523438 330 c 128,-1,17
 541.666015625 514 541.666015625 514 421.666015625 514 c 0,12,13
EndSplineSet
Substitution2: "'c2sc' Capitals to Small Capitals lookup 11 subtable" ograve.sc
Substitution2: "'aalt' Access All Alternates lookup 0 subtable" ograve.sc
EndChar

StartChar: Oacute
Encoding: 211 211 149
Width: 733
GlyphClass: 2
Flags: W
LayerCount: 2
Fore
SplineSet
476.93359375 879 m 1,0,-1
 661.93359375 879 l 1,1,-1
 530.0703125 715 l 1,2,-1
 386.0703125 715 l 1,3,-1
 476.93359375 879 l 1,0,-1
457.681640625 670 m 128,-1,5
 612.681640625 670 612.681640625 670 679.018554688 580.5 c 128,-1,6
 745.356445312 491 745.356445312 491 708.186523438 330 c 128,-1,7
 671.016601562 169 671.016601562 169 563.354492188 79.5 c 128,-1,8
 455.69140625 -10 455.69140625 -10 300.69140625 -10 c 128,-1,9
 145.69140625 -10 145.69140625 -10 78.4697265625 80 c 128,-1,10
 11.248046875 170 11.248046875 170 48.1865234375 330 c 128,-1,11
 85.125 490 85.125 490 193.903320312 580 c 128,-1,4
 302.681640625 670 302.681640625 670 457.681640625 670 c 128,-1,5
421.666015625 514 m 0,12,13
 300.666015625 514 300.666015625 514 258.186523438 330 c 128,-1,14
 215.70703125 146 215.70703125 146 336.70703125 146 c 0,15,16
 456.70703125 146 456.70703125 146 499.186523438 330 c 128,-1,17
 541.666015625 514 541.666015625 514 421.666015625 514 c 0,12,13
EndSplineSet
Substitution2: "'c2sc' Capitals to Small Capitals lookup 11 subtable" oacute.sc
Substitution2: "'aalt' Access All Alternates lookup 0 subtable" oacute.sc
EndChar

StartChar: Ocircumflex
Encoding: 212 212 150
Width: 733
GlyphClass: 2
Flags: W
LayerCount: 2
Fore
SplineSet
672.83984375 714 m 1,0,-1
 527.83984375 714 l 1,1,-1
 485.6171875 791 l 1,2,-1
 407.83984375 714 l 1,3,-1
 262.83984375 714 l 1,4,-1
 411.39453125 881 l 1,5,-1
 601.39453125 881 l 1,6,-1
 672.83984375 714 l 1,0,-1
457.681640625 670 m 128,-1,8
 612.681640625 670 612.681640625 670 679.018554688 580.5 c 128,-1,9
 745.356445312 491 745.356445312 491 708.186523438 330 c 128,-1,10
 671.016601562 169 671.016601562 169 563.354492188 79.5 c 128,-1,11
 455.69140625 -10 455.69140625 -10 300.69140625 -10 c 128,-1,12
 145.69140625 -10 145.69140625 -10 78.4697265625 80 c 128,-1,13
 11.248046875 170 11.248046875 170 48.1865234375 330 c 128,-1,14
 85.125 490 85.125 490 193.903320312 580 c 128,-1,7
 302.681640625 670 302.681640625 670 457.681640625 670 c 128,-1,8
421.666015625 514 m 0,15,16
 300.666015625 514 300.666015625 514 258.186523438 330 c 128,-1,17
 215.70703125 146 215.70703125 146 336.70703125 146 c 0,18,19
 456.70703125 146 456.70703125 146 499.186523438 330 c 128,-1,20
 541.666015625 514 541.666015625 514 421.666015625 514 c 0,15,16
EndSplineSet
Substitution2: "'c2sc' Capitals to Small Capitals lookup 11 subtable" ocircumflex.sc
Substitution2: "'aalt' Access All Alternates lookup 0 subtable" ocircumflex.sc
EndChar

StartChar: Otilde
Encoding: 213 213 151
Width: 733
GlyphClass: 2
Flags: W
LayerCount: 2
Fore
SplineSet
709.93359375 879 m 1,0,1
 664.916015625 710 664.916015625 710 530.916015625 710 c 0,2,3
 496.916015625 710 496.916015625 710 476.533203125 723.5 c 128,-1,4
 456.149414062 737 456.149414062 737 443.266601562 750.5 c 128,-1,5
 430.3828125 764 430.3828125 764 415.3828125 764 c 0,6,7
 387.3828125 764 387.3828125 764 369.377929688 712 c 1,8,-1
 261.377929688 712 l 1,9,10
 306.1640625 880 306.1640625 880 440.1640625 880 c 0,11,12
 466.1640625 880 466.1640625 880 485.701171875 871.5 c 128,-1,13
 505.239257812 863 505.239257812 863 513.545898438 853.5 c 128,-1,14
 521.852539062 844 521.852539062 844 532.890625 835.5 c 128,-1,15
 543.927734375 827 543.927734375 827 555.927734375 827 c 0,16,17
 583.927734375 827 583.927734375 827 601.93359375 879 c 1,18,-1
 709.93359375 879 l 1,0,1
457.681640625 670 m 128,-1,20
 612.681640625 670 612.681640625 670 679.018554688 580.5 c 128,-1,21
 745.356445312 491 745.356445312 491 708.186523438 330 c 128,-1,22
 671.016601562 169 671.016601562 169 563.354492188 79.5 c 128,-1,23
 455.69140625 -10 455.69140625 -10 300.69140625 -10 c 128,-1,24
 145.69140625 -10 145.69140625 -10 78.4697265625 80 c 128,-1,25
 11.248046875 170 11.248046875 170 48.1865234375 330 c 128,-1,26
 85.125 490 85.125 490 193.903320312 580 c 128,-1,19
 302.681640625 670 302.681640625 670 457.681640625 670 c 128,-1,20
421.666015625 514 m 0,27,28
 300.666015625 514 300.666015625 514 258.186523438 330 c 128,-1,29
 215.70703125 146 215.70703125 146 336.70703125 146 c 0,30,31
 456.70703125 146 456.70703125 146 499.186523438 330 c 128,-1,32
 541.666015625 514 541.666015625 514 421.666015625 514 c 0,27,28
EndSplineSet
Substitution2: "'c2sc' Capitals to Small Capitals lookup 11 subtable" otilde.sc
Substitution2: "'aalt' Access All Alternates lookup 0 subtable" otilde.sc
EndChar

StartChar: Odieresis
Encoding: 214 214 152
Width: 733
GlyphClass: 2
Flags: W
LayerCount: 2
Fore
SplineSet
389.240234375 876 m 0,0,1
 435.240234375 876 435.240234375 876 455.045898438 853.5 c 128,-1,2
 474.8515625 831 474.8515625 831 465.6171875 791 c 0,3,4
 456.151367188 750 456.151367188 750 426.072265625 728 c 128,-1,5
 395.993164062 706 395.993164062 706 349.993164062 706 c 0,6,7
 305.993164062 706 305.993164062 706 286.1875 728.5 c 128,-1,8
 266.381835938 751 266.381835938 751 275.6171875 791 c 128,-1,9
 284.8515625 831 284.8515625 831 315.045898438 853.5 c 128,-1,10
 345.240234375 876 345.240234375 876 389.240234375 876 c 0,0,1
618.240234375 876 m 0,11,12
 664.240234375 876 664.240234375 876 684.045898438 853.5 c 128,-1,13
 703.8515625 831 703.8515625 831 694.6171875 791 c 0,14,15
 685.151367188 750 685.151367188 750 655.072265625 728 c 128,-1,16
 624.993164062 706 624.993164062 706 578.993164062 706 c 0,17,18
 534.993164062 706 534.993164062 706 515.1875 728.5 c 128,-1,19
 495.381835938 751 495.381835938 751 504.6171875 791 c 128,-1,20
 513.8515625 831 513.8515625 831 544.045898438 853.5 c 128,-1,21
 574.240234375 876 574.240234375 876 618.240234375 876 c 0,11,12
457.681640625 670 m 128,-1,23
 612.681640625 670 612.681640625 670 679.018554688 580.5 c 128,-1,24
 745.356445312 491 745.356445312 491 708.186523438 330 c 128,-1,25
 671.016601562 169 671.016601562 169 563.354492188 79.5 c 128,-1,26
 455.69140625 -10 455.69140625 -10 300.69140625 -10 c 128,-1,27
 145.69140625 -10 145.69140625 -10 78.4697265625 80 c 128,-1,28
 11.248046875 170 11.248046875 170 48.1865234375 330 c 128,-1,29
 85.125 490 85.125 490 193.903320312 580 c 128,-1,22
 302.681640625 670 302.681640625 670 457.681640625 670 c 128,-1,23
421.666015625 514 m 0,30,31
 300.666015625 514 300.666015625 514 258.186523438 330 c 128,-1,32
 215.70703125 146 215.70703125 146 336.70703125 146 c 0,33,34
 456.70703125 146 456.70703125 146 499.186523438 330 c 128,-1,35
 541.666015625 514 541.666015625 514 421.666015625 514 c 0,30,31
EndSplineSet
Substitution2: "'titl' Titling lookup 41 subtable" Odieresis.titl
Substitution2: "'c2sc' Capitals to Small Capitals lookup 11 subtable" odieresis.sc
AlternateSubs2: "'aalt' Access All Alternates lookup 1 subtable" odieresis.sc Odieresis.titl
EndChar

StartChar: multiply
Encoding: 215 215 153
Width: 604
GlyphClass: 2
Flags: W
LayerCount: 2
Fore
SplineSet
606.047851562 481 m 1,0,-1
 419.956054688 329 l 1,1,-1
 536.094726562 178 l 1,2,-1
 406.622070312 72 l 1,3,-1
 289.483398438 223 l 1,4,-1
 102.622070312 72 l 1,5,-1
 21.0947265625 178 l 1,6,-1
 207.956054688 329 l 1,7,-1
 91.0478515625 481 l 1,8,-1
 221.51953125 587 l 1,9,-1
 338.427734375 435 l 1,10,-1
 525.51953125 587 l 1,11,-1
 606.047851562 481 l 1,0,-1
EndSplineSet
EndChar

StartChar: Oslash
Encoding: 216 216 154
Width: 733
GlyphClass: 2
Flags: W
LayerCount: 2
Fore
SplineSet
675.827148438 584 m 1,0,1
 746.279296875 495 746.279296875 495 708.186523438 330 c 0,2,3
 671.016601562 169 671.016601562 169 563.354492188 79.5 c 128,-1,4
 455.69140625 -10 455.69140625 -10 300.69140625 -10 c 0,5,6
 195.69140625 -10 195.69140625 -10 130.387695312 32 c 1,7,-1
 77.458984375 -24 l 1,8,-1
 -14.541015625 -24 l 1,9,-1
 81.5458984375 76 l 1,10,11
 10.32421875 166 10.32421875 166 48.1865234375 330 c 0,12,13
 85.125 490 85.125 490 193.903320312 580 c 128,-1,14
 302.681640625 670 302.681640625 670 457.681640625 670 c 0,15,16
 561.681640625 670 561.681640625 670 627.985351562 628 c 1,17,-1
 678.221679688 681 l 1,18,-1
 769.221679688 681 l 1,19,-1
 675.827148438 584 l 1,0,1
421.666015625 514 m 0,20,21
 300.666015625 514 300.666015625 514 258.186523438 330 c 0,22,23
 244.795898438 272 244.795898438 272 246.25390625 235 c 1,24,-1
 487.356445312 491 l 1,25,26
 463.666015625 514 463.666015625 514 421.666015625 514 c 0,20,21
336.70703125 146 m 0,27,28
 456.70703125 146 456.70703125 146 499.186523438 330 c 0,29,30
 510.729492188 380 510.729492188 380 510.502929688 418 c 1,31,-1
 274.32421875 166 l 1,32,33
 297.70703125 146 297.70703125 146 336.70703125 146 c 0,27,28
EndSplineSet
Substitution2: "'c2sc' Capitals to Small Capitals lookup 11 subtable" oslash.sc
Substitution2: "'aalt' Access All Alternates lookup 0 subtable" oslash.sc
EndChar

StartChar: Ugrave
Encoding: 217 217 155
Width: 710
GlyphClass: 2
Flags: W
LayerCount: 2
Fore
SplineSet
504.93359375 879 m 1,0,-1
 520.0703125 715 l 1,1,-1
 376.0703125 715 l 1,2,-1
 319.93359375 879 l 1,3,-1
 504.93359375 879 l 1,0,-1
751.373046875 660 m 1,4,-1
 662.950195312 277 l 2,5,6
 596.69140625 -10 596.69140625 -10 288.69140625 -10 c 128,-1,7
 -19.30859375 -10 -19.30859375 -10 46.9501953125 277 c 2,8,-1
 135.373046875 660 l 1,9,-1
 341.373046875 660 l 1,10,-1
 250.411132812 266 l 2,11,12
 222.70703125 146 222.70703125 146 324.70703125 146 c 0,13,14
 427.70703125 146 427.70703125 146 455.411132812 266 c 2,15,-1
 546.373046875 660 l 1,16,-1
 751.373046875 660 l 1,4,-1
EndSplineSet
Substitution2: "'c2sc' Capitals to Small Capitals lookup 11 subtable" ugrave.sc
Substitution2: "'aalt' Access All Alternates lookup 0 subtable" ugrave.sc
EndChar

StartChar: Uacute
Encoding: 218 218 156
Width: 710
GlyphClass: 2
Flags: W
LayerCount: 2
Fore
SplineSet
465.93359375 879 m 1,0,-1
 650.93359375 879 l 1,1,-1
 519.0703125 715 l 1,2,-1
 375.0703125 715 l 1,3,-1
 465.93359375 879 l 1,0,-1
751.373046875 660 m 1,4,-1
 662.950195312 277 l 2,5,6
 596.69140625 -10 596.69140625 -10 288.69140625 -10 c 128,-1,7
 -19.30859375 -10 -19.30859375 -10 46.9501953125 277 c 2,8,-1
 135.373046875 660 l 1,9,-1
 341.373046875 660 l 1,10,-1
 250.411132812 266 l 2,11,12
 222.70703125 146 222.70703125 146 324.70703125 146 c 0,13,14
 427.70703125 146 427.70703125 146 455.411132812 266 c 2,15,-1
 546.373046875 660 l 1,16,-1
 751.373046875 660 l 1,4,-1
EndSplineSet
Substitution2: "'c2sc' Capitals to Small Capitals lookup 11 subtable" uacute.sc
Substitution2: "'aalt' Access All Alternates lookup 0 subtable" uacute.sc
EndChar

StartChar: Ucircumflex
Encoding: 219 219 157
Width: 710
GlyphClass: 2
Flags: W
LayerCount: 2
Fore
SplineSet
660.83984375 714 m 1,0,-1
 515.83984375 714 l 1,1,-1
 473.6171875 791 l 1,2,-1
 395.83984375 714 l 1,3,-1
 250.83984375 714 l 1,4,-1
 399.39453125 881 l 1,5,-1
 589.39453125 881 l 1,6,-1
 660.83984375 714 l 1,0,-1
751.373046875 660 m 1,7,-1
 662.950195312 277 l 2,8,9
 596.69140625 -10 596.69140625 -10 288.69140625 -10 c 128,-1,10
 -19.30859375 -10 -19.30859375 -10 46.9501953125 277 c 2,11,-1
 135.373046875 660 l 1,12,-1
 341.373046875 660 l 1,13,-1
 250.411132812 266 l 2,14,15
 222.70703125 146 222.70703125 146 324.70703125 146 c 0,16,17
 427.70703125 146 427.70703125 146 455.411132812 266 c 2,18,-1
 546.373046875 660 l 1,19,-1
 751.373046875 660 l 1,7,-1
EndSplineSet
Substitution2: "'c2sc' Capitals to Small Capitals lookup 11 subtable" ucircumflex.sc
Substitution2: "'aalt' Access All Alternates lookup 0 subtable" ucircumflex.sc
EndChar

StartChar: Udieresis
Encoding: 220 220 158
Width: 710
GlyphClass: 2
Flags: W
LayerCount: 2
Fore
SplineSet
378.240234375 876 m 0,0,1
 424.240234375 876 424.240234375 876 444.045898438 853.5 c 128,-1,2
 463.8515625 831 463.8515625 831 454.6171875 791 c 0,3,4
 445.151367188 750 445.151367188 750 415.072265625 728 c 128,-1,5
 384.993164062 706 384.993164062 706 338.993164062 706 c 0,6,7
 294.993164062 706 294.993164062 706 275.1875 728.5 c 128,-1,8
 255.381835938 751 255.381835938 751 264.6171875 791 c 128,-1,9
 273.8515625 831 273.8515625 831 304.045898438 853.5 c 128,-1,10
 334.240234375 876 334.240234375 876 378.240234375 876 c 0,0,1
607.240234375 876 m 0,11,12
 653.240234375 876 653.240234375 876 673.045898438 853.5 c 128,-1,13
 692.8515625 831 692.8515625 831 683.6171875 791 c 0,14,15
 674.151367188 750 674.151367188 750 644.072265625 728 c 128,-1,16
 613.993164062 706 613.993164062 706 567.993164062 706 c 0,17,18
 523.993164062 706 523.993164062 706 504.1875 728.5 c 128,-1,19
 484.381835938 751 484.381835938 751 493.6171875 791 c 128,-1,20
 502.8515625 831 502.8515625 831 533.045898438 853.5 c 128,-1,21
 563.240234375 876 563.240234375 876 607.240234375 876 c 0,11,12
751.373046875 660 m 1,22,-1
 662.950195312 277 l 2,23,24
 596.69140625 -10 596.69140625 -10 288.69140625 -10 c 128,-1,25
 -19.30859375 -10 -19.30859375 -10 46.9501953125 277 c 2,26,-1
 135.373046875 660 l 1,27,-1
 341.373046875 660 l 1,28,-1
 250.411132812 266 l 2,29,30
 222.70703125 146 222.70703125 146 324.70703125 146 c 0,31,32
 427.70703125 146 427.70703125 146 455.411132812 266 c 2,33,-1
 546.373046875 660 l 1,34,-1
 751.373046875 660 l 1,22,-1
EndSplineSet
Substitution2: "'titl' Titling lookup 41 subtable" Udieresis.titl
Substitution2: "'c2sc' Capitals to Small Capitals lookup 11 subtable" udieresis.sc
AlternateSubs2: "'aalt' Access All Alternates lookup 1 subtable" udieresis.sc Udieresis.titl
EndChar

StartChar: Yacute
Encoding: 221 221 159
Width: 687
GlyphClass: 2
Flags: W
LayerCount: 2
Fore
SplineSet
452.93359375 879 m 1,0,-1
 637.93359375 879 l 1,1,-1
 506.0703125 715 l 1,2,-1
 362.0703125 715 l 1,3,-1
 452.93359375 879 l 1,0,-1
765.373046875 660 m 1,4,-1
 436.0234375 234 l 1,5,-1
 382 0 l 1,6,-1
 177 0 l 1,7,-1
 231.0234375 234 l 1,8,-1
 97.373046875 660 l 1,9,-1
 304.373046875 660 l 1,10,-1
 346.279296875 495 l 1,11,-1
 368.729492188 380 l 1,12,-1
 443.279296875 495 l 1,13,-1
 562.373046875 660 l 1,14,-1
 765.373046875 660 l 1,4,-1
EndSplineSet
Substitution2: "'c2sc' Capitals to Small Capitals lookup 11 subtable" yacute.sc
Substitution2: "'aalt' Access All Alternates lookup 0 subtable" yacute.sc
EndChar

StartChar: Thorn
Encoding: 222 222 160
Width: 680
GlyphClass: 2
Flags: W
LayerCount: 2
Fore
SplineSet
446.671875 566 m 2,0,1
 575.671875 566 575.671875 566 631.166015625 507.5 c 128,-1,2
 686.66015625 449 686.66015625 449 659.802734375 337 c 0,3,4
 634.9453125 225 634.9453125 225 552.439453125 166.5 c 128,-1,5
 469.93359375 108 469.93359375 108 340.93359375 108 c 2,6,-1
 225.93359375 108 l 1,7,-1
 201 0 l 1,8,-1
 -3 0 l 1,9,-1
 149.373046875 660 l 1,10,-1
 353.373046875 660 l 1,11,-1
 331.671875 566 l 1,12,-1
 446.671875 566 l 2,0,1
345.102539062 256 m 2,13,14
 390.102539062 256 390.102539062 256 418.219726562 276 c 128,-1,15
 446.336914062 296 446.336914062 296 454.802734375 337 c 0,16,17
 465.268554688 378 465.268554688 378 446.270507812 397.5 c 128,-1,18
 427.272460938 417 427.272460938 417 382.272460938 417 c 2,19,-1
 297.272460938 417 l 1,20,-1
 260.102539062 256 l 1,21,-1
 345.102539062 256 l 2,13,14
EndSplineSet
Substitution2: "'c2sc' Capitals to Small Capitals lookup 11 subtable" thorn.sc
Substitution2: "'aalt' Access All Alternates lookup 0 subtable" thorn.sc
EndChar

StartChar: germandbls
Encoding: 223 223 161
Width: 657
GlyphClass: 2
Flags: W
LayerCount: 2
Fore
SplineSet
471.727539062 354 m 1,0,1
 552.727539062 354 552.727539062 354 590.030273438 305.5 c 128,-1,2
 627.333007812 257 627.333007812 257 609.325195312 179 c 0,3,4
 590.85546875 99 590.85546875 99 522.2734375 44.5 c 128,-1,5
 453.69140625 -10 453.69140625 -10 345.69140625 -10 c 0,6,7
 261.69140625 -10 261.69140625 -10 223.079101562 22 c 1,8,-1
 282.091796875 152 l 1,9,10
 299.012695312 130 299.012695312 130 336.012695312 130 c 0,11,12
 367.012695312 130 367.012695312 130 390.361328125 151 c 128,-1,13
 413.708984375 172 413.708984375 172 422.020507812 208 c 0,14,15
 438.643554688 280 438.643554688 280 355.643554688 280 c 2,16,-1
 303.643554688 280 l 1,17,-1
 357.502929688 418 l 1,18,-1
 386.502929688 418 l 2,19,20
 419.733398438 419 419.733398438 419 443.08203125 440 c 128,-1,21
 466.430664062 461 466.430664062 461 474.741210938 497 c 0,22,23
 482.822265625 532 482.822265625 532 466.82421875 551.5 c 128,-1,24
 450.826171875 571 450.826171875 571 415.826171875 571 c 0,25,26
 362.826171875 571 362.826171875 571 333.784179688 540.5 c 128,-1,27
 304.743164062 510 304.743164062 510 288.3515625 439 c 2,28,-1
 187 0 l 1,29,-1
 -15 0 l 1,30,-1
 88.4287109375 448 l 2,31,32
 118.2109375 577 118.2109375 577 205.178710938 644 c 128,-1,33
 292.147460938 711 292.147460938 711 450.147460938 711 c 0,34,35
 579.147460938 711 579.147460938 711 636.680664062 657 c 128,-1,36
 694.213867188 603 694.213867188 603 673.897460938 515 c 0,37,38
 658.890625 450 658.890625 450 603.040039062 403 c 128,-1,39
 547.189453125 356 547.189453125 356 472.189453125 356 c 1,40,-1
 471.727539062 354 l 1,0,1
EndSplineSet
Substitution2: "Single Substitution lookup 57 subtable" germandbls.calt
Substitution2: "'smcp' Lowercase to Small Capitals lookup 12 subtable" germandbls.sc
AlternateSubs2: "'aalt' Access All Alternates lookup 1 subtable" germandbls.sc germandbls.calt
EndChar

StartChar: agrave
Encoding: 224 224 162
Width: 585
GlyphClass: 2
Flags: W
LayerCount: 2
Fore
SplineSet
417.055664062 559 m 1,0,-1
 273.055664062 559 l 1,1,-1
 211.45703125 734 l 1,2,-1
 394.45703125 734 l 1,3,-1
 417.055664062 559 l 1,0,-1
520.625976562 111 m 0,4,5
 537.625976562 111 537.625976562 111 549.549804688 115 c 1,6,-1
 508.846679688 8 l 1,7,8
 471.69140625 -10 471.69140625 -10 433.69140625 -10 c 0,9,10
 314.69140625 -10 314.69140625 -10 308.391601562 71 c 1,11,12
 243.69140625 -10 243.69140625 -10 111.69140625 -10 c 0,13,14
 35.69140625 -10 35.69140625 -10 3.4638671875 21.5 c 128,-1,15
 -28.763671875 53 -28.763671875 53 -15.142578125 112 c 0,16,17
 -0.59765625 175 -0.59765625 175 53.40625 214 c 128,-1,18
 107.409179688 253 107.409179688 253 217.2578125 274 c 2,19,-1
 328.336914062 296 l 1,20,-1
 332.723632812 315 l 2,21,22
 339.418945312 344 339.418945312 344 328.112304688 360 c 128,-1,23
 316.806640625 376 316.806640625 376 289.806640625 376 c 0,24,25
 225.806640625 376 225.806640625 376 201.876953125 307 c 1,26,-1
 43.95703125 342 l 1,27,28
 73.4267578125 422 73.4267578125 422 145.084960938 466 c 128,-1,29
 216.743164062 510 216.743164062 510 327.743164062 510 c 0,30,31
 577.743164062 510 577.743164062 510 531.799804688 311 c 2,32,-1
 494.861328125 151 l 2,33,34
 485.625976562 111 485.625976562 111 520.625976562 111 c 0,4,5
219.93359375 108 m 0,35,36
 245.93359375 108 245.93359375 108 269.012695312 123.5 c 128,-1,37
 292.090820312 139 292.090820312 139 298.5546875 167 c 2,38,-1
 309.174804688 213 l 1,39,-1
 250.942382812 199 l 2,40,41
 195.94140625 186 195.94140625 186 186.9375 147 c 128,-1,42
 177.93359375 108 177.93359375 108 219.93359375 108 c 0,35,36
EndSplineSet
Substitution2: "'smcp' Lowercase to Small Capitals lookup 12 subtable" agrave.sc
Substitution2: "'aalt' Access All Alternates lookup 0 subtable" agrave.sc
EndChar

StartChar: aacute
Encoding: 225 225 163
Width: 585
GlyphClass: 2
Flags: W
LayerCount: 2
Fore
SplineSet
541.45703125 734 m 1,0,-1
 399.055664062 559 l 1,1,-1
 255.055664062 559 l 1,2,-1
 358.45703125 734 l 1,3,-1
 541.45703125 734 l 1,0,-1
520.625976562 111 m 0,4,5
 537.625976562 111 537.625976562 111 549.549804688 115 c 1,6,-1
 508.846679688 8 l 1,7,8
 471.69140625 -10 471.69140625 -10 433.69140625 -10 c 0,9,10
 314.69140625 -10 314.69140625 -10 308.391601562 71 c 1,11,12
 243.69140625 -10 243.69140625 -10 111.69140625 -10 c 0,13,14
 35.69140625 -10 35.69140625 -10 3.4638671875 21.5 c 128,-1,15
 -28.763671875 53 -28.763671875 53 -15.142578125 112 c 0,16,17
 -0.59765625 175 -0.59765625 175 53.40625 214 c 128,-1,18
 107.409179688 253 107.409179688 253 217.2578125 274 c 2,19,-1
 328.336914062 296 l 1,20,-1
 332.723632812 315 l 2,21,22
 339.418945312 344 339.418945312 344 328.112304688 360 c 128,-1,23
 316.806640625 376 316.806640625 376 289.806640625 376 c 0,24,25
 225.806640625 376 225.806640625 376 201.876953125 307 c 1,26,-1
 43.95703125 342 l 1,27,28
 73.4267578125 422 73.4267578125 422 145.084960938 466 c 128,-1,29
 216.743164062 510 216.743164062 510 327.743164062 510 c 0,30,31
 577.743164062 510 577.743164062 510 531.799804688 311 c 2,32,-1
 494.861328125 151 l 2,33,34
 485.625976562 111 485.625976562 111 520.625976562 111 c 0,4,5
219.93359375 108 m 0,35,36
 245.93359375 108 245.93359375 108 269.012695312 123.5 c 128,-1,37
 292.090820312 139 292.090820312 139 298.5546875 167 c 2,38,-1
 309.174804688 213 l 1,39,-1
 250.942382812 199 l 2,40,41
 195.94140625 186 195.94140625 186 186.9375 147 c 128,-1,42
 177.93359375 108 177.93359375 108 219.93359375 108 c 0,35,36
EndSplineSet
Substitution2: "'smcp' Lowercase to Small Capitals lookup 12 subtable" aacute.sc
Substitution2: "'aalt' Access All Alternates lookup 0 subtable" aacute.sc
EndChar

StartChar: acircumflex
Encoding: 226 226 164
Width: 585
GlyphClass: 2
Flags: W
LayerCount: 2
Fore
SplineSet
358.677734375 631 m 1,0,-1
 278.439453125 552 l 1,1,-1
 137.439453125 552 l 1,2,-1
 284.840820312 727 l 1,3,-1
 476.840820312 727 l 1,4,-1
 543.439453125 552 l 1,5,-1
 402.439453125 552 l 1,6,-1
 358.677734375 631 l 1,0,-1
520.625976562 111 m 0,7,8
 537.625976562 111 537.625976562 111 549.549804688 115 c 1,9,-1
 508.846679688 8 l 1,10,11
 471.69140625 -10 471.69140625 -10 433.69140625 -10 c 0,12,13
 314.69140625 -10 314.69140625 -10 308.391601562 71 c 1,14,15
 243.69140625 -10 243.69140625 -10 111.69140625 -10 c 0,16,17
 35.69140625 -10 35.69140625 -10 3.4638671875 21.5 c 128,-1,18
 -28.763671875 53 -28.763671875 53 -15.142578125 112 c 0,19,20
 -0.59765625 175 -0.59765625 175 53.40625 214 c 128,-1,21
 107.409179688 253 107.409179688 253 217.2578125 274 c 2,22,-1
 328.336914062 296 l 1,23,-1
 332.723632812 315 l 2,24,25
 339.418945312 344 339.418945312 344 328.112304688 360 c 128,-1,26
 316.806640625 376 316.806640625 376 289.806640625 376 c 0,27,28
 225.806640625 376 225.806640625 376 201.876953125 307 c 1,29,-1
 43.95703125 342 l 1,30,31
 73.4267578125 422 73.4267578125 422 145.084960938 466 c 128,-1,32
 216.743164062 510 216.743164062 510 327.743164062 510 c 0,33,34
 577.743164062 510 577.743164062 510 531.799804688 311 c 2,35,-1
 494.861328125 151 l 2,36,37
 485.625976562 111 485.625976562 111 520.625976562 111 c 0,7,8
219.93359375 108 m 0,38,39
 245.93359375 108 245.93359375 108 269.012695312 123.5 c 128,-1,40
 292.090820312 139 292.090820312 139 298.5546875 167 c 2,41,-1
 309.174804688 213 l 1,42,-1
 250.942382812 199 l 2,43,44
 195.94140625 186 195.94140625 186 186.9375 147 c 128,-1,45
 177.93359375 108 177.93359375 108 219.93359375 108 c 0,38,39
EndSplineSet
Substitution2: "'smcp' Lowercase to Small Capitals lookup 12 subtable" acircumflex.sc
Substitution2: "'aalt' Access All Alternates lookup 0 subtable" acircumflex.sc
EndChar

StartChar: atilde
Encoding: 227 227 165
Width: 585
GlyphClass: 2
Flags: W
LayerCount: 2
Fore
SplineSet
288.444335938 604 m 0,0,1
 260.444335938 604 260.444335938 604 242.439453125 552 c 1,2,-1
 134.439453125 552 l 1,3,4
 179.224609375 720 179.224609375 720 313.224609375 720 c 0,5,6
 339.224609375 720 339.224609375 720 358.762695312 711.5 c 128,-1,7
 378.30078125 703 378.30078125 703 386.607421875 693.5 c 128,-1,8
 394.9140625 684 394.9140625 684 405.951171875 675.5 c 128,-1,9
 416.989257812 667 416.989257812 667 428.989257812 667 c 0,10,11
 456.989257812 667 456.989257812 667 474.994140625 719 c 1,12,-1
 582.994140625 719 l 1,13,14
 537.977539062 550 537.977539062 550 403.977539062 550 c 0,15,16
 369.977539062 550 369.977539062 550 349.59375 563.5 c 128,-1,17
 329.2109375 577 329.2109375 577 316.328125 590.5 c 128,-1,18
 303.444335938 604 303.444335938 604 288.444335938 604 c 0,0,1
520.625976562 111 m 0,19,20
 537.625976562 111 537.625976562 111 549.549804688 115 c 1,21,-1
 508.846679688 8 l 1,22,23
 471.69140625 -10 471.69140625 -10 433.69140625 -10 c 0,24,25
 314.69140625 -10 314.69140625 -10 308.391601562 71 c 1,26,27
 243.69140625 -10 243.69140625 -10 111.69140625 -10 c 0,28,29
 35.69140625 -10 35.69140625 -10 3.4638671875 21.5 c 128,-1,30
 -28.763671875 53 -28.763671875 53 -15.142578125 112 c 0,31,32
 -0.59765625 175 -0.59765625 175 53.40625 214 c 128,-1,33
 107.409179688 253 107.409179688 253 217.2578125 274 c 2,34,-1
 328.336914062 296 l 1,35,-1
 332.723632812 315 l 2,36,37
 339.418945312 344 339.418945312 344 328.112304688 360 c 128,-1,38
 316.806640625 376 316.806640625 376 289.806640625 376 c 0,39,40
 225.806640625 376 225.806640625 376 201.876953125 307 c 1,41,-1
 43.95703125 342 l 1,42,43
 73.4267578125 422 73.4267578125 422 145.084960938 466 c 128,-1,44
 216.743164062 510 216.743164062 510 327.743164062 510 c 0,45,46
 577.743164062 510 577.743164062 510 531.799804688 311 c 2,47,-1
 494.861328125 151 l 2,48,49
 485.625976562 111 485.625976562 111 520.625976562 111 c 0,19,20
219.93359375 108 m 0,50,51
 245.93359375 108 245.93359375 108 269.012695312 123.5 c 128,-1,52
 292.090820312 139 292.090820312 139 298.5546875 167 c 2,53,-1
 309.174804688 213 l 1,54,-1
 250.942382812 199 l 2,55,56
 195.94140625 186 195.94140625 186 186.9375 147 c 128,-1,57
 177.93359375 108 177.93359375 108 219.93359375 108 c 0,50,51
EndSplineSet
Substitution2: "'smcp' Lowercase to Small Capitals lookup 12 subtable" atilde.sc
Substitution2: "'aalt' Access All Alternates lookup 0 subtable" atilde.sc
EndChar

StartChar: adieresis
Encoding: 228 228 166
Width: 585
GlyphClass: 2
Flags: W
LayerCount: 2
Fore
SplineSet
223.053710938 546 m 0,0,1
 179.053710938 546 179.053710938 546 159.249023438 568.5 c 128,-1,2
 139.443359375 591 139.443359375 591 148.677734375 631 c 128,-1,3
 157.912109375 671 157.912109375 671 188.107421875 693.5 c 128,-1,4
 218.301757812 716 218.301757812 716 262.301757812 716 c 0,5,6
 308.301757812 716 308.301757812 716 328.107421875 693.5 c 128,-1,7
 347.912109375 671 347.912109375 671 338.677734375 631 c 0,8,9
 329.211914062 590 329.211914062 590 299.1328125 568 c 128,-1,10
 269.053710938 546 269.053710938 546 223.053710938 546 c 0,0,1
452.053710938 546 m 0,11,12
 408.053710938 546 408.053710938 546 388.249023438 568.5 c 128,-1,13
 368.443359375 591 368.443359375 591 377.677734375 631 c 128,-1,14
 386.912109375 671 386.912109375 671 417.107421875 693.5 c 128,-1,15
 447.301757812 716 447.301757812 716 491.301757812 716 c 0,16,17
 537.301757812 716 537.301757812 716 557.107421875 693.5 c 128,-1,18
 576.912109375 671 576.912109375 671 567.677734375 631 c 0,19,20
 558.211914062 590 558.211914062 590 528.1328125 568 c 128,-1,21
 498.053710938 546 498.053710938 546 452.053710938 546 c 0,11,12
520.625976562 111 m 0,22,23
 537.625976562 111 537.625976562 111 549.549804688 115 c 1,24,-1
 508.846679688 8 l 1,25,26
 471.69140625 -10 471.69140625 -10 433.69140625 -10 c 0,27,28
 314.69140625 -10 314.69140625 -10 308.391601562 71 c 1,29,30
 243.69140625 -10 243.69140625 -10 111.69140625 -10 c 0,31,32
 35.69140625 -10 35.69140625 -10 3.4638671875 21.5 c 128,-1,33
 -28.763671875 53 -28.763671875 53 -15.142578125 112 c 0,34,35
 -0.59765625 175 -0.59765625 175 53.40625 214 c 128,-1,36
 107.409179688 253 107.409179688 253 217.2578125 274 c 2,37,-1
 328.336914062 296 l 1,38,-1
 332.723632812 315 l 2,39,40
 339.418945312 344 339.418945312 344 328.112304688 360 c 128,-1,41
 316.806640625 376 316.806640625 376 289.806640625 376 c 0,42,43
 225.806640625 376 225.806640625 376 201.876953125 307 c 1,44,-1
 43.95703125 342 l 1,45,46
 73.4267578125 422 73.4267578125 422 145.084960938 466 c 128,-1,47
 216.743164062 510 216.743164062 510 327.743164062 510 c 0,48,49
 577.743164062 510 577.743164062 510 531.799804688 311 c 2,50,-1
 494.861328125 151 l 2,51,52
 485.625976562 111 485.625976562 111 520.625976562 111 c 0,22,23
219.93359375 108 m 0,53,54
 245.93359375 108 245.93359375 108 269.012695312 123.5 c 128,-1,55
 292.090820312 139 292.090820312 139 298.5546875 167 c 2,56,-1
 309.174804688 213 l 1,57,-1
 250.942382812 199 l 2,58,59
 195.94140625 186 195.94140625 186 186.9375 147 c 128,-1,60
 177.93359375 108 177.93359375 108 219.93359375 108 c 0,53,54
EndSplineSet
Substitution2: "'smcp' Lowercase to Small Capitals lookup 12 subtable" adieresis.sc
Substitution2: "'aalt' Access All Alternates lookup 0 subtable" adieresis.sc
EndChar

StartChar: aring
Encoding: 229 229 167
Width: 585
GlyphClass: 2
Flags: W
LayerCount: 2
Fore
SplineSet
339.130859375 542 m 0,0,1
 274.130859375 542 274.130859375 542 245.133789062 574.5 c 128,-1,2
 216.13671875 607 216.13671875 607 229.52734375 665 c 0,3,4
 242.686523438 722 242.686523438 722 286.690429688 754.5 c 128,-1,5
 330.693359375 787 330.693359375 787 395.693359375 787 c 0,6,7
 461.693359375 787 461.693359375 787 490.190429688 754.5 c 128,-1,8
 518.686523438 722 518.686523438 722 505.52734375 665 c 0,9,10
 492.13671875 607 492.13671875 607 448.633789062 574.5 c 128,-1,11
 405.130859375 542 405.130859375 542 339.130859375 542 c 0,0,1
377.685546875 709 m 0,12,13
 332.685546875 709 332.685546875 709 322.52734375 665 c 0,14,15
 317.678710938 644 317.678710938 644 326.909179688 632 c 128,-1,16
 336.138671875 620 336.138671875 620 357.138671875 620 c 128,-1,17
 378.138671875 620 378.138671875 620 393.409179688 632 c 128,-1,18
 408.678710938 644 408.678710938 644 413.52734375 665 c 128,-1,19
 418.375976562 686 418.375976562 686 408.530273438 697.5 c 128,-1,20
 398.685546875 709 398.685546875 709 377.685546875 709 c 0,12,13
520.625976562 111 m 0,21,22
 537.625976562 111 537.625976562 111 549.549804688 115 c 1,23,-1
 508.846679688 8 l 1,24,25
 471.69140625 -10 471.69140625 -10 433.69140625 -10 c 0,26,27
 314.69140625 -10 314.69140625 -10 308.391601562 71 c 1,28,29
 243.69140625 -10 243.69140625 -10 111.69140625 -10 c 0,30,31
 35.69140625 -10 35.69140625 -10 3.4638671875 21.5 c 128,-1,32
 -28.763671875 53 -28.763671875 53 -15.142578125 112 c 0,33,34
 -0.59765625 175 -0.59765625 175 53.40625 214 c 128,-1,35
 107.409179688 253 107.409179688 253 217.2578125 274 c 2,36,-1
 328.336914062 296 l 1,37,-1
 332.723632812 315 l 2,38,39
 339.418945312 344 339.418945312 344 328.112304688 360 c 128,-1,40
 316.806640625 376 316.806640625 376 289.806640625 376 c 0,41,42
 225.806640625 376 225.806640625 376 201.876953125 307 c 1,43,-1
 43.95703125 342 l 1,44,45
 73.4267578125 422 73.4267578125 422 145.084960938 466 c 128,-1,46
 216.743164062 510 216.743164062 510 327.743164062 510 c 0,47,48
 577.743164062 510 577.743164062 510 531.799804688 311 c 2,49,-1
 494.861328125 151 l 2,50,51
 485.625976562 111 485.625976562 111 520.625976562 111 c 0,21,22
219.93359375 108 m 0,52,53
 245.93359375 108 245.93359375 108 269.012695312 123.5 c 128,-1,54
 292.090820312 139 292.090820312 139 298.5546875 167 c 2,55,-1
 309.174804688 213 l 1,56,-1
 250.942382812 199 l 2,57,58
 195.94140625 186 195.94140625 186 186.9375 147 c 128,-1,59
 177.93359375 108 177.93359375 108 219.93359375 108 c 0,52,53
EndSplineSet
Substitution2: "'smcp' Lowercase to Small Capitals lookup 12 subtable" aring.sc
Substitution2: "'aalt' Access All Alternates lookup 0 subtable" aring.sc
EndChar

